IntelOneMono-BoldItalic.ufo
<glyph name="exclam" format="2">
  <advance width="614"/>
  <unicode hex="0021"/>
  <outline>
    <contour>
      <point x="269" y="277" type="line"/>
      <point x="367" y="277" type="line"/>
      <point x="576" y="710" type="line"/>
      <point x="311" y="710" type="line"/>
    </contour>
    <contour>
      <point x="272" y="161" type="curve" smooth="yes"/>
      <point x="159" y="161"/>
      <point x="126" y="105"/>
      <point x="126" y="46" type="curve" smooth="yes"/>
      <point x="126" y="5"/>
      <point x="156" y="-15"/>
      <point x="234" y="-15" type="curve" smooth="yes"/>
      <point x="347" y="-15"/>
      <point x="380" y="41"/>
      <point x="380" y="100" type="curve" smooth="yes"/>
      <point x="380" y="141"/>
      <point x="350" y="161"/>
    </contour>
  </outline>
</glyph>
<glyph name="quotedbl" format="2">
  <advance width="614"/>
  <unicode hex="0022"/>
  <outline>
    <contour>
      <point x="418" y="359" type="line"/>
      <point x="546" y="359" type="line"/>
      <point x="664" y="710" type="line"/>
      <point x="502" y="710" type="line"/>
    </contour>
    <contour>
      <point x="141" y="359" type="line"/>
      <point x="269" y="359" type="line"/>
      <point x="387" y="710" type="line"/>
      <point x="225" y="710" type="line"/>
    </contour>
  </outline>
</glyph>
<glyph name="dollar" format="2">
  <advance width="614"/>
  <unicode hex="0024"/>
  <outline>
    <contour>
      <point x="196" y="-142" type="line"/>
      <point x="246" y="2" type="line"/>
      <point x="268" y="0"/>
      <point x="290" y="-1"/>
      <point x="312" y="-1" type="curve" smooth="yes"/>
      <point x="471" y="-1"/>
      <point x="552" y="78"/>
      <point x="552" y="192" type="curve" smooth="yes"/>
      <point x="552" y="278"/>
      <point x="520" y="314"/>
      <point x="403" y="375" type="curve" smooth="yes"/>
      <point x="351" y="402" type="line" smooth="yes"/>
      <point x="298" y="429"/>
      <point x="284" y="448"/>
      <point x="284" y="473" type="curve" smooth="yes"/>
      <point x="284" y="513"/>
      <point x="312" y="537"/>
      <point x="387" y="537" type="curve" smooth="yes"/>
      <point x="443" y="537"/>
      <point x="508" y="523"/>
      <point x="591" y="497" type="curve"/>
      <point x="627" y="614" type="line"/>
      <point x="588" y="626"/>
      <point x="552" y="636"/>
      <point x="516" y="643" type="curve"/>
      <point x="570" y="797" type="line"/>
      <point x="479" y="797" type="line"/>
      <point x="428" y="654" type="line"/>
      <point x="416" y="655"/>
      <point x="403" y="655"/>
      <point x="390" y="655" type="curve" smooth="yes"/>
      <point x="224" y="655"/>
      <point x="137" y="572"/>
      <point x="137" y="465" type="curve" smooth="yes"/>
      <point x="137" y="385"/>
      <point x="173" y="339"/>
      <point x="268" y="289" type="curve" smooth="yes"/>
      <point x="320" y="262" type="line" smooth="yes"/>
      <point x="395" y="223"/>
      <point x="404" y="207"/>
      <point x="404" y="177" type="curve" smooth="yes"/>
      <point x="404" y="138"/>
      <point x="379" y="119"/>
      <point x="310" y="119" type="curve" smooth="yes"/>
      <point x="231" y="119"/>
      <point x="141" y="144"/>
      <point x="50" y="175" type="curve"/>
      <point x="10" y="56" type="line"/>
      <point x="58" y="39"/>
      <point x="108" y="25"/>
      <point x="160" y="14" type="curve"/>
      <point x="105" y="-142" type="line"/>
    </contour>
  </outline>
</glyph>
<glyph name="ampersand" format="2">
  <advance width="614"/>
  <unicode hex="0026"/>
  <outline>
    <contour>
      <point x="70" y="291" type="curve" smooth="yes"/>
      <point x="28" y="249"/>
      <point x="18" y="200"/>
      <point x="18" y="137" type="curve" smooth="yes"/>
      <point x="18" y="47"/>
      <point x="72" y="-14"/>
      <point x="175" y="-14" type="curve" smooth="yes"/>
      <point x="235" y="-14"/>
      <point x="280" y="1"/>
      <point x="353" y="76" type="curve"/>
      <point x="379" y="-1" type="line"/>
      <point x="518" y="-1" type="line"/>
      <point x="455" y="176" type="line"/>
      <point x="602" y="350" type="line"/>
      <point x="517" y="422" type="line"/>
      <point x="409" y="284" type="line"/>
      <point x="354" y="439" type="line" smooth="yes"/>
      <point x="347" y="458"/>
      <point x="345" y="471"/>
      <point x="345" y="483" type="curve" smooth="yes"/>
      <point x="345" y="530"/>
      <point x="380" y="559"/>
      <point x="438" y="559" type="curve" smooth="yes"/>
      <point x="467" y="559"/>
      <point x="500" y="556"/>
      <point x="557" y="548" type="curve"/>
      <point x="581" y="655" type="line"/>
      <point x="500" y="668"/>
      <point x="455" y="669"/>
      <point x="415" y="669" type="curve" smooth="yes"/>
      <point x="291" y="669"/>
      <point x="209" y="593"/>
      <point x="209" y="487" type="curve" smooth="yes"/>
      <point x="209" y="451"/>
      <point x="220" y="416"/>
      <point x="237" y="367" type="curve" smooth="yes"/>
      <point x="237" y="367"/>
      <point x="237" y="367"/>
      <point x="237" y="367" type="curve"/>
      <point x="138" y="341"/>
      <point x="98" y="319"/>
    </contour>
    <contour>
      <point x="156" y="162" type="curve" smooth="yes"/>
      <point x="156" y="191"/>
      <point x="163" y="218"/>
      <point x="180" y="235" type="curve" smooth="yes"/>
      <point x="196" y="251"/>
      <point x="208" y="260"/>
      <point x="270" y="280" type="curve"/>
      <point x="312" y="166" type="line"/>
      <point x="270" y="116"/>
      <point x="248" y="105"/>
      <point x="213" y="105" type="curve" smooth="yes"/>
      <point x="175" y="105"/>
      <point x="156" y="125"/>
    </contour>
  </outline>
</glyph>
<glyph name="asterisk" format="2">
  <advance width="614"/>
  <unicode hex="002A"/>
  <guideline x="298" y="334" angle="335.4781714112636" identifier="YkQCsAMSsB"/>
  <outline>
    <contour>
      <point x="102" y="233" type="curve"/>
      <point x="172" y="153" type="line"/>
      <point x="231" y="203"/>
      <point x="267" y="278"/>
      <point x="345" y="347" type="curve"/>
      <point x="379" y="279"/>
      <point x="369" y="201"/>
      <point x="397" y="153" type="curve"/>
      <point x="516" y="230" type="line"/>
      <point x="488" y="280"/>
      <point x="423" y="304"/>
      <point x="380" y="369" type="curve"/>
      <point x="470" y="394"/>
      <point x="540" y="383"/>
      <point x="608" y="404" type="curve"/>
      <point x="591" y="519" type="line"/>
      <point x="527" y="499"/>
      <point x="467" y="441"/>
      <point x="379" y="409" type="curve"/>
      <point x="406" y="498"/>
      <point x="464" y="564"/>
      <point x="483" y="630" type="curve"/>
      <point x="359" y="630" type="line"/>
      <point x="340" y="564"/>
      <point x="360" y="499"/>
      <point x="336" y="409" type="curve"/>
      <point x="264" y="442"/>
      <point x="233" y="500"/>
      <point x="179" y="521" type="curve"/>
      <point x="105" y="404" type="line"/>
      <point x="160" y="383"/>
      <point x="238" y="399"/>
      <point x="314" y="376" type="curve"/>
      <point x="235" y="309"/>
      <point x="159" y="283"/>
    </contour>
  </outline>
</glyph>
<glyph name="comma" format="2">
  <advance width="614"/>
  <unicode hex="002C"/>
  <outline>
    <contour>
      <point x="-38" y="-171" type="line"/>
      <point x="103" y="-171" type="line"/>
      <point x="288" y="-61"/>
      <point x="325" y="-14"/>
      <point x="415" y="160" type="curve"/>
      <point x="199" y="160" type="line"/>
      <point x="141" y="4"/>
      <point x="115" y="-25"/>
      <point x="-37" y="-169" type="curve"/>
    </contour>
  </outline>
</glyph>
<glyph name="hyphen" format="2">
  <advance width="614"/>
  <unicode hex="002D"/>
  <outline>
    <contour>
      <point x="152" y="348" type="line"/>
      <point x="110" y="204" type="line"/>
      <point x="484" y="204" type="line"/>
      <point x="526" y="348" type="line"/>
    </contour>
  </outline>
</glyph>
<glyph name="zero" format="2">
  <advance width="614"/>
  <unicode hex="0030"/>
  <outline>
    <contour>
      <point x="406" y="670" type="curve" smooth="yes"/>
      <point x="331" y="670"/>
      <point x="268" y="638"/>
      <point x="226" y="596" type="curve" smooth="yes"/>
      <point x="144" y="514"/>
      <point x="60" y="314"/>
      <point x="60" y="159" type="curve" smooth="yes"/>
      <point x="60" y="43"/>
      <point x="127" y="-15"/>
      <point x="260" y="-15" type="curve" smooth="yes"/>
      <point x="335" y="-15"/>
      <point x="398" y="17"/>
      <point x="440" y="59" type="curve" smooth="yes"/>
      <point x="522" y="141"/>
      <point x="606" y="341"/>
      <point x="606" y="496" type="curve" smooth="yes"/>
      <point x="606" y="612"/>
      <point x="539" y="670"/>
    </contour>
    <contour>
      <point x="314" y="511" type="curve" smooth="yes"/>
      <point x="338" y="535"/>
      <point x="365" y="544"/>
      <point x="398" y="544" type="curve" smooth="yes"/>
      <point x="446" y="544"/>
      <point x="470" y="526"/>
      <point x="470" y="471" type="curve" smooth="yes"/>
      <point x="470" y="468" type="line"/>
      <point x="214" y="296" type="line"/>
      <point x="236" y="380"/>
      <point x="276" y="473"/>
    </contour>
    <contour>
      <point x="268" y="110" type="curve" smooth="yes"/>
      <point x="219" y="110"/>
      <point x="196" y="129"/>
      <point x="196" y="184" type="curve" smooth="yes"/>
      <point x="196" y="186" type="line"/>
      <point x="451" y="356" type="line"/>
      <point x="429" y="273"/>
      <point x="390" y="182"/>
      <point x="352" y="144" type="curve" smooth="yes"/>
      <point x="328" y="120"/>
      <point x="301" y="110"/>
    </contour>
  </outline>
</glyph>
<glyph name="three" format="2">
  <advance width="614"/>
  <unicode hex="0033"/>
  <outline>
    <contour>
      <point x="152" y="535" type="line"/>
      <point x="422" y="535" type="line"/>
      <point x="422" y="532" type="line"/>
      <point x="195" y="349" type="line"/>
      <point x="202" y="282" type="line"/>
      <point x="376" y="282"/>
      <point x="396" y="266"/>
      <point x="396" y="226" type="curve" smooth="yes"/>
      <point x="396" y="184"/>
      <point x="343" y="144"/>
      <point x="153" y="130" type="curve" smooth="yes"/>
      <point x="40" y="122" type="line"/>
      <point x="15" y="-10" type="line"/>
      <point x="165" y="-1" type="line" smooth="yes"/>
      <point x="443" y="17"/>
      <point x="548" y="104"/>
      <point x="548" y="242" type="curve" smooth="yes"/>
      <point x="548" y="323"/>
      <point x="501" y="367"/>
      <point x="397" y="384" type="curve"/>
      <point x="397" y="387" type="line"/>
      <point x="635" y="585" type="line"/>
      <point x="635" y="655" type="line"/>
      <point x="187" y="655" type="line"/>
    </contour>
  </outline>
</glyph>
<glyph name="five" format="2">
  <advance width="614"/>
  <unicode hex="0035"/>
  <outline>
    <contour>
      <point x="549" y="282" type="curve" smooth="yes"/>
      <point x="549" y="372"/>
      <point x="487" y="423"/>
      <point x="388" y="423" type="curve" smooth="yes"/>
      <point x="343" y="423"/>
      <point x="306" y="417"/>
      <point x="262" y="397" type="curve"/>
      <point x="312" y="535" type="line"/>
      <point x="585" y="535" type="line"/>
      <point x="620" y="655" type="line"/>
      <point x="227" y="655" type="line"/>
      <point x="105" y="302" type="line"/>
      <point x="106" y="297" type="line"/>
      <point x="203" y="277" type="line"/>
      <point x="249" y="299"/>
      <point x="295" y="314"/>
      <point x="326" y="314" type="curve" smooth="yes"/>
      <point x="381" y="314"/>
      <point x="400" y="291"/>
      <point x="400" y="259" type="curve" smooth="yes"/>
      <point x="400" y="211"/>
      <point x="351" y="145"/>
      <point x="151" y="127" type="curve" smooth="yes"/>
      <point x="29" y="116" type="line"/>
      <point x="7" y="-10" type="line"/>
      <point x="126" y="0" type="line" smooth="yes"/>
      <point x="458" y="28"/>
      <point x="549" y="138"/>
    </contour>
  </outline>
</glyph>
<glyph name="six" format="2">
  <advance width="614"/>
  <unicode hex="0036"/>
  <outline>
    <contour>
      <point x="449" y="524" type="curve" smooth="yes"/>
      <point x="606" y="653" type="line"/>
      <point x="606" y="655" type="line"/>
      <point x="420" y="655" type="line"/>
      <point x="303" y="557" type="line" smooth="yes"/>
      <point x="100" y="387"/>
      <point x="50" y="290"/>
      <point x="50" y="175" type="curve" smooth="yes"/>
      <point x="50" y="64"/>
      <point x="124" y="-15"/>
      <point x="271" y="-15" type="curve" smooth="yes"/>
      <point x="450" y="-15"/>
      <point x="558" y="116"/>
      <point x="558" y="247" type="curve" smooth="yes"/>
      <point x="558" y="337"/>
      <point x="523" y="398"/>
      <point x="357" y="444" type="curve"/>
      <point x="383" y="468"/>
      <point x="414" y="495"/>
    </contour>
    <contour>
      <point x="197" y="195" type="curve" smooth="yes"/>
      <point x="197" y="236"/>
      <point x="213" y="287"/>
      <point x="276" y="361" type="curve"/>
      <point x="386" y="331"/>
      <point x="410" y="295"/>
      <point x="410" y="237" type="curve" smooth="yes"/>
      <point x="410" y="168"/>
      <point x="362" y="102"/>
      <point x="283" y="102" type="curve" smooth="yes"/>
      <point x="231" y="102"/>
      <point x="197" y="132"/>
    </contour>
  </outline>
</glyph>
<glyph name="nine" format="2">
  <advance width="614"/>
  <unicode hex="0039"/>
  <outline>
    <contour>
      <point x="218" y="131" type="curve" smooth="yes"/>
      <point x="61" y="2" type="line"/>
      <point x="61" y="0" type="line"/>
      <point x="247" y="0" type="line"/>
      <point x="364" y="98" type="line" smooth="yes"/>
      <point x="567" y="268"/>
      <point x="617" y="365"/>
      <point x="617" y="480" type="curve" smooth="yes"/>
      <point x="617" y="591"/>
      <point x="543" y="670"/>
      <point x="396" y="670" type="curve" smooth="yes"/>
      <point x="217" y="670"/>
      <point x="109" y="539"/>
      <point x="109" y="408" type="curve" smooth="yes"/>
      <point x="109" y="318"/>
      <point x="144" y="257"/>
      <point x="310" y="211" type="curve"/>
      <point x="284" y="187"/>
      <point x="253" y="160"/>
    </contour>
    <contour>
      <point x="257" y="418" type="curve" smooth="yes"/>
      <point x="257" y="487"/>
      <point x="305" y="553"/>
      <point x="384" y="553" type="curve" smooth="yes"/>
      <point x="436" y="553"/>
      <point x="470" y="523"/>
      <point x="470" y="460" type="curve" smooth="yes"/>
      <point x="470" y="419"/>
      <point x="454" y="368"/>
      <point x="391" y="294" type="curve"/>
      <point x="281" y="324"/>
      <point x="257" y="360"/>
    </contour>
  </outline>
</glyph>
<glyph name="colon" format="2">
  <advance width="614"/>
  <unicode hex="003A"/>
  <outline>
    <contour>
      <point x="332" y="292" type="curve" smooth="yes"/>
      <point x="423" y="292"/>
      <point x="480" y="344"/>
      <point x="480" y="418" type="curve" smooth="yes"/>
      <point x="480" y="467"/>
      <point x="442" y="491"/>
      <point x="370" y="491" type="curve" smooth="yes"/>
      <point x="279" y="491"/>
      <point x="222" y="439"/>
      <point x="222" y="365" type="curve" smooth="yes"/>
      <point x="222" y="316"/>
      <point x="260" y="292"/>
    </contour>
    <contour>
      <point x="245" y="-15" type="curve" smooth="yes"/>
      <point x="336" y="-15"/>
      <point x="393" y="37"/>
      <point x="393" y="111" type="curve" smooth="yes"/>
      <point x="393" y="160"/>
      <point x="355" y="184"/>
      <point x="283" y="184" type="curve" smooth="yes"/>
      <point x="192" y="184"/>
      <point x="135" y="132"/>
      <point x="135" y="58" type="curve" smooth="yes"/>
      <point x="135" y="9"/>
      <point x="173" y="-15"/>
    </contour>
  </outline>
</glyph>
<glyph name="semicolon" format="2">
  <advance width="614"/>
  <unicode hex="003B"/>
  <outline>
    <contour>
      <point x="349" y="292" type="curve" smooth="yes"/>
      <point x="440" y="292"/>
      <point x="497" y="344"/>
      <point x="497" y="418" type="curve" smooth="yes"/>
      <point x="497" y="467"/>
      <point x="459" y="491"/>
      <point x="387" y="491" type="curve" smooth="yes"/>
      <point x="296" y="491"/>
      <point x="239" y="439"/>
      <point x="239" y="365" type="curve" smooth="yes"/>
      <point x="239" y="316"/>
      <point x="277" y="292"/>
    </contour>
    <contour>
      <point x="-45" y="-171" type="line"/>
      <point x="96" y="-171" type="line"/>
      <point x="281" y="-61"/>
      <point x="318" y="-14"/>
      <point x="408" y="160" type="curve"/>
      <point x="192" y="160" type="line"/>
      <point x="134" y="4"/>
      <point x="108" y="-25"/>
      <point x="-44" y="-169" type="curve"/>
    </contour>
  </outline>
</glyph>
<glyph name="A" format="2">
  <advance width="614"/>
  <unicode hex="0041"/>
  <anchor x="427" y="691" name="aboveUC"/>
  <anchor x="416" y="651" name="aboveUCx"/>
  <anchor x="443" y="-10" name="belowogonek"/>
  <anchor x="270" y="-35" name="below"/>
  <anchor x="280" y="0" name="belowx"/>
  <outline>
    <contour>
      <point x="111" y="0" type="line"/>
      <point x="183" y="126" type="line"/>
      <point x="381" y="126" type="line"/>
      <point x="380" y="0" type="line"/>
      <point x="520" y="0" type="line"/>
      <point x="514" y="655" type="line"/>
      <point x="336" y="655" type="line"/>
      <point x="-40" y="0" type="line"/>
    </contour>
    <contour>
      <point x="244" y="239" type="line"/>
      <point x="393" y="515" type="line"/>
      <point x="389" y="239" type="line"/>
    </contour>
  </outline>
</glyph>
<glyph name="B" format="2">
  <advance width="614"/>
  <unicode hex="0042"/>
  <anchor x="247" y="-35" name="below"/>
  <outline>
    <contour>
      <point x="195" y="655" type="line"/>
      <point x="7" y="0" type="line"/>
      <point x="263" y="0" type="line" smooth="yes"/>
      <point x="496" y="0"/>
      <point x="561" y="89"/>
      <point x="561" y="198" type="curve" smooth="yes"/>
      <point x="561" y="262"/>
      <point x="519" y="311"/>
      <point x="442" y="329" type="curve"/>
      <point x="442" y="333" type="line"/>
      <point x="578" y="359"/>
      <point x="640" y="429"/>
      <point x="640" y="523" type="curve" smooth="yes"/>
      <point x="640" y="600"/>
      <point x="583" y="655"/>
      <point x="466" y="655" type="curve" smooth="yes"/>
    </contour>
    <contour>
      <point x="410" y="545" type="line" smooth="yes"/>
      <point x="460" y="545"/>
      <point x="484" y="527"/>
      <point x="484" y="490" type="curve" smooth="yes"/>
      <point x="484" y="433"/>
      <point x="445" y="395"/>
      <point x="344" y="389" type="curve" smooth="yes"/>
      <point x="260" y="384" type="line"/>
      <point x="306" y="545" type="line"/>
    </contour>
    <contour>
      <point x="307" y="279" type="line" smooth="yes"/>
      <point x="390" y="273"/>
      <point x="417" y="250"/>
      <point x="417" y="204" type="curve" smooth="yes"/>
      <point x="417" y="149"/>
      <point x="382" y="109"/>
      <point x="285" y="109" type="curve" smooth="yes"/>
      <point x="181" y="109" type="line"/>
      <point x="232" y="284" type="line"/>
    </contour>
  </outline>
</glyph>
<glyph name="D" format="2">
  <advance width="614"/>
  <unicode hex="0044"/>
  <anchor x="411" y="691" name="aboveUC"/>
  <anchor x="205" y="-35" name="below"/>
  <outline>
    <contour>
      <point x="195" y="655" type="line"/>
      <point x="7" y="0" type="line"/>
      <point x="77" y="0" type="line" smooth="yes"/>
      <point x="273" y="0"/>
      <point x="413" y="51"/>
      <point x="503" y="141" type="curve" smooth="yes"/>
      <point x="578" y="216"/>
      <point x="615" y="315"/>
      <point x="615" y="429" type="curve" smooth="yes"/>
      <point x="615" y="494"/>
      <point x="596" y="546"/>
      <point x="559" y="583" type="curve" smooth="yes"/>
      <point x="511" y="631"/>
      <point x="428" y="655"/>
      <point x="289" y="655" type="curve" smooth="yes"/>
    </contour>
    <contour>
      <point x="467" y="422" type="curve" smooth="yes"/>
      <point x="467" y="274"/>
      <point x="367" y="149"/>
      <point x="187" y="124" type="curve"/>
      <point x="305" y="537" type="line"/>
      <point x="306" y="537" type="line" smooth="yes"/>
      <point x="426.0" y="537.0"/>
      <point x="467" y="507"/>
    </contour>
  </outline>
</glyph>
<glyph name="E" format="2">
  <advance width="614"/>
  <unicode hex="0045"/>
  <anchor x="443" y="691" name="aboveUC"/>
  <anchor x="396" y="-10" name="belowogonek"/>
  <anchor x="246" y="-35" name="below"/>
  <outline>
    <contour>
      <point x="207" y="655" type="line"/>
      <point x="19" y="0" type="line"/>
      <point x="474" y="0" type="line"/>
      <point x="508" y="120" type="line"/>
      <point x="198" y="120" type="line"/>
      <point x="241" y="270" type="line"/>
      <point x="518" y="270" type="line"/>
      <point x="553" y="390" type="line"/>
      <point x="276" y="390" type="line"/>
      <point x="318" y="535" type="line"/>
      <point x="626" y="535" type="line"/>
      <point x="661" y="655" type="line"/>
    </contour>
  </outline>
</glyph>
<glyph name="G" format="2">
  <advance width="614"/>
  <unicode hex="0047"/>
  <anchor x="460" y="691" name="aboveUC"/>
  <anchor x="450" y="656" name="aboveUCx"/>
  <anchor x="294" y="-40" name="below"/>
  <outline>
    <contour>
      <point x="615" y="532" type="curve"/>
      <point x="641" y="651" type="line"/>
      <point x="587" y="661"/>
      <point x="542" y="665"/>
      <point x="495" y="665" type="curve" smooth="yes"/>
      <point x="219" y="665"/>
      <point x="55" y="474"/>
      <point x="55" y="223" type="curve" smooth="yes"/>
      <point x="55" y="69"/>
      <point x="136" y="-15"/>
      <point x="305" y="-15" type="curve" smooth="yes"/>
      <point x="364" y="-15"/>
      <point x="425" y="-7"/>
      <point x="497" y="11" type="curve"/>
      <point x="602" y="374" type="line"/>
      <point x="352" y="374" type="line"/>
      <point x="320" y="263" type="line"/>
      <point x="434" y="263" type="line"/>
      <point x="390" y="110" type="line"/>
      <point x="367" y="106"/>
      <point x="347" y="105"/>
      <point x="333" y="105" type="curve" smooth="yes"/>
      <point x="241" y="105"/>
      <point x="203" y="142"/>
      <point x="203" y="223" type="curve" smooth="yes"/>
      <point x="203" y="419"/>
      <point x="311" y="543"/>
      <point x="503" y="543" type="curve" smooth="yes"/>
      <point x="540" y="543"/>
      <point x="579" y="540"/>
    </contour>
  </outline>
</glyph>
<glyph name="H" format="2">
  <advance width="614"/>
  <unicode hex="0048"/>
  <anchor x="436" y="691" name="aboveUC"/>
  <anchor x="229" y="-35" name="below"/>
  <anchor x="74" y="-10" name="belowcedilla"/>
  <anchor x="239" y="0" name="belowx"/>
  <anchor x="426" y="656" name="aboveUCx"/>
  <outline>
    <contour>
      <point x="195" y="655" type="line"/>
      <point x="7" y="0" type="line"/>
      <point x="151" y="0" type="line"/>
      <point x="228" y="270" type="line"/>
      <point x="404" y="270" type="line"/>
      <point x="327" y="0" type="line"/>
      <point x="471" y="0" type="line"/>
      <point x="659" y="655" type="line"/>
      <point x="515" y="655" type="line"/>
      <point x="439" y="390" type="line"/>
      <point x="263" y="390" type="line"/>
      <point x="339" y="655" type="line"/>
    </contour>
  </outline>
</glyph>
<glyph name="I" format="2">
  <advance width="614"/>
  <unicode hex="0049"/>
  <anchor x="228" y="-35" name="below"/>
  <anchor x="235" y="-10" name="belowogonek"/>
  <anchor x="437" y="691" name="aboveUC"/>
  <anchor x="428" y="661" name="aboveUCx"/>
  <outline>
    <contour>
      <point x="71" y="80" type="line"/>
      <point x="48" y="0" type="line"/>
      <point x="436" y="0" type="line"/>
      <point x="459" y="80" type="line"/>
      <point x="336" y="103" type="line"/>
      <point x="473" y="547" type="line"/>
      <point x="595" y="575" type="line"/>
      <point x="618" y="655" type="line"/>
      <point x="230" y="655" type="line"/>
      <point x="207" y="575" type="line"/>
      <point x="330" y="552" type="line"/>
      <point x="193" y="108" type="line"/>
    </contour>
  </outline>
</glyph>
<glyph name="L" format="2">
  <advance width="614"/>
  <unicode hex="004C"/>
  <anchor x="293" y="691" name="aboveUC"/>
  <anchor x="242" y="-35" name="below"/>
  <anchor x="477" y="655" name="topright"/>
  <outline>
    <contour>
      <point x="207" y="655" type="line"/>
      <point x="19" y="0" type="line"/>
      <point x="485" y="0" type="line"/>
      <point x="519" y="119" type="line"/>
      <point x="198" y="119" type="line"/>
      <point x="352" y="655" type="line"/>
    </contour>
  </outline>
</glyph>
<glyph name="M" format="2">
  <advance width="614"/>
  <unicode hex="004D"/>
  <anchor x="436" y="691" name="aboveUC"/>
  <anchor x="427" y="661" name="aboveUCx"/>
  <anchor x="240" y="-35" name="below"/>
  <anchor x="250" y="0" name="belowx"/>
  <outline>
    <contour>
      <point x="654" y="655" type="line"/>
      <point x="513" y="655" type="line"/>
      <point x="347" y="391" type="line"/>
      <point x="341" y="655" type="line"/>
      <point x="204" y="655" type="line"/>
      <point x="-16" y="0" type="line"/>
      <point x="115" y="0" type="line"/>
      <point x="263" y="461" type="line"/>
      <point x="275" y="165" type="line"/>
      <point x="295" y="165" type="line"/>
      <point x="481" y="462" type="line"/>
      <point x="361" y="0" type="line"/>
      <point x="494" y="0" type="line"/>
    </contour>
  </outline>
</glyph>
<glyph name="R" format="2">
  <advance width="614"/>
  <unicode hex="0052"/>
  <anchor x="433" y="691" name="aboveUC"/>
  <anchor x="255" y="-35" name="below"/>
  <anchor x="265" y="0" name="belowx"/>
  <outline>
    <contour>
      <point x="534" y="4" type="line"/>
      <point x="476" y="122" type="line" smooth="yes"/>
      <point x="433" y="210"/>
      <point x="409" y="234"/>
      <point x="372" y="261" type="curve"/>
      <point x="372" y="268" type="line"/>
      <point x="550" y="282"/>
      <point x="631" y="371"/>
      <point x="631" y="503" type="curve" smooth="yes"/>
      <point x="631" y="598"/>
      <point x="567" y="655"/>
      <point x="432" y="655" type="curve" smooth="yes"/>
      <point x="198" y="655" type="line"/>
      <point x="10" y="0" type="line"/>
      <point x="154" y="0" type="line"/>
      <point x="222" y="237" type="line"/>
      <point x="261" y="228"/>
      <point x="276" y="208"/>
      <point x="296" y="164" type="curve" smooth="yes"/>
      <point x="372" y="0" type="line"/>
      <point x="533" y="0" type="line"/>
    </contour>
    <contour>
      <point x="399" y="541" type="line" smooth="yes"/>
      <point x="452" y="541"/>
      <point x="477" y="523"/>
      <point x="477" y="480" type="curve" smooth="yes"/>
      <point x="477" y="414"/>
      <point x="437" y="358"/>
      <point x="304" y="347" type="curve" smooth="yes"/>
      <point x="252" y="343" type="line"/>
      <point x="309" y="541" type="line"/>
    </contour>
  </outline>
</glyph>
<glyph name="S" format="2">
  <advance width="614"/>
  <unicode hex="0053"/>
  <guideline x="435" y="431" angle="307.7676805128407" identifier="ylsDMwWxaG"/>
  <anchor x="452" y="696" name="aboveUC"/>
  <anchor x="442" y="661" name="aboveUCx"/>
  <anchor x="271" y="-40" name="below"/>
  <anchor x="283" y="-15" name="belowcedilla"/>
  <outline>
    <contour>
      <point x="311" y="111" type="curve" smooth="yes"/>
      <point x="232" y="111"/>
      <point x="142" y="137"/>
      <point x="51" y="169" type="curve"/>
      <point x="10" y="45" type="line"/>
      <point x="103" y="12"/>
      <point x="201" y="-13"/>
      <point x="312" y="-13" type="curve" smooth="yes"/>
      <point x="470" y="-13"/>
      <point x="551" y="68"/>
      <point x="551" y="186" type="curve" smooth="yes"/>
      <point x="551" y="273"/>
      <point x="519" y="311"/>
      <point x="403" y="373" type="curve" smooth="yes"/>
      <point x="351" y="401" type="line" smooth="yes"/>
      <point x="298" y="430"/>
      <point x="283" y="449"/>
      <point x="283" y="476" type="curve" smooth="yes"/>
      <point x="283" y="516"/>
      <point x="311" y="541"/>
      <point x="386" y="541" type="curve" smooth="yes"/>
      <point x="442" y="541"/>
      <point x="507" y="527"/>
      <point x="590" y="500" type="curve"/>
      <point x="627" y="622" type="line"/>
      <point x="545" y="647"/>
      <point x="477" y="664"/>
      <point x="390" y="664" type="curve" smooth="yes"/>
      <point x="225" y="664"/>
      <point x="139" y="578"/>
      <point x="139" y="468" type="curve" smooth="yes"/>
      <point x="139" y="385"/>
      <point x="174" y="337"/>
      <point x="268" y="287" type="curve" smooth="yes"/>
      <point x="320" y="259" type="line" smooth="yes"/>
      <point x="398" y="217"/>
      <point x="407" y="201"/>
      <point x="407" y="170" type="curve" smooth="yes"/>
      <point x="407" y="131"/>
      <point x="381" y="111"/>
    </contour>
  </outline>
</glyph>
<glyph name="X" format="2">
  <advance width="614"/>
  <unicode hex="0058"/>
  <anchor x="437" y="691" name="aboveUC"/>
  <anchor x="429" y="661" name="aboveUCx"/>
  <anchor x="230" y="-35" name="below"/>
  <anchor x="239" y="-5" name="belowx"/>
  <outline>
    <contour>
      <point x="-46" y="0" type="line"/>
      <point x="108" y="0" type="line"/>
      <point x="300" y="226" type="line"/>
      <point x="359" y="0" type="line"/>
      <point x="521" y="0" type="line"/>
      <point x="408" y="330" type="line"/>
      <point x="696" y="655" type="line"/>
      <point x="528" y="655" type="line"/>
      <point x="360" y="447" type="line"/>
      <point x="305" y="655" type="line"/>
      <point x="157" y="655" type="line"/>
      <point x="254" y="341" type="line"/>
    </contour>
  </outline>
</glyph>
<glyph name="Y" format="2">
  <advance width="614"/>
  <unicode hex="0059"/>
  <anchor x="419" y="691" name="aboveUC"/>
  <anchor x="409" y="656" name="aboveUCx"/>
  <anchor x="232" y="-35" name="below"/>
  <outline>
    <contour>
      <point x="719" y="655" type="line"/>
      <point x="550" y="655" type="line"/>
      <point x="348" y="414" type="line"/>
      <point x="285" y="655" type="line"/>
      <point x="135" y="655" type="line"/>
      <point x="246" y="275" type="line"/>
      <point x="167" y="0" type="line"/>
      <point x="311" y="0" type="line"/>
      <point x="391" y="277" type="line"/>
    </contour>
  </outline>
</glyph>
<glyph name="a" format="2">
  <advance width="614"/>
  <unicode hex="0061"/>
  <anchor x="214" y="-35" name="below"/>
  <anchor x="391" y="-10" name="belowogonek"/>
  <anchor x="372" y="507" name="aboveLC"/>
  <anchor x="362" y="472" name="aboveLCx"/>
  <outline>
    <contour>
      <point x="504" y="180" type="curve" smooth="yes"/>
      <point x="548" y="304" type="line" smooth="yes"/>
      <point x="558" y="333"/>
      <point x="563" y="358"/>
      <point x="563" y="380" type="curve" smooth="yes"/>
      <point x="563" y="456"/>
      <point x="498" y="490"/>
      <point x="365" y="490" type="curve" smooth="yes"/>
      <point x="328" y="490"/>
      <point x="262" y="487"/>
      <point x="164" y="475" type="curve"/>
      <point x="133" y="361" type="line"/>
      <point x="226" y="373"/>
      <point x="291" y="377"/>
      <point x="325" y="377" type="curve" smooth="yes"/>
      <point x="394" y="377"/>
      <point x="419" y="365"/>
      <point x="419" y="338" type="curve" smooth="yes"/>
      <point x="419" y="328"/>
      <point x="417" y="321"/>
      <point x="409" y="297" type="curve" smooth="yes"/>
      <point x="409" y="297"/>
      <point x="409" y="297"/>
      <point x="409" y="297" type="curve"/>
      <point x="279" y="289" type="line" smooth="yes"/>
      <point x="145" y="281"/>
      <point x="96" y="265"/>
      <point x="63" y="232" type="curve" smooth="yes"/>
      <point x="33" y="202"/>
      <point x="17" y="144"/>
      <point x="17" y="99" type="curve" smooth="yes"/>
      <point x="17" y="35"/>
      <point x="59" y="-9"/>
      <point x="136" y="-9" type="curve" smooth="yes"/>
      <point x="219" y="-9"/>
      <point x="281" y="9"/>
      <point x="345" y="49" type="curve"/>
      <point x="351" y="49" type="line"/>
      <point x="370" y="21"/>
      <point x="411" y="1"/>
      <point x="479" y="-5" type="curve" smooth="yes"/>
      <point x="523" y="-9" type="line"/>
      <point x="555" y="101" type="line"/>
      <point x="524" y="107" type="line" smooth="yes"/>
      <point x="502" y="111"/>
      <point x="492" y="117"/>
      <point x="492" y="133" type="curve" smooth="yes"/>
      <point x="492" y="142"/>
      <point x="495" y="154"/>
    </contour>
    <contour>
      <point x="200" y="94" type="curve" smooth="yes"/>
      <point x="178" y="94"/>
      <point x="163" y="107"/>
      <point x="163" y="127" type="curve" smooth="yes"/>
      <point x="163" y="148"/>
      <point x="168" y="164"/>
      <point x="183" y="179" type="curve" smooth="yes"/>
      <point x="196" y="192"/>
      <point x="219" y="200"/>
      <point x="296" y="206" type="curve" smooth="yes"/>
      <point x="381" y="214" type="line"/>
      <point x="359" y="148" type="line"/>
      <point x="311" y="111"/>
      <point x="241" y="94"/>
    </contour>
  </outline>
</glyph>
<glyph name="b" format="2">
  <advance width="614"/>
  <unicode hex="0062"/>
  <anchor x="241" y="-35" name="below"/>
  <outline>
    <contour>
      <point x="355" y="710" type="line"/>
      <point x="210" y="710" type="line"/>
      <point x="19" y="45" type="line"/>
      <point x="91" y="9"/>
      <point x="162" y="-8"/>
      <point x="243" y="-8" type="curve" smooth="yes"/>
      <point x="451" y="-8"/>
      <point x="586" y="127"/>
      <point x="586" y="300" type="curve" smooth="yes"/>
      <point x="586" y="429"/>
      <point x="502" y="490"/>
      <point x="421" y="490" type="curve" smooth="yes"/>
      <point x="374" y="490"/>
      <point x="328" y="476"/>
      <point x="278" y="442" type="curve"/>
    </contour>
    <contour>
      <point x="351" y="371" type="curve" smooth="yes"/>
      <point x="402" y="371"/>
      <point x="434" y="340"/>
      <point x="434" y="279" type="curve" smooth="yes"/>
      <point x="434" y="193"/>
      <point x="367" y="111"/>
      <point x="249" y="111" type="curve" smooth="yes"/>
      <point x="227" y="111"/>
      <point x="206" y="115"/>
      <point x="186" y="122" type="curve"/>
      <point x="245" y="326" type="line"/>
      <point x="289" y="358"/>
      <point x="322" y="371"/>
    </contour>
  </outline>
</glyph>
<glyph name="d" format="2">
  <advance width="614"/>
  <unicode hex="0064"/>
  <anchor x="257" y="-35" name="below"/>
  <anchor x="819" y="789" name="topright"/>
  <outline>
    <contour>
      <point x="367" y="0" type="line"/>
      <point x="473" y="0" type="line"/>
      <point x="677" y="710" type="line"/>
      <point x="532" y="710" type="line"/>
      <point x="466" y="482" type="line"/>
      <point x="437" y="487"/>
      <point x="406" y="490"/>
      <point x="374" y="490" type="curve" smooth="yes"/>
      <point x="166" y="490"/>
      <point x="31" y="355"/>
      <point x="31" y="182" type="curve" smooth="yes"/>
      <point x="31" y="53"/>
      <point x="115" y="-8"/>
      <point x="196" y="-8" type="curve" smooth="yes"/>
      <point x="249" y="-8"/>
      <point x="300" y="9"/>
      <point x="357" y="53" type="curve"/>
    </contour>
    <contour>
      <point x="183" y="203" type="curve" smooth="yes"/>
      <point x="183" y="289"/>
      <point x="250" y="371"/>
      <point x="368" y="371" type="curve" smooth="yes"/>
      <point x="390" y="371"/>
      <point x="411" y="367"/>
      <point x="431" y="360" type="curve"/>
      <point x="373" y="157" type="line"/>
      <point x="328" y="124"/>
      <point x="295" y="111"/>
      <point x="266" y="111" type="curve" smooth="yes"/>
      <point x="215" y="111"/>
      <point x="183" y="142"/>
    </contour>
  </outline>
</glyph>
<glyph name="e" format="2">
  <advance width="614"/>
  <unicode hex="0065"/>
  <anchor x="240" y="-40" name="below"/>
  <anchor x="339" y="-10" name="belowogonek"/>
  <anchor x="385" y="470" name="aboveLCx"/>
  <anchor x="395" y="507" name="aboveLC"/>
  <outline>
    <contour>
      <point x="431" y="103" type="line"/>
      <point x="243" y="103"/>
      <point x="200" y="113"/>
      <point x="193" y="169" type="curve" smooth="yes"/>
      <point x="193" y="169"/>
      <point x="193" y="169"/>
      <point x="193" y="169" type="curve"/>
      <point x="346" y="182" type="line" smooth="yes"/>
      <point x="515" y="196"/>
      <point x="582" y="253"/>
      <point x="582" y="348" type="curve" smooth="yes"/>
      <point x="582" y="436"/>
      <point x="515" y="492"/>
      <point x="390" y="492" type="curve" smooth="yes"/>
      <point x="190" y="492"/>
      <point x="47" y="324"/>
      <point x="47" y="175" type="curve" smooth="yes"/>
      <point x="47" y="43"/>
      <point x="105" y="-13"/>
      <point x="398" y="-13" type="curve"/>
    </contour>
    <contour>
      <point x="372" y="379" type="curve" smooth="yes"/>
      <point x="416" y="379"/>
      <point x="440" y="361"/>
      <point x="440" y="333" type="curve" smooth="yes"/>
      <point x="440" y="302"/>
      <point x="418" y="283"/>
      <point x="346" y="275" type="curve" smooth="yes"/>
      <point x="202" y="259" type="line"/>
      <point x="229" y="329"/>
      <point x="299" y="379"/>
    </contour>
  </outline>
</glyph>
<glyph name="f" format="2">
  <advance width="614"/>
  <unicode hex="0066"/>
  <outline>
    <contour>
      <point x="91" y="338" type="line"/>
      <point x="239" y="338" type="line"/>
      <point x="141" y="0" type="line"/>
      <point x="285" y="0" type="line"/>
      <point x="383" y="338" type="line"/>
      <point x="547" y="338" type="line"/>
      <point x="582" y="460" type="line"/>
      <point x="413" y="460" type="line"/>
      <point x="423" y="496" type="line" smooth="yes"/>
      <point x="443" y="565"/>
      <point x="465" y="584"/>
      <point x="547" y="590" type="curve" smooth="yes"/>
      <point x="664" y="598" type="line"/>
      <point x="664" y="720" type="line"/>
      <point x="569" y="712" type="line" smooth="yes"/>
      <point x="389" y="697"/>
      <point x="331" y="658"/>
      <point x="280" y="482" type="curve" smooth="yes"/>
      <point x="274" y="460" type="line"/>
      <point x="126" y="460" type="line"/>
    </contour>
  </outline>
</glyph>
<glyph name="g" format="2">
  <advance width="614"/>
  <unicode hex="0067"/>
  <anchor x="400" y="507" name="aboveLC"/>
  <anchor x="390" y="472" name="aboveLCx"/>
  <outline>
    <contour>
      <point x="345" y="50" type="line" smooth="yes"/>
      <point x="311" y="-69"/>
      <point x="273" y="-104"/>
      <point x="125" y="-111" type="curve" smooth="yes"/>
      <point x="-5" y="-117" type="line"/>
      <point x="-5" y="-239" type="line"/>
      <point x="119" y="-233" type="line" smooth="yes"/>
      <point x="362" y="-221"/>
      <point x="428" y="-164"/>
      <point x="483" y="30" type="curve" smooth="yes"/>
      <point x="599" y="437" type="line"/>
      <point x="527" y="473"/>
      <point x="456" y="490"/>
      <point x="375" y="490" type="curve" smooth="yes"/>
      <point x="169" y="490"/>
      <point x="35" y="361"/>
      <point x="35" y="196" type="curve" smooth="yes"/>
      <point x="35" y="74"/>
      <point x="121" y="16"/>
      <point x="203" y="16" type="curve" smooth="yes"/>
      <point x="252" y="16"/>
      <point x="298" y="30"/>
      <point x="350" y="67" type="curve"/>
    </contour>
    <contour>
      <point x="187" y="217" type="curve" smooth="yes"/>
      <point x="187" y="296"/>
      <point x="253" y="371"/>
      <point x="369" y="371" type="curve" smooth="yes"/>
      <point x="391" y="371"/>
      <point x="413" y="367"/>
      <point x="433" y="360" type="curve"/>
      <point x="383" y="183" type="line"/>
      <point x="336" y="148"/>
      <point x="303" y="135"/>
      <point x="273" y="135" type="curve" smooth="yes"/>
      <point x="220" y="135"/>
      <point x="187" y="163"/>
    </contour>
  </outline>
</glyph>
<glyph name="h" format="2">
  <advance width="614"/>
  <unicode hex="0068"/>
  <anchor x="240" y="-35" name="below"/>
  <anchor x="250" y="0" name="belowx"/>
  <anchor x="77" y="-10" name="belowcedilla"/>
  <anchor x="292" y="740" name="aboveLC"/>
  <anchor x="275" y="679" name="aboveLCx"/>
  <outline>
    <contour>
      <point x="359" y="710" type="line"/>
      <point x="214" y="710" type="line"/>
      <point x="10" y="0" type="line"/>
      <point x="155" y="0" type="line"/>
      <point x="226" y="248" type="line"/>
      <point x="341" y="340"/>
      <point x="367" y="351"/>
      <point x="392" y="351" type="curve" smooth="yes"/>
      <point x="409" y="351"/>
      <point x="418" y="342"/>
      <point x="418" y="324" type="curve" smooth="yes"/>
      <point x="418" y="317"/>
      <point x="417" y="309"/>
      <point x="414" y="300" type="curve" smooth="yes"/>
      <point x="328" y="0" type="line"/>
      <point x="473" y="0" type="line"/>
      <point x="567" y="327" type="line" smooth="yes"/>
      <point x="574" y="351"/>
      <point x="577" y="372"/>
      <point x="577" y="391" type="curve" smooth="yes"/>
      <point x="577" y="453"/>
      <point x="542" y="488"/>
      <point x="471" y="488" type="curve" smooth="yes"/>
      <point x="415" y="488"/>
      <point x="370" y="470"/>
      <point x="268" y="394" type="curve"/>
    </contour>
  </outline>
</glyph>
<glyph name="j" format="2">
  <advance width="614"/>
  <unicode hex="006A"/>
  <outline>
    <contour>
      <point x="482" y="578" type="curve" smooth="yes"/>
      <point x="568" y="578"/>
      <point x="607" y="622"/>
      <point x="607" y="680" type="curve" smooth="yes"/>
      <point x="607" y="727"/>
      <point x="573" y="751"/>
      <point x="512" y="751" type="curve" smooth="yes"/>
      <point x="423" y="751"/>
      <point x="387" y="703"/>
      <point x="387" y="649" type="curve" smooth="yes"/>
      <point x="387" y="602"/>
      <point x="422" y="578"/>
    </contour>
    <contour>
      <point x="416" y="37" type="curve" smooth="yes"/>
      <point x="542" y="477" type="line"/>
      <point x="180" y="477" type="line"/>
      <point x="145" y="355" type="line"/>
      <point x="362" y="355" type="line"/>
      <point x="276" y="54" type="line" smooth="yes"/>
      <point x="242" y="-65"/>
      <point x="201" y="-101"/>
      <point x="73" y="-107" type="curve" smooth="yes"/>
      <point x="-29" y="-112" type="line"/>
      <point x="-29" y="-236" type="line"/>
      <point x="67" y="-232" type="line" smooth="yes"/>
      <point x="280" y="-223"/>
      <point x="357" y="-171"/>
    </contour>
  </outline>
</glyph>
<glyph name="m" format="2">
  <advance width="614"/>
  <unicode hex="006D"/>
  <anchor x="382" y="502" name="aboveLC"/>
  <anchor x="232" y="-35" name="below"/>
  <outline>
    <contour>
      <point x="209" y="477" type="line"/>
      <point x="110" y="477" type="line"/>
      <point x="-27" y="0" type="line"/>
      <point x="96" y="0" type="line"/>
      <point x="184" y="307" type="line"/>
      <point x="213" y="326"/>
      <point x="231" y="331"/>
      <point x="246" y="331" type="curve" smooth="yes"/>
      <point x="261" y="331"/>
      <point x="270" y="325"/>
      <point x="270" y="308" type="curve" smooth="yes"/>
      <point x="270" y="301"/>
      <point x="269" y="292"/>
      <point x="266" y="282" type="curve" smooth="yes"/>
      <point x="185" y="0" type="line"/>
      <point x="299" y="0" type="line"/>
      <point x="387" y="308" type="line"/>
      <point x="415" y="325"/>
      <point x="433" y="331"/>
      <point x="446" y="331" type="curve" smooth="yes"/>
      <point x="462" y="331"/>
      <point x="471" y="324"/>
      <point x="471" y="307" type="curve" smooth="yes"/>
      <point x="471" y="300"/>
      <point x="470" y="292"/>
      <point x="467" y="282" type="curve" smooth="yes"/>
      <point x="386" y="0" type="line"/>
      <point x="509" y="0" type="line"/>
      <point x="618" y="379" type="line" smooth="yes"/>
      <point x="625" y="405"/>
      <point x="629" y="426"/>
      <point x="629" y="443" type="curve" smooth="yes"/>
      <point x="629" y="477"/>
      <point x="611" y="492"/>
      <point x="573" y="492" type="curve" smooth="yes"/>
      <point x="540" y="492"/>
      <point x="514" y="478"/>
      <point x="433" y="391" type="curve"/>
      <point x="408" y="391" type="line"/>
      <point x="408" y="391" type="line"/>
      <point x="414" y="413"/>
      <point x="418" y="431"/>
      <point x="418" y="445" type="curve" smooth="yes"/>
      <point x="418" y="479"/>
      <point x="400" y="492"/>
      <point x="366" y="492" type="curve" smooth="yes"/>
      <point x="333" y="492"/>
      <point x="305" y="478"/>
      <point x="217" y="391" type="curve"/>
      <point x="196" y="391" type="line"/>
    </contour>
  </outline>
</glyph>
<glyph name="n" format="2">
  <advance width="614"/>
  <unicode hex="006E"/>
  <anchor x="384" y="502" name="aboveLC"/>
  <anchor x="233" y="-35" name="below"/>
  <anchor x="243" y="0" name="belowx"/>
  <outline>
    <contour>
      <point x="273" y="477" type="line"/>
      <point x="147" y="477" type="line"/>
      <point x="10" y="0" type="line"/>
      <point x="155" y="0" type="line"/>
      <point x="226" y="248" type="line"/>
      <point x="341" y="340"/>
      <point x="367" y="351"/>
      <point x="392" y="351" type="curve" smooth="yes"/>
      <point x="409" y="351"/>
      <point x="418" y="342"/>
      <point x="418" y="324" type="curve" smooth="yes"/>
      <point x="418" y="318"/>
      <point x="417" y="309"/>
      <point x="414" y="300" type="curve" smooth="yes"/>
      <point x="328" y="0" type="line"/>
      <point x="473" y="0" type="line"/>
      <point x="567" y="327" type="line" smooth="yes"/>
      <point x="574" y="351"/>
      <point x="577" y="372"/>
      <point x="577" y="391" type="curve" smooth="yes"/>
      <point x="577" y="453"/>
      <point x="541" y="488"/>
      <point x="471" y="488" type="curve" smooth="yes"/>
      <point x="412" y="488"/>
      <point x="367" y="469"/>
      <point x="255" y="384" type="curve"/>
    </contour>
  </outline>
</glyph>
<glyph name="o" format="2">
  <advance width="614"/>
  <unicode hex="006F"/>
  <anchor x="370" y="507" name="aboveLC"/>
  <anchor x="360" y="472" name="aboveLCx"/>
  <anchor x="242" y="-40" name="below"/>
  <anchor x="245" y="-15" name="belowogonek"/>
  <outline>
    <contour>
      <point x="356" y="492" type="curve" smooth="yes"/>
      <point x="182" y="492"/>
      <point x="39" y="366"/>
      <point x="39" y="191" type="curve" smooth="yes"/>
      <point x="39" y="65"/>
      <point x="131" y="-15"/>
      <point x="258" y="-15" type="curve" smooth="yes"/>
      <point x="432" y="-15"/>
      <point x="575" y="111"/>
      <point x="575" y="286" type="curve" smooth="yes"/>
      <point x="575" y="412"/>
      <point x="483" y="492"/>
    </contour>
    <contour>
      <point x="284" y="104" type="curve" smooth="yes"/>
      <point x="226" y="104"/>
      <point x="189" y="142"/>
      <point x="189" y="200" type="curve" smooth="yes"/>
      <point x="189" y="287"/>
      <point x="248" y="373"/>
      <point x="330" y="373" type="curve" smooth="yes"/>
      <point x="388" y="373"/>
      <point x="425" y="335"/>
      <point x="425" y="277" type="curve" smooth="yes"/>
      <point x="425" y="190"/>
      <point x="366" y="104"/>
    </contour>
  </outline>
</glyph>
<glyph name="q" format="2">
  <advance width="614"/>
  <unicode hex="0071"/>
  <outline>
    <contour>
      <point x="263" y="-230" type="line"/>
      <point x="408" y="-230" type="line"/>
      <point x="599" y="437" type="line"/>
      <point x="527" y="473"/>
      <point x="456" y="490"/>
      <point x="375" y="490" type="curve" smooth="yes"/>
      <point x="167" y="490"/>
      <point x="32" y="355"/>
      <point x="32" y="182" type="curve" smooth="yes"/>
      <point x="32" y="53"/>
      <point x="116" y="-8"/>
      <point x="197" y="-8" type="curve" smooth="yes"/>
      <point x="245" y="-8"/>
      <point x="290" y="6"/>
      <point x="341" y="41" type="curve"/>
    </contour>
    <contour>
      <point x="184" y="203" type="curve" smooth="yes"/>
      <point x="184" y="289"/>
      <point x="251" y="371"/>
      <point x="369" y="371" type="curve" smooth="yes"/>
      <point x="391" y="371"/>
      <point x="413" y="367"/>
      <point x="432" y="360" type="curve"/>
      <point x="374" y="157" type="line"/>
      <point x="329" y="124"/>
      <point x="296" y="111"/>
      <point x="267" y="111" type="curve" smooth="yes"/>
      <point x="216" y="111"/>
      <point x="184" y="142"/>
    </contour>
  </outline>
</glyph>
<glyph name="r" format="2">
  <advance width="614"/>
  <unicode hex="0072"/>
  <anchor x="387" y="502" name="aboveLC"/>
  <anchor x="170" y="-35" name="below"/>
  <outline>
    <contour>
      <point x="22" y="122" type="line"/>
      <point x="-13" y="0" type="line"/>
      <point x="359" y="0" type="line"/>
      <point x="394" y="122" type="line"/>
      <point x="268" y="122" type="line"/>
      <point x="300" y="236" type="line"/>
      <point x="410" y="319"/>
      <point x="433" y="333"/>
      <point x="520" y="333" type="curve" smooth="yes"/>
      <point x="600" y="333" type="line"/>
      <point x="614" y="482" type="line"/>
      <point x="551" y="482" type="line" smooth="yes"/>
      <point x="479" y="482"/>
      <point x="443" y="466"/>
      <point x="323" y="346" type="curve"/>
      <point x="353" y="477" type="line"/>
      <point x="144" y="477" type="line"/>
      <point x="109" y="355" type="line"/>
      <point x="191" y="355" type="line"/>
      <point x="124" y="122" type="line"/>
    </contour>
  </outline>
</glyph>
<glyph name="s" format="2">
  <advance width="614"/>
  <unicode hex="0073"/>
  <guideline x="243" y="191" angle="327.5998318442407" identifier="MYhE05PKT0"/>
  <anchor x="388" y="507" name="aboveLC"/>
  <anchor x="222" y="-40" name="below"/>
  <anchor x="223" y="-15" name="belowcedilla"/>
  <anchor x="378" y="472" name="aboveLCx"/>
  <outline>
    <contour>
      <point x="521" y="148" type="curve" smooth="yes"/>
      <point x="521" y="220"/>
      <point x="492" y="250"/>
      <point x="368" y="289" type="curve" smooth="yes"/>
      <point x="305" y="309" type="line" smooth="yes"/>
      <point x="264" y="322"/>
      <point x="252" y="324"/>
      <point x="252" y="346" type="curve" smooth="yes"/>
      <point x="252" y="367"/>
      <point x="274" y="378"/>
      <point x="360" y="378" type="curve" smooth="yes"/>
      <point x="397" y="378"/>
      <point x="459" y="372"/>
      <point x="539" y="359" type="curve"/>
      <point x="572" y="475" type="line"/>
      <point x="492" y="487"/>
      <point x="414" y="491"/>
      <point x="365" y="491" type="curve" smooth="yes"/>
      <point x="179" y="491"/>
      <point x="104" y="430"/>
      <point x="104" y="338" type="curve" smooth="yes"/>
      <point x="104" y="267"/>
      <point x="132" y="235"/>
      <point x="250" y="199" type="curve" smooth="yes"/>
      <point x="316" y="179" type="line" smooth="yes"/>
      <point x="362" y="165"/>
      <point x="374" y="159"/>
      <point x="374" y="137" type="curve" smooth="yes"/>
      <point x="374" y="115"/>
      <point x="349" y="99"/>
      <point x="258" y="99" type="curve" smooth="yes"/>
      <point x="216" y="99"/>
      <point x="133" y="107"/>
      <point x="34" y="123" type="curve"/>
      <point x="8" y="6" type="line"/>
      <point x="91" y="-6"/>
      <point x="156" y="-14"/>
      <point x="253" y="-14" type="curve" smooth="yes"/>
      <point x="430" y="-14"/>
      <point x="521" y="59"/>
    </contour>
  </outline>
</glyph>
<glyph name="v" format="2">
  <advance width="614"/>
  <unicode hex="0076"/>
  <anchor x="227" y="-35" name="below"/>
  <outline>
    <contour>
      <point x="103" y="477" type="line"/>
      <point x="149" y="0" type="line"/>
      <point x="330" y="0" type="line"/>
      <point x="649" y="477" type="line"/>
      <point x="484" y="477" type="line"/>
      <point x="266" y="128" type="line"/>
      <point x="248" y="477" type="line"/>
    </contour>
  </outline>
</glyph>
<glyph name="w" format="2">
  <advance width="614"/>
  <unicode hex="0077"/>
  <anchor x="380" y="502" name="aboveLC"/>
  <anchor x="370" y="467" name="aboveLCx"/>
  <outline>
    <contour>
      <point x="434" y="0" type="line"/>
      <point x="655" y="477" type="line"/>
      <point x="511" y="477" type="line"/>
      <point x="382" y="179" type="line"/>
      <point x="363" y="424" type="line"/>
      <point x="349" y="424" type="line"/>
      <point x="187" y="176" type="line"/>
      <point x="232" y="477" type="line"/>
      <point x="98" y="477" type="line"/>
      <point x="43" y="0" type="line"/>
      <point x="170" y="0" type="line"/>
      <point x="292" y="196" type="line"/>
      <point x="302" y="0" type="line"/>
    </contour>
  </outline>
</glyph>
<glyph name="y" format="2">
  <advance width="614"/>
  <unicode hex="0079"/>
  <anchor x="372" y="502" name="aboveLC"/>
  <anchor x="431" y="-35" name="below"/>
  <anchor x="363" y="472" name="aboveLCx"/>
  <outline>
    <contour>
      <point x="230" y="-140" type="curve" smooth="yes"/>
      <point x="650" y="477" type="line"/>
      <point x="485" y="477" type="line"/>
      <point x="275" y="151" type="line"/>
      <point x="250" y="477" type="line"/>
      <point x="103" y="477" type="line"/>
      <point x="159" y="-8" type="line"/>
      <point x="123" y="-61" type="line" smooth="yes"/>
      <point x="98" y="-98"/>
      <point x="81" y="-105"/>
      <point x="28" y="-108" type="curve" smooth="yes"/>
      <point x="-96" y="-116" type="line"/>
      <point x="-96" y="-236" type="line"/>
      <point x="43" y="-229" type="line" smooth="yes"/>
      <point x="159" y="-223"/>
      <point x="190" y="-199"/>
    </contour>
  </outline>
</glyph>
<glyph name="braceleft" format="2">
  <advance width="614"/>
  <unicode hex="007B"/>
  <outline>
    <contour>
      <point x="113" y="-17" type="curve" smooth="yes"/>
      <point x="113" y="-65"/>
      <point x="141" y="-98"/>
      <point x="260" y="-116" type="curve" smooth="yes"/>
      <point x="476" y="-148" type="line"/>
      <point x="510" y="-27" type="line"/>
      <point x="302" y="4" type="line" smooth="yes"/>
      <point x="287" y="6"/>
      <point x="282" y="14"/>
      <point x="282" y="23" type="curve" smooth="yes"/>
      <point x="282" y="33"/>
      <point x="286" y="41"/>
      <point x="312" y="61" type="curve" smooth="yes"/>
      <point x="367" y="105" type="line" smooth="yes"/>
      <point x="429" y="155"/>
      <point x="440" y="173"/>
      <point x="440" y="199" type="curve" smooth="yes"/>
      <point x="440" y="234"/>
      <point x="423" y="265"/>
      <point x="205" y="314" type="curve"/>
      <point x="212" y="338" type="line"/>
      <point x="510" y="394"/>
      <point x="532" y="427"/>
      <point x="532" y="471" type="curve" smooth="yes"/>
      <point x="532" y="490"/>
      <point x="522" y="510"/>
      <point x="496" y="549" type="curve" smooth="yes"/>
      <point x="462" y="601" type="line" smooth="yes"/>
      <point x="449" y="620"/>
      <point x="448" y="625"/>
      <point x="448" y="633" type="curve" smooth="yes"/>
      <point x="448" y="646"/>
      <point x="457" y="653"/>
      <point x="490" y="658" type="curve" smooth="yes"/>
      <point x="716" y="689" type="line"/>
      <point x="751" y="810" type="line"/>
      <point x="440" y="768" type="line" smooth="yes"/>
      <point x="324" y="752"/>
      <point x="292" y="704"/>
      <point x="292" y="645" type="curve" smooth="yes"/>
      <point x="292" y="622"/>
      <point x="300" y="601"/>
      <point x="319" y="572" type="curve" smooth="yes"/>
      <point x="353" y="520" type="line" smooth="yes"/>
      <point x="364" y="503"/>
      <point x="370" y="492"/>
      <point x="370" y="484" type="curve" smooth="yes"/>
      <point x="370" y="464"/>
      <point x="353" y="455"/>
      <point x="106" y="391" type="curve"/>
      <point x="72" y="271" type="line"/>
      <point x="263" y="222"/>
      <point x="279" y="207"/>
      <point x="279" y="190" type="curve" smooth="yes"/>
      <point x="279" y="180"/>
      <point x="271" y="172"/>
      <point x="243" y="148" type="curve" smooth="yes"/>
      <point x="186" y="99" type="line" smooth="yes"/>
      <point x="126" y="47"/>
      <point x="113" y="21"/>
    </contour>
  </outline>
</glyph>
<glyph name="braceright" format="2">
  <advance width="614"/>
  <unicode hex="007D"/>
  <outline>
    <contour>
      <point x="390" y="17" type="curve" smooth="yes"/>
      <point x="390" y="40"/>
      <point x="382" y="61"/>
      <point x="363" y="90" type="curve" smooth="yes"/>
      <point x="329" y="142" type="line" smooth="yes"/>
      <point x="318" y="159"/>
      <point x="312" y="170"/>
      <point x="312" y="178" type="curve" smooth="yes"/>
      <point x="312" y="198"/>
      <point x="329" y="207"/>
      <point x="576" y="271" type="curve"/>
      <point x="610" y="391" type="line"/>
      <point x="419" y="440"/>
      <point x="403" y="455"/>
      <point x="403" y="472" type="curve" smooth="yes"/>
      <point x="403" y="482"/>
      <point x="411" y="490"/>
      <point x="439" y="514" type="curve" smooth="yes"/>
      <point x="496" y="563" type="line" smooth="yes"/>
      <point x="556" y="615"/>
      <point x="569" y="641"/>
      <point x="569" y="679" type="curve" smooth="yes"/>
      <point x="569" y="727"/>
      <point x="541" y="760"/>
      <point x="422" y="778" type="curve" smooth="yes"/>
      <point x="206" y="810" type="line"/>
      <point x="172" y="689" type="line"/>
      <point x="380" y="658" type="line" smooth="yes"/>
      <point x="395" y="656"/>
      <point x="400" y="648"/>
      <point x="400" y="639" type="curve" smooth="yes"/>
      <point x="400" y="629"/>
      <point x="396" y="621"/>
      <point x="370" y="601" type="curve" smooth="yes"/>
      <point x="315" y="557" type="line" smooth="yes"/>
      <point x="253" y="507"/>
      <point x="242" y="489"/>
      <point x="242" y="463" type="curve" smooth="yes"/>
      <point x="242" y="428"/>
      <point x="259" y="397"/>
      <point x="477" y="348" type="curve"/>
      <point x="470" y="324" type="line"/>
      <point x="172" y="268"/>
      <point x="150" y="235"/>
      <point x="150" y="191" type="curve" smooth="yes"/>
      <point x="150" y="172"/>
      <point x="160" y="152"/>
      <point x="186" y="113" type="curve" smooth="yes"/>
      <point x="220" y="61" type="line" smooth="yes"/>
      <point x="233" y="42"/>
      <point x="234" y="37"/>
      <point x="234" y="29" type="curve" smooth="yes"/>
      <point x="234" y="16"/>
      <point x="225" y="9"/>
      <point x="192" y="4" type="curve" smooth="yes"/>
      <point x="-34" y="-27" type="line"/>
      <point x="-69" y="-148" type="line"/>
      <point x="242" y="-106" type="line" smooth="yes"/>
      <point x="358" y="-90"/>
      <point x="390" y="-42"/>
    </contour>
  </outline>
</glyph>
<glyph name="asciitilde" format="2">
  <advance width="614"/>
  <unicode hex="007E"/>
  <outline>
    <contour>
      <point x="350" y="390" type="curve" smooth="yes"/>
      <point x="291" y="446"/>
      <point x="274" y="460"/>
      <point x="234" y="460" type="curve" smooth="yes"/>
      <point x="174" y="460"/>
      <point x="130" y="429"/>
      <point x="33" y="255" type="curve"/>
      <point x="133" y="196" type="line"/>
      <point x="200" y="307"/>
      <point x="212" y="326"/>
      <point x="227" y="326" type="curve" smooth="yes"/>
      <point x="240" y="326"/>
      <point x="248" y="320"/>
      <point x="299" y="272" type="curve" smooth="yes"/>
      <point x="358" y="216"/>
      <point x="375" y="202"/>
      <point x="415" y="202" type="curve" smooth="yes"/>
      <point x="475" y="202"/>
      <point x="519" y="233"/>
      <point x="616" y="407" type="curve"/>
      <point x="516" y="466" type="line"/>
      <point x="449" y="355"/>
      <point x="437" y="336"/>
      <point x="422" y="336" type="curve" smooth="yes"/>
      <point x="409" y="336"/>
      <point x="401" y="342"/>
    </contour>
  </outline>
</glyph>
<glyph name="exclamdown" format="2">
  <advance width="614"/>
  <unicode hex="00A1"/>
  <outline>
    <contour>
      <point x="411" y="549" type="curve" smooth="yes"/>
      <point x="524" y="549"/>
      <point x="557" y="605"/>
      <point x="557" y="664" type="curve" smooth="yes"/>
      <point x="557" y="705"/>
      <point x="527" y="725"/>
      <point x="449" y="725" type="curve" smooth="yes"/>
      <point x="336" y="725"/>
      <point x="303" y="669"/>
      <point x="303" y="610" type="curve" smooth="yes"/>
      <point x="303" y="569"/>
      <point x="333" y="549"/>
    </contour>
    <contour>
      <point x="414" y="433" type="line"/>
      <point x="316" y="433" type="line"/>
      <point x="107" y="0" type="line"/>
      <point x="372" y="0" type="line"/>
    </contour>
  </outline>
</glyph>
<glyph name="cent" format="2">
  <advance width="614"/>
  <unicode hex="00A2"/>
  <outline>
    <contour>
      <point x="157" y="-142" type="line"/>
      <point x="248" y="-142" type="line"/>
      <point x="299" y="0" type="line"/>
      <point x="379" y="3"/>
      <point x="451" y="21"/>
      <point x="523" y="60" type="curve"/>
      <point x="481" y="172" type="line"/>
      <point x="389" y="132"/>
      <point x="345" y="122"/>
      <point x="298" y="122" type="curve" smooth="yes"/>
      <point x="242" y="122"/>
      <point x="203" y="150"/>
      <point x="203" y="200" type="curve" smooth="yes"/>
      <point x="203" y="241"/>
      <point x="221" y="285"/>
      <point x="255" y="319" type="curve" smooth="yes"/>
      <point x="284" y="348"/>
      <point x="326" y="368"/>
      <point x="377" y="368" type="curve" smooth="yes"/>
      <point x="422" y="368"/>
      <point x="460" y="359"/>
      <point x="544" y="319" type="curve"/>
      <point x="600" y="432" type="line"/>
      <point x="551" y="457"/>
      <point x="510" y="472"/>
      <point x="471" y="480" type="curve"/>
      <point x="525" y="632" type="line"/>
      <point x="434" y="632" type="line"/>
      <point x="384" y="490" type="line"/>
      <point x="365" y="490" type="line" smooth="yes"/>
      <point x="267" y="490"/>
      <point x="190" y="454"/>
      <point x="133" y="397" type="curve" smooth="yes"/>
      <point x="75" y="339"/>
      <point x="43" y="261"/>
      <point x="43" y="185" type="curve" smooth="yes"/>
      <point x="43" y="88"/>
      <point x="102" y="24"/>
      <point x="210" y="5" type="curve"/>
    </contour>
  </outline>
</glyph>
<glyph name="sterling" format="2">
  <advance width="614"/>
  <unicode hex="00A3"/>
  <outline>
    <contour>
      <point x="7" y="0" type="line"/>
      <point x="495" y="0" type="line"/>
      <point x="529" y="120" type="line"/>
      <point x="207" y="120" type="line"/>
      <point x="297" y="188"/>
      <point x="337" y="228"/>
      <point x="354" y="261" type="curve"/>
      <point x="516" y="261" type="line"/>
      <point x="538" y="339" type="line"/>
      <point x="364" y="339" type="line"/>
      <point x="354" y="393"/>
      <point x="301" y="421"/>
      <point x="301" y="475" type="curve" smooth="yes"/>
      <point x="301" y="505"/>
      <point x="333" y="550"/>
      <point x="400" y="550" type="curve" smooth="yes"/>
      <point x="458" y="550"/>
      <point x="500" y="537"/>
      <point x="585" y="469" type="curve"/>
      <point x="664" y="575" type="line"/>
      <point x="564" y="647"/>
      <point x="501" y="670"/>
      <point x="404" y="670" type="curve" smooth="yes"/>
      <point x="231" y="670"/>
      <point x="157" y="561"/>
      <point x="157" y="479" type="curve" smooth="yes"/>
      <point x="157" y="393"/>
      <point x="212" y="364"/>
      <point x="237" y="326" type="curve"/>
      <point x="98" y="326" type="line"/>
      <point x="75" y="250" type="line"/>
      <point x="224" y="250" type="line"/>
      <point x="196" y="222"/>
      <point x="135" y="172"/>
      <point x="7" y="70" type="curve"/>
    </contour>
  </outline>
</glyph>
<glyph name="section" format="2">
  <advance width="614"/>
  <unicode hex="00A7"/>
  <outline>
    <contour>
      <point x="24" y="171" type="curve" smooth="yes"/>
      <point x="24" y="122"/>
      <point x="46" y="86"/>
      <point x="126" y="42" type="curve" smooth="yes"/>
      <point x="216" y="-7" type="line" smooth="yes"/>
      <point x="268" y="-35"/>
      <point x="284" y="-48"/>
      <point x="284" y="-72" type="curve" smooth="yes"/>
      <point x="284" y="-103"/>
      <point x="259" y="-121"/>
      <point x="190" y="-121" type="curve" smooth="yes"/>
      <point x="130" y="-121"/>
      <point x="62" y="-108"/>
      <point x="-26" y="-80" type="curve"/>
      <point x="-60" y="-198" type="line"/>
      <point x="25" y="-224"/>
      <point x="96" y="-240"/>
      <point x="187" y="-240" type="curve" smooth="yes"/>
      <point x="345" y="-240"/>
      <point x="428" y="-163"/>
      <point x="428" y="-64" type="curve" smooth="yes"/>
      <point x="428" y="-16"/>
      <point x="414" y="19"/>
      <point x="382" y="50" type="curve"/>
      <point x="542" y="136"/>
      <point x="569" y="183"/>
      <point x="569" y="256" type="curve" smooth="yes"/>
      <point x="569" y="305"/>
      <point x="547" y="341"/>
      <point x="467" y="385" type="curve" smooth="yes"/>
      <point x="377" y="434" type="line" smooth="yes"/>
      <point x="325" y="462"/>
      <point x="309" y="475"/>
      <point x="309" y="499" type="curve" smooth="yes"/>
      <point x="309" y="530"/>
      <point x="334" y="548"/>
      <point x="403" y="548" type="curve" smooth="yes"/>
      <point x="463" y="548"/>
      <point x="531" y="535"/>
      <point x="619" y="507" type="curve"/>
      <point x="653" y="625" type="line"/>
      <point x="568" y="651"/>
      <point x="497" y="667"/>
      <point x="406" y="667" type="curve" smooth="yes"/>
      <point x="248" y="667"/>
      <point x="165" y="590"/>
      <point x="165" y="491" type="curve" smooth="yes"/>
      <point x="165" y="443"/>
      <point x="179" y="408"/>
      <point x="211" y="377" type="curve"/>
      <point x="51" y="291"/>
      <point x="24" y="244"/>
    </contour>
    <contour>
      <point x="247" y="135" type="line" smooth="yes"/>
      <point x="175" y="174"/>
      <point x="168" y="182"/>
      <point x="168" y="202" type="curve" smooth="yes"/>
      <point x="168" y="231"/>
      <point x="193" y="252"/>
      <point x="302" y="316" type="curve"/>
      <point x="346" y="292" type="line" smooth="yes"/>
      <point x="418" y="253"/>
      <point x="425" y="245"/>
      <point x="425" y="225" type="curve" smooth="yes"/>
      <point x="425" y="196"/>
      <point x="400" y="175"/>
      <point x="291" y="111" type="curve"/>
    </contour>
  </outline>
</glyph>
<glyph name="degree" format="2">
  <advance width="614"/>
  <unicode hex="00B0"/>
  <outline>
    <contour>
      <point x="356" y="284" type="curve" smooth="yes"/>
      <point x="496" y="284"/>
      <point x="601" y="394"/>
      <point x="601" y="524" type="curve" smooth="yes"/>
      <point x="601" y="627"/>
      <point x="525" y="692"/>
      <point x="402" y="692" type="curve" smooth="yes"/>
      <point x="262" y="692"/>
      <point x="157" y="582"/>
      <point x="157" y="452" type="curve" smooth="yes"/>
      <point x="157" y="349"/>
      <point x="233" y="284"/>
    </contour>
    <contour>
      <point x="401" y="591" type="curve" smooth="yes"/>
      <point x="450" y="591"/>
      <point x="484" y="561"/>
      <point x="484" y="515" type="curve" smooth="yes"/>
      <point x="484" y="444"/>
      <point x="424" y="385"/>
      <point x="357" y="385" type="curve" smooth="yes"/>
      <point x="308" y="385"/>
      <point x="274" y="415"/>
      <point x="274" y="461" type="curve" smooth="yes"/>
      <point x="274" y="532"/>
      <point x="334" y="591"/>
    </contour>
  </outline>
</glyph>
<glyph name="mu" format="2">
  <advance width="614"/>
  <unicode hex="00B5"/>
  <outline>
    <contour>
      <point x="175" y="-11" type="curve" smooth="yes"/>
      <point x="217" y="-11"/>
      <point x="252" y="7"/>
      <point x="360" y="92" type="curve"/>
      <point x="342" y="0" type="line"/>
      <point x="468" y="0" type="line"/>
      <point x="605" y="477" type="line"/>
      <point x="460" y="477" type="line"/>
      <point x="389" y="229" type="line"/>
      <point x="275" y="138"/>
      <point x="251" y="126"/>
      <point x="226" y="126" type="curve" smooth="yes"/>
      <point x="206" y="126"/>
      <point x="197" y="135"/>
      <point x="197" y="153" type="curve" smooth="yes"/>
      <point x="197" y="160"/>
      <point x="198" y="168"/>
      <point x="201" y="177" type="curve" smooth="yes"/>
      <point x="287" y="477" type="line"/>
      <point x="142" y="477" type="line"/>
      <point x="-61" y="-230" type="line"/>
      <point x="93" y="-230" type="line"/>
      <point x="98" y="-211" type="line"/>
      <point x="127" y="8" type="line"/>
      <point x="139" y="-4"/>
      <point x="156" y="-11"/>
    </contour>
  </outline>
</glyph>
<glyph name="paragraph" format="2">
  <advance width="614"/>
  <unicode hex="00B6"/>
  <outline>
    <contour>
      <point x="294" y="239" type="line"/>
      <point x="383" y="551" type="line"/>
      <point x="473" y="551" type="line"/>
      <point x="316" y="0" type="line"/>
      <point x="450" y="0" type="line"/>
      <point x="638" y="655" type="line"/>
      <point x="431" y="655" type="line" smooth="yes"/>
      <point x="217" y="655"/>
      <point x="118" y="541"/>
      <point x="118" y="399" type="curve" smooth="yes"/>
      <point x="118" y="297"/>
      <point x="181" y="239"/>
      <point x="291" y="239" type="curve" smooth="yes"/>
    </contour>
  </outline>
</glyph>
<glyph name="questiondown" format="2">
  <advance width="614"/>
  <unicode hex="00BF"/>
  <outline>
    <contour>
      <point x="462" y="549" type="curve" smooth="yes"/>
      <point x="575" y="549"/>
      <point x="608" y="605"/>
      <point x="608" y="664" type="curve" smooth="yes"/>
      <point x="608" y="705"/>
      <point x="578" y="725"/>
      <point x="500" y="725" type="curve" smooth="yes"/>
      <point x="387" y="725"/>
      <point x="354" y="669"/>
      <point x="354" y="610" type="curve" smooth="yes"/>
      <point x="354" y="569"/>
      <point x="384" y="549"/>
    </contour>
    <contour>
      <point x="368" y="433" type="line"/>
      <point x="344" y="382"/>
      <point x="336" y="374"/>
      <point x="304" y="361" type="curve" smooth="yes"/>
      <point x="219" y="326" type="line" smooth="yes"/>
      <point x="79" y="268"/>
      <point x="42" y="216"/>
      <point x="42" y="131" type="curve" smooth="yes"/>
      <point x="42" y="41"/>
      <point x="100" y="-15"/>
      <point x="226" y="-15" type="curve" smooth="yes"/>
      <point x="302" y="-15"/>
      <point x="387" y="-2"/>
      <point x="532" y="46" type="curve"/>
      <point x="500" y="161" type="line"/>
      <point x="352" y="115"/>
      <point x="300" y="105"/>
      <point x="258" y="105" type="curve" smooth="yes"/>
      <point x="216" y="105"/>
      <point x="195" y="123"/>
      <point x="195" y="148" type="curve" smooth="yes"/>
      <point x="195" y="175"/>
      <point x="203" y="194"/>
      <point x="296" y="232" type="curve" smooth="yes"/>
      <point x="372" y="263" type="line" smooth="yes"/>
      <point x="430" y="287"/>
      <point x="449" y="305"/>
      <point x="457" y="332" type="curve" smooth="yes"/>
      <point x="463" y="353"/>
      <point x="465" y="374"/>
      <point x="466" y="433" type="curve"/>
    </contour>
  </outline>
</glyph>
<glyph name="Aring" format="2">
  <advance width="614"/>
  <unicode hex="00C5"/>
  <outline>
    <contour>
      <point x="111" y="0" type="line"/>
      <point x="183" y="126" type="line"/>
      <point x="381" y="126" type="line"/>
      <point x="380" y="0" type="line"/>
      <point x="520" y="0" type="line"/>
      <point x="515" y="563" type="line"/>
      <point x="574" y="588"/>
      <point x="610" y="638"/>
      <point x="610" y="701" type="curve" smooth="yes"/>
      <point x="610" y="767"/>
      <point x="560" y="818"/>
      <point x="449" y="818" type="curve" smooth="yes"/>
      <point x="333" y="818"/>
      <point x="256" y="755"/>
      <point x="256" y="662" type="curve" smooth="yes"/>
      <point x="256" y="630"/>
      <point x="268" y="601"/>
      <point x="293" y="580" type="curve"/>
      <point x="-40" y="0" type="line"/>
    </contour>
    <contour>
      <point x="440" y="740" type="curve" smooth="yes"/>
      <point x="489" y="740"/>
      <point x="510" y="722"/>
      <point x="510" y="696" type="curve" smooth="yes"/>
      <point x="510" y="655"/>
      <point x="482" y="623"/>
      <point x="426" y="623" type="curve" smooth="yes"/>
      <point x="377" y="623"/>
      <point x="356" y="641"/>
      <point x="356" y="667" type="curve" smooth="yes"/>
      <point x="356" y="708"/>
      <point x="384" y="740"/>
    </contour>
    <contour>
      <point x="244" y="239" type="line"/>
      <point x="393" y="515" type="line"/>
      <point x="389" y="239" type="line"/>
    </contour>
  </outline>
</glyph>
<glyph name="Ccedilla" format="2">
  <advance width="614"/>
  <unicode hex="00C7"/>
  <outline>
    <contour>
      <point x="393" y="-140" type="curve" smooth="yes"/>
      <point x="393" y="-101"/>
      <point x="363" y="-73"/>
      <point x="270" y="-62" type="curve"/>
      <point x="298" y="-15" type="line"/>
      <point x="368" y="-12"/>
      <point x="444" y="9"/>
      <point x="530" y="60" type="curve"/>
      <point x="473" y="164" type="line"/>
      <point x="389" y="119"/>
      <point x="342" y="105"/>
      <point x="297" y="105" type="curve" smooth="yes"/>
      <point x="251" y="105"/>
      <point x="207" y="140"/>
      <point x="207" y="225" type="curve" smooth="yes"/>
      <point x="207" y="404"/>
      <point x="333" y="550"/>
      <point x="447" y="550" type="curve" smooth="yes"/>
      <point x="495" y="550"/>
      <point x="525" y="539"/>
      <point x="589" y="488" type="curve"/>
      <point x="665" y="593" type="line"/>
      <point x="597" y="651"/>
      <point x="534" y="670"/>
      <point x="458" y="670" type="curve" smooth="yes"/>
      <point x="205" y="670"/>
      <point x="59" y="432"/>
      <point x="59" y="219" type="curve" smooth="yes"/>
      <point x="59" y="80"/>
      <point x="122" y="3"/>
      <point x="237" y="-12" type="curve"/>
      <point x="176" y="-112" type="line"/>
      <point x="179" y="-122" type="line"/>
      <point x="268" y="-126"/>
      <point x="297" y="-137"/>
      <point x="297" y="-155" type="curve" smooth="yes"/>
      <point x="297" y="-180"/>
      <point x="284" y="-191"/>
      <point x="100" y="-206" type="curve"/>
      <point x="101" y="-270" type="line"/>
      <point x="363" y="-248"/>
      <point x="393" y="-208"/>
    </contour>
  </outline>
</glyph>
<glyph name="Eth" format="2">
  <advance width="614"/>
  <unicode hex="00D0"/>
  <outline>
    <contour>
      <point x="37" y="292" type="line"/>
      <point x="114" y="292" type="line"/>
      <point x="30" y="0" type="line"/>
      <point x="100" y="0" type="line" smooth="yes"/>
      <point x="284" y="0"/>
      <point x="412" y="53"/>
      <point x="500" y="141" type="curve" smooth="yes"/>
      <point x="575" y="216"/>
      <point x="612" y="315"/>
      <point x="612" y="429" type="curve" smooth="yes"/>
      <point x="612" y="494"/>
      <point x="593" y="546"/>
      <point x="556" y="583" type="curve" smooth="yes"/>
      <point x="510" y="629"/>
      <point x="438" y="655"/>
      <point x="312" y="655" type="curve" smooth="yes"/>
      <point x="218" y="655" type="line"/>
      <point x="136" y="368" type="line"/>
      <point x="59" y="368" type="line"/>
    </contour>
    <contour>
      <point x="341" y="292" type="line"/>
      <point x="363" y="368" type="line"/>
      <point x="280" y="368" type="line"/>
      <point x="328" y="537" type="line"/>
      <point x="329" y="537" type="line"/>
      <point x="429" y="537"/>
      <point x="464" y="507"/>
      <point x="464" y="422" type="curve" smooth="yes"/>
      <point x="464" y="275"/>
      <point x="373" y="152"/>
      <point x="210" y="125" type="curve"/>
      <point x="258" y="292" type="line"/>
    </contour>
  </outline>
</glyph>
<glyph name="Oslash" format="2">
  <advance width="614"/>
  <unicode hex="00D8"/>
  <outline>
    <contour>
      <point x="407" y="670" type="curve" smooth="yes"/>
      <point x="257" y="670"/>
      <point x="138" y="573"/>
      <point x="78" y="363" type="curve" smooth="yes"/>
      <point x="55" y="279"/>
      <point x="54" y="248"/>
      <point x="54" y="192" type="curve" smooth="yes"/>
      <point x="54" y="151"/>
      <point x="63" y="114"/>
      <point x="79" y="84" type="curve"/>
      <point x="-55" y="-71" type="line"/>
      <point x="63" y="-71" type="line"/>
      <point x="137" y="21" type="line"/>
      <point x="172" y="-2"/>
      <point x="217" y="-15"/>
      <point x="270" y="-15" type="curve" smooth="yes"/>
      <point x="420" y="-15"/>
      <point x="539" y="82"/>
      <point x="599" y="292" type="curve" smooth="yes"/>
      <point x="622" y="376"/>
      <point x="623" y="407"/>
      <point x="623" y="463" type="curve" smooth="yes"/>
      <point x="623" y="509"/>
      <point x="613" y="549"/>
      <point x="593" y="581" type="curve"/>
      <point x="721" y="726" type="line"/>
      <point x="601" y="726" type="line"/>
      <point x="533" y="639" type="line"/>
      <point x="499" y="659"/>
      <point x="457" y="670"/>
    </contour>
    <contour>
      <point x="279" y="105" type="curve" smooth="yes"/>
      <point x="230" y="105"/>
      <point x="201" y="133"/>
      <point x="201" y="198" type="curve" smooth="yes"/>
      <point x="201" y="242"/>
      <point x="209" y="286"/>
      <point x="226" y="345" type="curve" smooth="yes"/>
      <point x="272" y="505"/>
      <point x="335" y="550"/>
      <point x="397" y="550" type="curve" smooth="yes"/>
      <point x="447" y="550"/>
      <point x="476" y="522"/>
      <point x="476" y="457" type="curve" smooth="yes"/>
      <point x="476" y="413"/>
      <point x="468" y="369"/>
      <point x="451" y="310" type="curve" smooth="yes"/>
      <point x="405" y="150"/>
      <point x="342" y="105"/>
    </contour>
  </outline>
</glyph>
<glyph name="ae" format="2">
  <advance width="614"/>
  <unicode hex="00E6"/>
  <outline>
    <contour>
      <point x="346" y="154" type="curve" smooth="yes"/>
      <point x="346" y="166"/>
      <point x="347" y="179"/>
      <point x="348" y="191" type="curve"/>
      <point x="586" y="212"/>
      <point x="623" y="283"/>
      <point x="623" y="382" type="curve" smooth="yes"/>
      <point x="623" y="445"/>
      <point x="586" y="486"/>
      <point x="511" y="486" type="curve" smooth="yes"/>
      <point x="469" y="486"/>
      <point x="421" y="470"/>
      <point x="378" y="432" type="curve"/>
      <point x="365" y="470"/>
      <point x="330" y="486"/>
      <point x="253" y="486" type="curve" smooth="yes"/>
      <point x="209" y="486"/>
      <point x="165" y="481"/>
      <point x="119" y="472" type="curve"/>
      <point x="84" y="371" type="line"/>
      <point x="138" y="382"/>
      <point x="172" y="387"/>
      <point x="208" y="387" type="curve" smooth="yes"/>
      <point x="244" y="387"/>
      <point x="260" y="373"/>
      <point x="260" y="341" type="curve" smooth="yes"/>
      <point x="260" y="333"/>
      <point x="258" y="323"/>
      <point x="246" y="280" type="curve"/>
      <point x="94" y="269"/>
      <point x="49" y="259"/>
      <point x="18" y="228" type="curve" smooth="yes"/>
      <point x="-15" y="195"/>
      <point x="-25" y="150"/>
      <point x="-25" y="109" type="curve" smooth="yes"/>
      <point x="-25" y="47"/>
      <point x="2" y="-5"/>
      <point x="95" y="-5" type="curve" smooth="yes"/>
      <point x="135" y="-5"/>
      <point x="164" y="1"/>
      <point x="239" y="49" type="curve"/>
      <point x="245" y="49" type="line"/>
      <point x="278" y="11"/>
      <point x="343" y="-5"/>
      <point x="461" y="-5" type="curve"/>
      <point x="493" y="93" type="line"/>
      <point x="383" y="93"/>
      <point x="346" y="107"/>
    </contour>
    <contour>
      <point x="465" y="386" type="curve" smooth="yes"/>
      <point x="487" y="386"/>
      <point x="497" y="378"/>
      <point x="497" y="354" type="curve" smooth="yes"/>
      <point x="497" y="311"/>
      <point x="473" y="277"/>
      <point x="365" y="266" type="curve"/>
      <point x="387" y="333"/>
      <point x="425" y="386"/>
    </contour>
    <contour>
      <point x="133" y="94" type="curve" smooth="yes"/>
      <point x="104" y="94"/>
      <point x="96" y="106"/>
      <point x="96" y="127" type="curve" smooth="yes"/>
      <point x="96" y="145"/>
      <point x="100" y="161"/>
      <point x="114" y="175" type="curve" smooth="yes"/>
      <point x="127" y="188"/>
      <point x="142" y="194"/>
      <point x="224" y="202" type="curve"/>
      <point x="219" y="183"/>
      <point x="216" y="168"/>
      <point x="216" y="152" type="curve" smooth="yes"/>
      <point x="216" y="143"/>
      <point x="216" y="134"/>
      <point x="217" y="126" type="curve"/>
      <point x="173" y="100"/>
      <point x="154" y="94"/>
    </contour>
  </outline>
</glyph>
<glyph name="ccedilla" format="2">
  <advance width="614"/>
  <unicode hex="00E7"/>
  <outline>
    <contour>
      <point x="377" y="368" type="curve" smooth="yes"/>
      <point x="422" y="368"/>
      <point x="460" y="359"/>
      <point x="544" y="319" type="curve"/>
      <point x="600" y="432" type="line"/>
      <point x="507" y="480"/>
      <point x="442" y="490"/>
      <point x="365" y="490" type="curve" smooth="yes"/>
      <point x="268" y="490"/>
      <point x="191" y="453"/>
      <point x="135" y="397" type="curve" smooth="yes"/>
      <point x="76" y="338"/>
      <point x="43" y="256"/>
      <point x="43" y="178" type="curve" smooth="yes"/>
      <point x="43" y="81"/>
      <point x="98" y="15"/>
      <point x="197" y="-6" type="curve"/>
      <point x="133" y="-112" type="line"/>
      <point x="136" y="-122" type="line"/>
      <point x="225" y="-126"/>
      <point x="254" y="-137"/>
      <point x="254" y="-155" type="curve" smooth="yes"/>
      <point x="254" y="-180"/>
      <point x="241" y="-191"/>
      <point x="57" y="-206" type="curve"/>
      <point x="58" y="-270" type="line"/>
      <point x="320" y="-248"/>
      <point x="350" y="-208"/>
      <point x="350" y="-140" type="curve" smooth="yes"/>
      <point x="350" y="-101"/>
      <point x="320" y="-73"/>
      <point x="227" y="-62" type="curve"/>
      <point x="256" y="-14" type="line"/>
      <point x="353" y="-14"/>
      <point x="435" y="1"/>
      <point x="519" y="46" type="curve"/>
      <point x="477" y="158" type="line"/>
      <point x="385" y="118"/>
      <point x="341" y="108"/>
      <point x="294" y="108" type="curve" smooth="yes"/>
      <point x="240" y="108"/>
      <point x="203" y="138"/>
      <point x="203" y="193" type="curve" smooth="yes"/>
      <point x="203" y="237"/>
      <point x="222" y="284"/>
      <point x="257" y="319" type="curve" smooth="yes"/>
      <point x="287" y="349"/>
      <point x="327" y="368"/>
    </contour>
  </outline>
</glyph>
<glyph name="eth" format="2">
  <advance width="614"/>
  <unicode hex="00F0"/>
  <outline>
    <contour>
      <point x="514" y="767" type="line"/>
      <point x="428" y="688" type="line"/>
      <point x="394" y="705"/>
      <point x="354" y="717"/>
      <point x="309" y="725" type="curve"/>
      <point x="244" y="620" type="line"/>
      <point x="281" y="611"/>
      <point x="312" y="602"/>
      <point x="337" y="591" type="curve"/>
      <point x="234" y="503" type="line"/>
      <point x="279" y="457" type="line"/>
      <point x="393" y="561" type="line"/>
      <point x="451" y="522"/>
      <point x="463" y="473"/>
      <point x="463" y="423" type="curve" smooth="yes"/>
      <point x="463" y="411"/>
      <point x="462" y="398"/>
      <point x="461" y="385" type="curve"/>
      <point x="396" y="414"/>
      <point x="350" y="421"/>
      <point x="297" y="421" type="curve" smooth="yes"/>
      <point x="130" y="421"/>
      <point x="28" y="304"/>
      <point x="28" y="165" type="curve" smooth="yes"/>
      <point x="28" y="55"/>
      <point x="111" y="-15"/>
      <point x="242" y="-15" type="curve" smooth="yes"/>
      <point x="339" y="-15"/>
      <point x="424" y="20"/>
      <point x="488" y="84" type="curve" smooth="yes"/>
      <point x="561" y="157"/>
      <point x="604" y="266"/>
      <point x="604" y="404" type="curve" smooth="yes"/>
      <point x="604" y="497"/>
      <point x="569" y="591"/>
      <point x="484" y="655" type="curve"/>
      <point x="562" y="720" type="line"/>
    </contour>
    <contour>
      <point x="184" y="174" type="curve" smooth="yes"/>
      <point x="184" y="256"/>
      <point x="244" y="316"/>
      <point x="328" y="316" type="curve" smooth="yes"/>
      <point x="363" y="316"/>
      <point x="396" y="311"/>
      <point x="437" y="290" type="curve"/>
      <point x="417" y="226"/>
      <point x="391" y="181"/>
      <point x="361" y="151" type="curve" smooth="yes"/>
      <point x="329" y="119"/>
      <point x="293" y="105"/>
      <point x="258" y="105" type="curve" smooth="yes"/>
      <point x="213" y="105"/>
      <point x="184" y="130"/>
    </contour>
  </outline>
</glyph>
<glyph name="divide" format="2">
  <advance width="614"/>
  <unicode hex="00F7"/>
  <outline>
    <contour>
      <point x="388" y="484" type="curve" smooth="yes"/>
      <point x="469" y="484"/>
      <point x="508" y="524"/>
      <point x="508" y="582" type="curve" smooth="yes"/>
      <point x="508" y="622"/>
      <point x="477" y="641"/>
      <point x="414" y="641" type="curve" smooth="yes"/>
      <point x="328" y="641"/>
      <point x="294" y="593"/>
      <point x="294" y="542" type="curve" smooth="yes"/>
      <point x="294" y="502"/>
      <point x="327" y="484"/>
    </contour>
    <contour>
      <point x="72" y="272" type="line"/>
      <point x="561" y="272" type="line"/>
      <point x="594" y="388" type="line"/>
      <point x="105" y="388" type="line"/>
    </contour>
    <contour>
      <point x="255" y="22" type="curve" smooth="yes"/>
      <point x="339" y="22"/>
      <point x="376" y="62"/>
      <point x="376" y="119" type="curve" smooth="yes"/>
      <point x="376" y="159"/>
      <point x="345" y="178"/>
      <point x="281" y="178" type="curve" smooth="yes"/>
      <point x="195" y="178"/>
      <point x="162" y="130"/>
      <point x="162" y="79" type="curve" smooth="yes"/>
      <point x="162" y="39"/>
      <point x="195" y="22"/>
    </contour>
  </outline>
</glyph>
<glyph name="oslash" format="2">
  <advance width="614"/>
  <unicode hex="00F8"/>
  <outline>
    <contour>
      <point x="356" y="492" type="curve" smooth="yes"/>
      <point x="182" y="492"/>
      <point x="39" y="366"/>
      <point x="39" y="191" type="curve" smooth="yes"/>
      <point x="39" y="144"/>
      <point x="54" y="103"/>
      <point x="80" y="69" type="curve"/>
      <point x="-67" y="-71" type="line"/>
      <point x="74" y="-71" type="line"/>
      <point x="148" y="12" type="line"/>
      <point x="181" y="-5"/>
      <point x="218" y="-15"/>
      <point x="258" y="-15" type="curve" smooth="yes"/>
      <point x="432" y="-15"/>
      <point x="575" y="111"/>
      <point x="575" y="286" type="curve" smooth="yes"/>
      <point x="575" y="331"/>
      <point x="560" y="372"/>
      <point x="534" y="406" type="curve"/>
      <point x="682" y="548" type="line"/>
      <point x="540" y="548" type="line"/>
      <point x="465" y="464" type="line"/>
      <point x="433" y="482"/>
      <point x="395" y="492"/>
    </contour>
    <contour>
      <point x="284" y="104" type="curve" smooth="yes"/>
      <point x="226" y="104"/>
      <point x="189" y="142"/>
      <point x="189" y="200" type="curve" smooth="yes"/>
      <point x="189" y="287"/>
      <point x="248" y="373"/>
      <point x="330" y="373" type="curve" smooth="yes"/>
      <point x="388" y="373"/>
      <point x="425" y="335"/>
      <point x="425" y="277" type="curve" smooth="yes"/>
      <point x="425" y="190"/>
      <point x="366" y="104"/>
    </contour>
  </outline>
</glyph>
<glyph name="thorn" format="2">
  <advance width="614"/>
  <unicode hex="00FE"/>
  <outline>
    <contour>
      <point x="-61" y="-230" type="line"/>
      <point x="84" y="-230" type="line"/>
      <point x="150" y="1" type="line"/>
      <point x="180" y="-5"/>
      <point x="210" y="-8"/>
      <point x="242" y="-8" type="curve" smooth="yes"/>
      <point x="450" y="-8"/>
      <point x="585" y="127"/>
      <point x="585" y="300" type="curve" smooth="yes"/>
      <point x="585" y="429"/>
      <point x="501" y="490"/>
      <point x="420" y="490" type="curve" smooth="yes"/>
      <point x="373" y="490"/>
      <point x="327" y="476"/>
      <point x="277" y="442" type="curve"/>
      <point x="354" y="710" type="line"/>
      <point x="209" y="710" type="line"/>
    </contour>
    <contour>
      <point x="350" y="371" type="curve" smooth="yes"/>
      <point x="401" y="371"/>
      <point x="433" y="340"/>
      <point x="433" y="279" type="curve" smooth="yes"/>
      <point x="433" y="193"/>
      <point x="366" y="111"/>
      <point x="248" y="111" type="curve" smooth="yes"/>
      <point x="226" y="111"/>
      <point x="205" y="115"/>
      <point x="185" y="122" type="curve"/>
      <point x="244" y="326" type="line"/>
      <point x="288" y="358"/>
      <point x="321" y="371"/>
    </contour>
  </outline>
</glyph>
<glyph name="Aogonek" format="2">
  <advance width="614"/>
  <unicode hex="0104"/>
  <outline>
    <contour>
      <point x="111" y="0" type="line"/>
      <point x="183" y="126" type="line"/>
      <point x="381" y="126" type="line"/>
      <point x="380" y="0" type="line"/>
      <point x="417" y="0" type="line"/>
      <point x="296" y="-97"/>
      <point x="275" y="-132"/>
      <point x="275" y="-167" type="curve" smooth="yes"/>
      <point x="275" y="-206"/>
      <point x="301" y="-228"/>
      <point x="376" y="-231" type="curve" smooth="yes"/>
      <point x="448" y="-234" type="line"/>
      <point x="485" y="-141" type="line"/>
      <point x="431" y="-137" type="line" smooth="yes"/>
      <point x="405" y="-135"/>
      <point x="397" y="-130"/>
      <point x="397" y="-118" type="curve" smooth="yes"/>
      <point x="397" y="-100"/>
      <point x="404" y="-87"/>
      <point x="486" y="0" type="curve"/>
      <point x="520" y="0" type="line"/>
      <point x="514" y="655" type="line"/>
      <point x="336" y="655" type="line"/>
      <point x="-40" y="0" type="line"/>
    </contour>
    <contour>
      <point x="244" y="239" type="line"/>
      <point x="393" y="515" type="line"/>
      <point x="389" y="239" type="line"/>
    </contour>
  </outline>
</glyph>
<glyph name="aogonek" format="2">
  <advance width="614"/>
  <unicode hex="0105"/>
  <outline>
    <contour>
      <point x="223" y="-167" type="curve" smooth="yes"/>
      <point x="223" y="-206"/>
      <point x="249" y="-228"/>
      <point x="324" y="-231" type="curve" smooth="yes"/>
      <point x="396" y="-234" type="line"/>
      <point x="433" y="-141" type="line"/>
      <point x="379" y="-137" type="line" smooth="yes"/>
      <point x="353" y="-135"/>
      <point x="345" y="-130"/>
      <point x="345" y="-118" type="curve" smooth="yes"/>
      <point x="345" y="-100"/>
      <point x="352" y="-87"/>
      <point x="436" y="1" type="curve"/>
      <point x="449" y="-1"/>
      <point x="478" y="-5"/>
      <point x="523" y="-9" type="curve"/>
      <point x="555" y="101" type="line"/>
      <point x="524" y="107" type="line" smooth="yes"/>
      <point x="502" y="111"/>
      <point x="492" y="117"/>
      <point x="492" y="133" type="curve" smooth="yes"/>
      <point x="492" y="142"/>
      <point x="495" y="154"/>
      <point x="504" y="180" type="curve" smooth="yes"/>
      <point x="548" y="304" type="line" smooth="yes"/>
      <point x="558" y="333"/>
      <point x="563" y="358"/>
      <point x="563" y="380" type="curve" smooth="yes"/>
      <point x="563" y="456"/>
      <point x="498" y="490"/>
      <point x="365" y="490" type="curve" smooth="yes"/>
      <point x="328" y="490"/>
      <point x="262" y="487"/>
      <point x="164" y="475" type="curve"/>
      <point x="133" y="361" type="line"/>
      <point x="226" y="373"/>
      <point x="291" y="377"/>
      <point x="325" y="377" type="curve" smooth="yes"/>
      <point x="394" y="377"/>
      <point x="419" y="365"/>
      <point x="419" y="338" type="curve" smooth="yes"/>
      <point x="419" y="328"/>
      <point x="417" y="321"/>
      <point x="409" y="297" type="curve"/>
      <point x="279" y="289" type="line" smooth="yes"/>
      <point x="145" y="281"/>
      <point x="96" y="265"/>
      <point x="63" y="232" type="curve" smooth="yes"/>
      <point x="33" y="202"/>
      <point x="17" y="144"/>
      <point x="17" y="99" type="curve" smooth="yes"/>
      <point x="17" y="35"/>
      <point x="59" y="-9"/>
      <point x="136" y="-9" type="curve" smooth="yes"/>
      <point x="219" y="-9"/>
      <point x="281" y="9"/>
      <point x="345" y="49" type="curve"/>
      <point x="351" y="49" type="line"/>
      <point x="359" y="37"/>
      <point x="371" y="26"/>
      <point x="388" y="18" type="curve"/>
      <point x="246" y="-93"/>
      <point x="223" y="-130"/>
    </contour>
    <contour>
      <point x="200" y="94" type="curve" smooth="yes"/>
      <point x="178" y="94"/>
      <point x="163" y="107"/>
      <point x="163" y="127" type="curve" smooth="yes"/>
      <point x="163" y="148"/>
      <point x="168" y="164"/>
      <point x="183" y="179" type="curve" smooth="yes"/>
      <point x="196" y="192"/>
      <point x="219" y="200"/>
      <point x="296" y="206" type="curve" smooth="yes"/>
      <point x="381" y="214" type="line"/>
      <point x="359" y="148" type="line"/>
      <point x="311" y="111"/>
      <point x="241" y="94"/>
    </contour>
  </outline>
</glyph>
<glyph name="dcroat" format="2">
  <advance width="614"/>
  <unicode hex="0111"/>
  <outline>
    <contour>
      <point x="351" y="0" type="line"/>
      <point x="457" y="0" type="line"/>
      <point x="605" y="516" type="line"/>
      <point x="682" y="516" type="line"/>
      <point x="704" y="592" type="line"/>
      <point x="627" y="592" type="line"/>
      <point x="661" y="710" type="line"/>
      <point x="516" y="710" type="line"/>
      <point x="482" y="592" type="line"/>
      <point x="354" y="592" type="line"/>
      <point x="332" y="516" type="line"/>
      <point x="460" y="516" type="line"/>
      <point x="430" y="413" type="line"/>
      <point x="399" y="422"/>
      <point x="366" y="427"/>
      <point x="328" y="427" type="curve" smooth="yes"/>
      <point x="149" y="427"/>
      <point x="31" y="312"/>
      <point x="31" y="166" type="curve" smooth="yes"/>
      <point x="31" y="48"/>
      <point x="108" y="-8"/>
      <point x="183" y="-8" type="curve" smooth="yes"/>
      <point x="235" y="-8"/>
      <point x="287" y="5"/>
      <point x="343" y="43" type="curve"/>
    </contour>
    <contour>
      <point x="183" y="187" type="curve" smooth="yes"/>
      <point x="183" y="253"/>
      <point x="234" y="318"/>
      <point x="325" y="318" type="curve" smooth="yes"/>
      <point x="352" y="318"/>
      <point x="377" y="313"/>
      <point x="398" y="301" type="curve"/>
      <point x="353" y="144" type="line"/>
      <point x="313" y="120"/>
      <point x="281" y="111"/>
      <point x="253" y="111" type="curve" smooth="yes"/>
      <point x="210" y="111"/>
      <point x="183" y="136"/>
    </contour>
  </outline>
</glyph>
<glyph name="Eogonek" format="2">
  <advance width="614"/>
  <unicode hex="0118"/>
  <outline>
    <contour>
      <point x="228" y="-167" type="curve" smooth="yes"/>
      <point x="228" y="-206"/>
      <point x="254" y="-228"/>
      <point x="329" y="-231" type="curve" smooth="yes"/>
      <point x="401" y="-234" type="line"/>
      <point x="438" y="-141" type="line"/>
      <point x="384" y="-137" type="line" smooth="yes"/>
      <point x="358" y="-135"/>
      <point x="350" y="-130"/>
      <point x="350" y="-118" type="curve" smooth="yes"/>
      <point x="350" y="-100"/>
      <point x="357" y="-87"/>
      <point x="439" y="0" type="curve"/>
      <point x="474" y="0" type="line"/>
      <point x="508" y="120" type="line"/>
      <point x="198" y="120" type="line"/>
      <point x="241" y="270" type="line"/>
      <point x="518" y="270" type="line"/>
      <point x="553" y="390" type="line"/>
      <point x="276" y="390" type="line"/>
      <point x="318" y="535" type="line"/>
      <point x="626" y="535" type="line"/>
      <point x="661" y="655" type="line"/>
      <point x="207" y="655" type="line"/>
      <point x="19" y="0" type="line"/>
      <point x="370" y="0" type="line"/>
      <point x="249" y="-97"/>
      <point x="228" y="-132"/>
    </contour>
  </outline>
</glyph>
<glyph name="eogonek" format="2">
  <advance width="614"/>
  <unicode hex="0119"/>
  <outline>
    <contour>
      <point x="200" y="-167" type="curve" smooth="yes"/>
      <point x="200" y="-206"/>
      <point x="226" y="-228"/>
      <point x="301" y="-231" type="curve" smooth="yes"/>
      <point x="373" y="-234" type="line"/>
      <point x="410" y="-141" type="line"/>
      <point x="356" y="-137" type="line" smooth="yes"/>
      <point x="330" y="-135"/>
      <point x="322" y="-130"/>
      <point x="322" y="-118" type="curve" smooth="yes"/>
      <point x="322" y="-101"/>
      <point x="328" y="-87"/>
      <point x="398" y="-13" type="curve"/>
      <point x="431" y="103" type="line"/>
      <point x="243" y="103"/>
      <point x="200" y="113"/>
      <point x="193" y="169" type="curve"/>
      <point x="346" y="182" type="line" smooth="yes"/>
      <point x="515" y="196"/>
      <point x="582" y="253"/>
      <point x="582" y="348" type="curve" smooth="yes"/>
      <point x="582" y="436"/>
      <point x="515" y="492"/>
      <point x="390" y="492" type="curve" smooth="yes"/>
      <point x="190" y="492"/>
      <point x="47" y="324"/>
      <point x="47" y="175" type="curve" smooth="yes"/>
      <point x="47" y="54"/>
      <point x="95" y="-3"/>
      <point x="328" y="-12" type="curve"/>
      <point x="219" y="-100"/>
      <point x="200" y="-134"/>
    </contour>
    <contour>
      <point x="372" y="379" type="curve" smooth="yes"/>
      <point x="416" y="379"/>
      <point x="440" y="361"/>
      <point x="440" y="333" type="curve" smooth="yes"/>
      <point x="440" y="302"/>
      <point x="418" y="283"/>
      <point x="346" y="275" type="curve" smooth="yes"/>
      <point x="202" y="259" type="line"/>
      <point x="229" y="329"/>
      <point x="299" y="379"/>
    </contour>
  </outline>
</glyph>
<glyph name="hbar" format="2">
  <advance width="614"/>
  <unicode hex="0127"/>
  <outline>
    <contour>
      <point x="442" y="516" type="line"/>
      <point x="464" y="592" type="line"/>
      <point x="336" y="592" type="line"/>
      <point x="370" y="710" type="line"/>
      <point x="225" y="710" type="line"/>
      <point x="191" y="592" type="line"/>
      <point x="114" y="592" type="line"/>
      <point x="92" y="516" type="line"/>
      <point x="169" y="516" type="line"/>
      <point x="21" y="0" type="line"/>
      <point x="166" y="0" type="line"/>
      <point x="220" y="188" type="line"/>
      <point x="330" y="278"/>
      <point x="351" y="291"/>
      <point x="375" y="291" type="curve" smooth="yes"/>
      <point x="392" y="291"/>
      <point x="401" y="282"/>
      <point x="401" y="264" type="curve" smooth="yes"/>
      <point x="401" y="257"/>
      <point x="400" y="249"/>
      <point x="397" y="240" type="curve" smooth="yes"/>
      <point x="328" y="0" type="line"/>
      <point x="473" y="0" type="line"/>
      <point x="550" y="267" type="line" smooth="yes"/>
      <point x="557" y="291"/>
      <point x="560" y="312"/>
      <point x="560" y="331" type="curve" smooth="yes"/>
      <point x="560" y="393"/>
      <point x="525" y="428"/>
      <point x="454" y="428" type="curve" smooth="yes"/>
      <point x="401" y="428"/>
      <point x="361" y="408"/>
      <point x="262" y="334" type="curve"/>
      <point x="314" y="516" type="line"/>
    </contour>
  </outline>
</glyph>
<glyph name="Iogonek" format="2">
  <advance width="614"/>
  <unicode hex="012E"/>
  <outline>
    <contour>
      <point x="71" y="80" type="line"/>
      <point x="48" y="0" type="line"/>
      <point x="209" y="0" type="line"/>
      <point x="88" y="-97"/>
      <point x="67" y="-132"/>
      <point x="67" y="-167" type="curve" smooth="yes"/>
      <point x="67" y="-206"/>
      <point x="93" y="-228"/>
      <point x="168" y="-231" type="curve" smooth="yes"/>
      <point x="240" y="-234" type="line"/>
      <point x="277" y="-141" type="line"/>
      <point x="223" y="-137" type="line" smooth="yes"/>
      <point x="197" y="-135"/>
      <point x="189" y="-130"/>
      <point x="189" y="-118" type="curve" smooth="yes"/>
      <point x="189" y="-100"/>
      <point x="196" y="-87"/>
      <point x="278" y="0" type="curve"/>
      <point x="436" y="0" type="line"/>
      <point x="459" y="80" type="line"/>
      <point x="336" y="103" type="line"/>
      <point x="473" y="547" type="line"/>
      <point x="595" y="575" type="line"/>
      <point x="618" y="655" type="line"/>
      <point x="230" y="655" type="line"/>
      <point x="207" y="575" type="line"/>
      <point x="330" y="552" type="line"/>
      <point x="193" y="108" type="line"/>
    </contour>
  </outline>
</glyph>
<glyph name="Eng" format="2">
  <advance width="614"/>
  <unicode hex="014A"/>
  <outline>
    <contour>
      <point x="138" y="0" type="line"/>
      <point x="253" y="423" type="line"/>
      <point x="340" y="-27" type="line"/>
      <point x="317" y="-88"/>
      <point x="274" y="-114"/>
      <point x="199" y="-119" type="curve" smooth="yes"/>
      <point x="89" y="-127" type="line"/>
      <point x="89" y="-236" type="line"/>
      <point x="196" y="-230" type="line" smooth="yes"/>
      <point x="370" y="-220"/>
      <point x="423" y="-172"/>
      <point x="474" y="6" type="curve" smooth="yes"/>
      <point x="660" y="655" type="line"/>
      <point x="528" y="655" type="line"/>
      <point x="414" y="239" type="line"/>
      <point x="333" y="655" type="line"/>
      <point x="194" y="655" type="line"/>
      <point x="6" y="0" type="line"/>
    </contour>
  </outline>
</glyph>
<glyph name="OE" format="2">
  <advance width="614"/>
  <unicode hex="0152"/>
  <outline>
    <contour>
      <point x="238" y="0" type="curve" smooth="yes"/>
      <point x="506" y="0" type="line"/>
      <point x="538" y="112" type="line"/>
      <point x="388" y="112" type="line"/>
      <point x="435" y="276" type="line"/>
      <point x="571" y="276" type="line"/>
      <point x="602" y="384" type="line"/>
      <point x="466" y="384" type="line"/>
      <point x="512" y="543" type="line"/>
      <point x="662" y="543" type="line"/>
      <point x="694" y="655" type="line"/>
      <point x="446" y="655" type="line" smooth="yes"/>
      <point x="316" y="655"/>
      <point x="223" y="632"/>
      <point x="150" y="559" type="curve" smooth="yes"/>
      <point x="69" y="478"/>
      <point x="30" y="300"/>
      <point x="30" y="213" type="curve" smooth="yes"/>
      <point x="30" y="79"/>
      <point x="100" y="0"/>
    </contour>
    <contour>
      <point x="166" y="206" type="curve" smooth="yes"/>
      <point x="166" y="273"/>
      <point x="212" y="445"/>
      <point x="271" y="504" type="curve" smooth="yes"/>
      <point x="297" y="530"/>
      <point x="328" y="544"/>
      <point x="378" y="549" type="curve"/>
      <point x="251" y="105" type="line"/>
      <point x="188" y="109"/>
      <point x="166" y="135"/>
    </contour>
  </outline>
</glyph>
<glyph name="oe" format="2">
  <advance width="614"/>
  <unicode hex="0153"/>
  <outline>
    <contour>
      <point x="133" y="-13" type="curve" smooth="yes"/>
      <point x="180" y="-13"/>
      <point x="225" y="13"/>
      <point x="261" y="57" type="curve"/>
      <point x="290" y="13"/>
      <point x="353" y="-5"/>
      <point x="472" y="-5" type="curve"/>
      <point x="504" y="93" type="line"/>
      <point x="394" y="93"/>
      <point x="357" y="107"/>
      <point x="357" y="154" type="curve" smooth="yes"/>
      <point x="357" y="166"/>
      <point x="358" y="179"/>
      <point x="359" y="191" type="curve"/>
      <point x="597" y="212"/>
      <point x="634" y="283"/>
      <point x="634" y="382" type="curve" smooth="yes"/>
      <point x="634" y="445"/>
      <point x="597" y="486"/>
      <point x="522" y="486" type="curve" smooth="yes"/>
      <point x="465" y="486"/>
      <point x="399" y="457"/>
      <point x="346" y="386" type="curve"/>
      <point x="333" y="449"/>
      <point x="294" y="486"/>
      <point x="227" y="486" type="curve" smooth="yes"/>
      <point x="173" y="486"/>
      <point x="135" y="464"/>
      <point x="97" y="426" type="curve" smooth="yes"/>
      <point x="33" y="362"/>
      <point x="-2" y="260"/>
      <point x="-2" y="149" type="curve" smooth="yes"/>
      <point x="-2" y="26"/>
      <point x="42" y="-13"/>
    </contour>
    <contour>
      <point x="476" y="386" type="curve" smooth="yes"/>
      <point x="498" y="386"/>
      <point x="508" y="378"/>
      <point x="508" y="354" type="curve" smooth="yes"/>
      <point x="508" y="311"/>
      <point x="484" y="277"/>
      <point x="376" y="266" type="curve"/>
      <point x="398" y="333"/>
      <point x="436" y="386"/>
    </contour>
    <contour>
      <point x="136" y="138" type="curve" smooth="yes"/>
      <point x="136" y="218"/>
      <point x="170" y="332"/>
      <point x="204" y="366" type="curve" smooth="yes"/>
      <point x="213" y="375"/>
      <point x="222" y="379"/>
      <point x="233" y="379" type="curve" smooth="yes"/>
      <point x="252" y="379"/>
      <point x="262" y="367"/>
      <point x="262" y="339" type="curve" smooth="yes"/>
      <point x="262" y="256"/>
      <point x="228" y="142"/>
      <point x="194" y="108" type="curve" smooth="yes"/>
      <point x="185" y="99"/>
      <point x="176" y="95"/>
      <point x="165" y="95" type="curve" smooth="yes"/>
      <point x="146" y="95"/>
      <point x="136" y="105"/>
    </contour>
  </outline>
</glyph>
<glyph name="Scedilla" format="2">
  <advance width="614"/>
  <unicode hex="015E"/>
  <outline>
    <contour>
      <point x="311" y="111" type="curve" smooth="yes"/>
      <point x="232" y="111"/>
      <point x="142" y="137"/>
      <point x="51" y="169" type="curve"/>
      <point x="10" y="45" type="line"/>
      <point x="85" y="18"/>
      <point x="164" y="-3"/>
      <point x="250" y="-10" type="curve"/>
      <point x="188" y="-112" type="line"/>
      <point x="191" y="-122" type="line"/>
      <point x="280" y="-126"/>
      <point x="309" y="-137"/>
      <point x="309" y="-155" type="curve" smooth="yes"/>
      <point x="309" y="-180"/>
      <point x="296" y="-191"/>
      <point x="112" y="-206" type="curve"/>
      <point x="113" y="-270" type="line"/>
      <point x="375" y="-248"/>
      <point x="405" y="-208"/>
      <point x="405" y="-140" type="curve" smooth="yes"/>
      <point x="405" y="-101"/>
      <point x="375" y="-73"/>
      <point x="282" y="-62" type="curve"/>
      <point x="311" y="-13" type="line"/>
      <point x="312" y="-13" type="line" smooth="yes"/>
      <point x="470" y="-13"/>
      <point x="551" y="68"/>
      <point x="551" y="186" type="curve" smooth="yes"/>
      <point x="551" y="273"/>
      <point x="519" y="311"/>
      <point x="403" y="373" type="curve" smooth="yes"/>
      <point x="351" y="401" type="line" smooth="yes"/>
      <point x="298" y="430"/>
      <point x="283" y="449"/>
      <point x="283" y="476" type="curve" smooth="yes"/>
      <point x="283" y="516"/>
      <point x="311" y="541"/>
      <point x="386" y="541" type="curve" smooth="yes"/>
      <point x="442" y="541"/>
      <point x="507" y="527"/>
      <point x="590" y="500" type="curve"/>
      <point x="627" y="622" type="line"/>
      <point x="545" y="647"/>
      <point x="477" y="664"/>
      <point x="390" y="664" type="curve" smooth="yes"/>
      <point x="225" y="664"/>
      <point x="139" y="578"/>
      <point x="139" y="468" type="curve" smooth="yes"/>
      <point x="139" y="385"/>
      <point x="174" y="337"/>
      <point x="268" y="287" type="curve" smooth="yes"/>
      <point x="320" y="259" type="line" smooth="yes"/>
      <point x="397" y="218"/>
      <point x="406" y="201"/>
      <point x="406" y="170" type="curve" smooth="yes"/>
      <point x="406" y="131"/>
      <point x="380" y="111"/>
    </contour>
  </outline>
</glyph>
<glyph name="scedilla" format="2">
  <advance width="614"/>
  <unicode hex="015F"/>
  <outline>
    <contour>
      <point x="521" y="148" type="curve" smooth="yes"/>
      <point x="521" y="220"/>
      <point x="492" y="250"/>
      <point x="368" y="289" type="curve" smooth="yes"/>
      <point x="305" y="309" type="line" smooth="yes"/>
      <point x="264" y="322"/>
      <point x="252" y="324"/>
      <point x="252" y="346" type="curve" smooth="yes"/>
      <point x="252" y="367"/>
      <point x="274" y="378"/>
      <point x="360" y="378" type="curve" smooth="yes"/>
      <point x="397" y="378"/>
      <point x="459" y="372"/>
      <point x="539" y="359" type="curve"/>
      <point x="572" y="475" type="line"/>
      <point x="492" y="487"/>
      <point x="414" y="491"/>
      <point x="365" y="491" type="curve" smooth="yes"/>
      <point x="179" y="491"/>
      <point x="104" y="430"/>
      <point x="104" y="338" type="curve" smooth="yes"/>
      <point x="104" y="267"/>
      <point x="132" y="235"/>
      <point x="250" y="199" type="curve" smooth="yes"/>
      <point x="316" y="179" type="line" smooth="yes"/>
      <point x="362" y="165"/>
      <point x="374" y="159"/>
      <point x="374" y="137" type="curve" smooth="yes"/>
      <point x="374" y="115"/>
      <point x="349" y="99"/>
      <point x="258" y="99" type="curve" smooth="yes"/>
      <point x="216" y="99"/>
      <point x="133" y="107"/>
      <point x="34" y="123" type="curve"/>
      <point x="8" y="6" type="line"/>
      <point x="71" y="-3"/>
      <point x="124" y="-10"/>
      <point x="189" y="-13" type="curve"/>
      <point x="128" y="-112" type="line"/>
      <point x="131" y="-122" type="line"/>
      <point x="220" y="-126"/>
      <point x="249" y="-137"/>
      <point x="249" y="-155" type="curve" smooth="yes"/>
      <point x="249" y="-180"/>
      <point x="236" y="-191"/>
      <point x="52" y="-206" type="curve"/>
      <point x="53" y="-270" type="line"/>
      <point x="315" y="-248"/>
      <point x="345" y="-208"/>
      <point x="345" y="-140" type="curve" smooth="yes"/>
      <point x="345" y="-101"/>
      <point x="315" y="-73"/>
      <point x="222" y="-62" type="curve"/>
      <point x="250" y="-14" type="line"/>
      <point x="253" y="-14" type="line" smooth="yes"/>
      <point x="430" y="-14"/>
      <point x="521" y="59"/>
    </contour>
  </outline>
</glyph>
<glyph name="Tcedilla" format="2">
  <advance width="614"/>
  <unicode hex="0162"/>
  <outline>
    <contour>
      <point x="120" y="535" type="line"/>
      <point x="317" y="535" type="line"/>
      <point x="163" y="0" type="line"/>
      <point x="204" y="0" type="line"/>
      <point x="139" y="-106" type="line"/>
      <point x="142" y="-116" type="line"/>
      <point x="231" y="-120"/>
      <point x="260" y="-131"/>
      <point x="260" y="-149" type="curve" smooth="yes"/>
      <point x="260" y="-174"/>
      <point x="247" y="-185"/>
      <point x="63" y="-200" type="curve"/>
      <point x="64" y="-264" type="line"/>
      <point x="326" y="-242"/>
      <point x="356" y="-202"/>
      <point x="356" y="-134" type="curve" smooth="yes"/>
      <point x="356" y="-95"/>
      <point x="326" y="-67"/>
      <point x="233" y="-56" type="curve"/>
      <point x="266" y="0" type="line"/>
      <point x="307" y="0" type="line"/>
      <point x="461" y="535" type="line"/>
      <point x="656" y="535" type="line"/>
      <point x="691" y="655" type="line"/>
      <point x="155" y="655" type="line"/>
    </contour>
  </outline>
</glyph>
<glyph name="tcedilla" format="2">
  <advance width="614"/>
  <unicode hex="0163"/>
  <outline>
    <contour>
      <point x="231" y="22" type="curve"/>
      <point x="153" y="-107" type="line"/>
      <point x="156" y="-117" type="line"/>
      <point x="245" y="-121"/>
      <point x="274" y="-132"/>
      <point x="274" y="-150" type="curve" smooth="yes"/>
      <point x="274" y="-175"/>
      <point x="261" y="-186"/>
      <point x="77" y="-201" type="curve"/>
      <point x="78" y="-265" type="line"/>
      <point x="340" y="-243"/>
      <point x="370" y="-203"/>
      <point x="370" y="-135" type="curve" smooth="yes"/>
      <point x="370" y="-96"/>
      <point x="340" y="-68"/>
      <point x="247" y="-57" type="curve"/>
      <point x="284" y="6" type="line"/>
      <point x="303" y="2"/>
      <point x="324" y="0"/>
      <point x="348" y="-1" type="curve" smooth="yes"/>
      <point x="456" y="-5" type="line"/>
      <point x="491" y="119" type="line"/>
      <point x="374" y="128" type="line" smooth="yes"/>
      <point x="329" y="131"/>
      <point x="314" y="148"/>
      <point x="314" y="177" type="curve" smooth="yes"/>
      <point x="314" y="194"/>
      <point x="321" y="218"/>
      <point x="334" y="250" type="curve" smooth="yes"/>
      <point x="375" y="355" type="line"/>
      <point x="553" y="355" type="line"/>
      <point x="588" y="477" type="line"/>
      <point x="422" y="477" type="line"/>
      <point x="485" y="640" type="line"/>
      <point x="346" y="640" type="line"/>
      <point x="280" y="477" type="line"/>
      <point x="113" y="477" type="line"/>
      <point x="78" y="355" type="line"/>
      <point x="231" y="355" type="line"/>
      <point x="190" y="254" type="line" smooth="yes"/>
      <point x="163" y="188"/>
      <point x="162" y="163"/>
      <point x="162" y="137" type="curve" smooth="yes"/>
      <point x="162" y="87"/>
      <point x="179" y="48"/>
    </contour>
  </outline>
</glyph>
<glyph name="tbar" format="2">
  <advance width="614"/>
  <unicode hex="0167"/>
  <outline>
    <contour>
      <point x="96" y="206" type="line"/>
      <point x="173" y="206" type="line"/>
      <point x="163" y="173"/>
      <point x="162" y="156"/>
      <point x="162" y="137" type="curve" smooth="yes"/>
      <point x="162" y="62"/>
      <point x="204" y="4"/>
      <point x="348" y="-1" type="curve" smooth="yes"/>
      <point x="456" y="-5" type="line"/>
      <point x="488" y="109" type="line"/>
      <point x="371" y="118" type="line" smooth="yes"/>
      <point x="326" y="121"/>
      <point x="311" y="138"/>
      <point x="311" y="173" type="curve" smooth="yes"/>
      <point x="311" y="182"/>
      <point x="313" y="192"/>
      <point x="318" y="206" type="curve"/>
      <point x="446" y="206" type="line"/>
      <point x="468" y="282" type="line"/>
      <point x="347" y="282" type="line"/>
      <point x="379" y="365" type="line"/>
      <point x="557" y="365" type="line"/>
      <point x="588" y="477" type="line"/>
      <point x="422" y="477" type="line"/>
      <point x="485" y="640" type="line"/>
      <point x="346" y="640" type="line"/>
      <point x="280" y="477" type="line"/>
      <point x="113" y="477" type="line"/>
      <point x="82" y="365" type="line"/>
      <point x="235" y="365" type="line"/>
      <point x="201" y="282" type="line"/>
      <point x="118" y="282" type="line"/>
    </contour>
  </outline>
</glyph>
<glyph name="Uogonek" format="2">
  <advance width="614"/>
  <unicode hex="0172"/>
  <outline>
    <contour>
      <point x="70" y="-172" type="curve" smooth="yes"/>
      <point x="70" y="-211"/>
      <point x="96" y="-233"/>
      <point x="171" y="-236" type="curve" smooth="yes"/>
      <point x="243" y="-239" type="line"/>
      <point x="280" y="-146" type="line"/>
      <point x="226" y="-142" type="line" smooth="yes"/>
      <point x="200" y="-140"/>
      <point x="192" y="-135"/>
      <point x="192" y="-123" type="curve" smooth="yes"/>
      <point x="192" y="-106"/>
      <point x="198" y="-93"/>
      <point x="272" y="-15" type="curve"/>
      <point x="407" y="-15"/>
      <point x="493" y="50"/>
      <point x="538" y="207" type="curve" smooth="yes"/>
      <point x="667" y="655" type="line"/>
      <point x="523" y="655" type="line"/>
      <point x="397" y="217" type="line" smooth="yes"/>
      <point x="377" y="147"/>
      <point x="340" y="119"/>
      <point x="287" y="119" type="curve" smooth="yes"/>
      <point x="236" y="119"/>
      <point x="205" y="141"/>
      <point x="205" y="189" type="curve" smooth="yes"/>
      <point x="205" y="203"/>
      <point x="207" y="218"/>
      <point x="211" y="234" type="curve" smooth="yes"/>
      <point x="332" y="655" type="line"/>
      <point x="187" y="655" type="line"/>
      <point x="83" y="296" type="line" smooth="yes"/>
      <point x="69" y="249"/>
      <point x="58" y="207"/>
      <point x="58" y="170" type="curve" smooth="yes"/>
      <point x="58" y="70"/>
      <point x="109" y="8"/>
      <point x="206" y="-10" type="curve"/>
      <point x="90" y="-104"/>
      <point x="70" y="-138"/>
    </contour>
  </outline>
</glyph>
<glyph name="uogonek" format="2">
  <advance width="614"/>
  <unicode hex="0173"/>
  <outline>
    <contour>
      <point x="233" y="-167" type="curve" smooth="yes"/>
      <point x="233" y="-206"/>
      <point x="259" y="-228"/>
      <point x="334" y="-231" type="curve" smooth="yes"/>
      <point x="406" y="-234" type="line"/>
      <point x="443" y="-141" type="line"/>
      <point x="389" y="-137" type="line" smooth="yes"/>
      <point x="363" y="-135"/>
      <point x="355" y="-130"/>
      <point x="355" y="-118" type="curve" smooth="yes"/>
      <point x="355" y="-100"/>
      <point x="362" y="-87"/>
      <point x="444" y="0" type="curve"/>
      <point x="468" y="0" type="line"/>
      <point x="605" y="477" type="line"/>
      <point x="460" y="477" type="line"/>
      <point x="389" y="229" type="line"/>
      <point x="274" y="137"/>
      <point x="248" y="126"/>
      <point x="223" y="126" type="curve" smooth="yes"/>
      <point x="206" y="126"/>
      <point x="197" y="135"/>
      <point x="197" y="152" type="curve" smooth="yes"/>
      <point x="197" y="159"/>
      <point x="198" y="167"/>
      <point x="201" y="177" type="curve" smooth="yes"/>
      <point x="287" y="477" type="line"/>
      <point x="142" y="477" type="line"/>
      <point x="48" y="150" type="line" smooth="yes"/>
      <point x="41" y="126"/>
      <point x="38" y="105"/>
      <point x="38" y="85" type="curve" smooth="yes"/>
      <point x="38" y="24"/>
      <point x="74" y="-11"/>
      <point x="144" y="-11" type="curve" smooth="yes"/>
      <point x="203" y="-11"/>
      <point x="248" y="8"/>
      <point x="360" y="93" type="curve"/>
      <point x="342" y="0" type="line"/>
      <point x="375" y="0" type="line"/>
      <point x="254" y="-97"/>
      <point x="233" y="-132"/>
    </contour>
  </outline>
</glyph>
<glyph name="Schwa" format="2">
  <advance width="614"/>
  <unicode hex="018F"/>
  <outline>
    <contour>
      <point x="586" y="280" type="curve" smooth="yes"/>
      <point x="604" y="343"/>
      <point x="614" y="400"/>
      <point x="614" y="450" type="curve" smooth="yes"/>
      <point x="614" y="584"/>
      <point x="533" y="665"/>
      <point x="366" y="665" type="curve" smooth="yes"/>
      <point x="328" y="665"/>
      <point x="313" y="663"/>
      <point x="264" y="655" type="curve"/>
      <point x="222" y="536" type="line"/>
      <point x="269" y="543"/>
      <point x="304" y="545"/>
      <point x="332" y="545" type="curve" smooth="yes"/>
      <point x="422" y="545"/>
      <point x="465" y="520"/>
      <point x="465" y="444" type="curve" smooth="yes"/>
      <point x="465" y="428"/>
      <point x="463" y="410"/>
      <point x="460" y="389" type="curve"/>
      <point x="100" y="389" type="line"/>
      <point x="66" y="309"/>
      <point x="45" y="225"/>
      <point x="45" y="155" type="curve" smooth="yes"/>
      <point x="45" y="43"/>
      <point x="124" y="-15"/>
      <point x="249" y="-15" type="curve" smooth="yes"/>
      <point x="426" y="-15"/>
      <point x="530" y="86"/>
    </contour>
    <contour>
      <point x="189" y="177" type="curve" smooth="yes"/>
      <point x="189" y="204"/>
      <point x="196" y="240"/>
      <point x="209" y="278" type="curve"/>
      <point x="429" y="278" type="line"/>
      <point x="382" y="139"/>
      <point x="333" y="105"/>
      <point x="260" y="105" type="curve" smooth="yes"/>
      <point x="215" y="105"/>
      <point x="189" y="126"/>
    </contour>
  </outline>
</glyph>
<glyph name="uhorn" format="2">
  <advance width="614"/>
  <unicode hex="01B0"/>
  <anchor x="387" y="502" name="aboveLC"/>
  <anchor x="239" y="-35" name="below"/>
  <anchor x="377" y="467" name="aboveLCx"/>
  <outline>
    <contour>
      <point x="342" y="0" type="line"/>
      <point x="468" y="0" type="line"/>
      <point x="582" y="396" type="line"/>
      <point x="661" y="396"/>
      <point x="726" y="452"/>
      <point x="768" y="589" type="curve"/>
      <point x="640" y="589" type="line"/>
      <point x="612" y="507"/>
      <point x="583" y="477"/>
      <point x="512" y="477" type="curve" smooth="yes"/>
      <point x="460" y="477" type="line"/>
      <point x="389" y="229" type="line"/>
      <point x="274" y="137"/>
      <point x="248" y="126"/>
      <point x="223" y="126" type="curve" smooth="yes"/>
      <point x="206" y="126"/>
      <point x="197" y="135"/>
      <point x="197" y="152" type="curve" smooth="yes"/>
      <point x="197" y="159"/>
      <point x="198" y="167"/>
      <point x="201" y="177" type="curve" smooth="yes"/>
      <point x="287" y="477" type="line"/>
      <point x="142" y="477" type="line"/>
      <point x="48" y="150" type="line" smooth="yes"/>
      <point x="41" y="126"/>
      <point x="38" y="105"/>
      <point x="38" y="85" type="curve" smooth="yes"/>
      <point x="38" y="24"/>
      <point x="74" y="-11"/>
      <point x="144" y="-11" type="curve" smooth="yes"/>
      <point x="203" y="-11"/>
      <point x="248" y="8"/>
      <point x="360" y="93" type="curve"/>
    </contour>
  </outline>
</glyph>
<glyph name="Oogonek" format="2">
  <advance width="614"/>
  <unicode hex="01EA"/>
  <outline>
    <contour>
      <point x="80" y="-172" type="curve" smooth="yes"/>
      <point x="80" y="-211"/>
      <point x="106" y="-233"/>
      <point x="181" y="-236" type="curve" smooth="yes"/>
      <point x="253" y="-239" type="line"/>
      <point x="290" y="-146" type="line"/>
      <point x="236" y="-142" type="line" smooth="yes"/>
      <point x="210" y="-140"/>
      <point x="202" y="-135"/>
      <point x="202" y="-123" type="curve" smooth="yes"/>
      <point x="202" y="-106"/>
      <point x="208" y="-93"/>
      <point x="282" y="-15" type="curve"/>
      <point x="426" y="-10"/>
      <point x="541" y="88"/>
      <point x="599" y="292" type="curve" smooth="yes"/>
      <point x="622" y="376"/>
      <point x="623" y="407"/>
      <point x="623" y="463" type="curve" smooth="yes"/>
      <point x="623" y="598"/>
      <point x="548" y="670"/>
      <point x="407" y="670" type="curve" smooth="yes"/>
      <point x="257" y="670"/>
      <point x="138" y="573"/>
      <point x="78" y="363" type="curve" smooth="yes"/>
      <point x="55" y="279"/>
      <point x="54" y="248"/>
      <point x="54" y="192" type="curve" smooth="yes"/>
      <point x="54" y="76"/>
      <point x="110" y="6"/>
      <point x="215" y="-11" type="curve"/>
      <point x="100" y="-104"/>
      <point x="80" y="-138"/>
    </contour>
    <contour>
      <point x="279" y="105" type="curve" smooth="yes"/>
      <point x="230" y="105"/>
      <point x="201" y="133"/>
      <point x="201" y="198" type="curve" smooth="yes"/>
      <point x="201" y="242"/>
      <point x="209" y="286"/>
      <point x="226" y="345" type="curve" smooth="yes"/>
      <point x="272" y="505"/>
      <point x="335" y="550"/>
      <point x="397" y="550" type="curve" smooth="yes"/>
      <point x="447" y="550"/>
      <point x="476" y="522"/>
      <point x="476" y="457" type="curve" smooth="yes"/>
      <point x="476" y="413"/>
      <point x="468" y="369"/>
      <point x="451" y="310" type="curve" smooth="yes"/>
      <point x="405" y="150"/>
      <point x="342" y="105"/>
    </contour>
  </outline>
</glyph>
<glyph name="oogonek" format="2">
  <advance width="614"/>
  <unicode hex="01EB"/>
  <outline>
    <contour>
      <point x="77" y="-172" type="curve" smooth="yes"/>
      <point x="77" y="-211"/>
      <point x="103" y="-233"/>
      <point x="178" y="-236" type="curve" smooth="yes"/>
      <point x="250" y="-239" type="line"/>
      <point x="287" y="-146" type="line"/>
      <point x="233" y="-142" type="line" smooth="yes"/>
      <point x="207" y="-140"/>
      <point x="199" y="-135"/>
      <point x="199" y="-123" type="curve" smooth="yes"/>
      <point x="199" y="-106"/>
      <point x="205" y="-93"/>
      <point x="279" y="-14" type="curve"/>
      <point x="444" y="-4"/>
      <point x="575" y="118"/>
      <point x="575" y="286" type="curve" smooth="yes"/>
      <point x="575" y="412"/>
      <point x="483" y="492"/>
      <point x="356" y="492" type="curve" smooth="yes"/>
      <point x="182" y="492"/>
      <point x="39" y="366"/>
      <point x="39" y="191" type="curve" smooth="yes"/>
      <point x="39" y="81"/>
      <point x="109" y="6"/>
      <point x="212" y="-11" type="curve"/>
      <point x="97" y="-104"/>
      <point x="77" y="-138"/>
    </contour>
    <contour>
      <point x="284" y="104" type="curve" smooth="yes"/>
      <point x="226" y="104"/>
      <point x="189" y="142"/>
      <point x="189" y="200" type="curve" smooth="yes"/>
      <point x="189" y="287"/>
      <point x="248" y="373"/>
      <point x="330" y="373" type="curve" smooth="yes"/>
      <point x="388" y="373"/>
      <point x="425" y="335"/>
      <point x="425" y="277" type="curve" smooth="yes"/>
      <point x="425" y="190"/>
      <point x="366" y="104"/>
    </contour>
  </outline>
</glyph>
<glyph name="schwa" format="2">
  <advance width="614"/>
  <unicode hex="0259"/>
  <outline>
    <contour>
      <point x="567" y="304" type="curve" smooth="yes"/>
      <point x="567" y="436"/>
      <point x="509" y="492"/>
      <point x="216" y="492" type="curve"/>
      <point x="183" y="376" type="line"/>
      <point x="371" y="376"/>
      <point x="414" y="366"/>
      <point x="421" y="310" type="curve"/>
      <point x="268" y="297" type="line" smooth="yes"/>
      <point x="99" y="283"/>
      <point x="32" y="226"/>
      <point x="32" y="131" type="curve" smooth="yes"/>
      <point x="32" y="43"/>
      <point x="99" y="-13"/>
      <point x="224" y="-13" type="curve" smooth="yes"/>
      <point x="424" y="-13"/>
      <point x="567" y="155"/>
    </contour>
    <contour>
      <point x="242" y="100" type="curve" smooth="yes"/>
      <point x="198" y="100"/>
      <point x="174" y="118"/>
      <point x="174" y="146" type="curve" smooth="yes"/>
      <point x="174" y="177"/>
      <point x="196" y="196"/>
      <point x="268" y="204" type="curve" smooth="yes"/>
      <point x="412" y="220" type="line"/>
      <point x="385" y="150"/>
      <point x="315" y="100"/>
    </contour>
  </outline>
</glyph>
<glyph name="ringhalfright" format="2">
  <advance width="614"/>
  <unicode hex="02BE"/>
  <outline>
    <contour>
      <point x="218" y="315" type="line"/>
      <point x="350" y="315"/>
      <point x="438" y="345"/>
      <point x="490" y="397" type="curve" smooth="yes"/>
      <point x="532" y="439"/>
      <point x="550" y="494"/>
      <point x="550" y="559" type="curve" smooth="yes"/>
      <point x="550" y="657"/>
      <point x="483" y="725"/>
      <point x="336" y="725" type="curve"/>
      <point x="307" y="625" type="line"/>
      <point x="398" y="625"/>
      <point x="430" y="598"/>
      <point x="430" y="553" type="curve" smooth="yes"/>
      <point x="430" y="483"/>
      <point x="399" y="415"/>
      <point x="247" y="415" type="curve"/>
    </contour>
  </outline>
</glyph>
<glyph name="acutecmb" format="2">
  <unicode hex="0301"/>
  <anchor x="76" y="502" name="_aboveLC"/>
  <anchor x="67" y="472" name="_aboveLCx"/>
  <outline>
    <contour>
      <point x="-3" y="626" type="line"/>
      <point x="30" y="553" type="line"/>
      <point x="303" y="668" type="line"/>
      <point x="267" y="756" type="line"/>
    </contour>
  </outline>
</glyph>
<glyph name="tildecmb" format="2">
  <unicode hex="0303"/>
  <anchor x="76" y="502" name="_aboveLC"/>
  <anchor x="67" y="472" name="_aboveLCx"/>
  <outline>
    <contour>
      <point x="88" y="608" type="curve" smooth="yes"/>
      <point x="127" y="563"/>
      <point x="147" y="553"/>
      <point x="170" y="553" type="curve" smooth="yes"/>
      <point x="207" y="553"/>
      <point x="243" y="564"/>
      <point x="338" y="716" type="curve"/>
      <point x="266" y="759" type="line"/>
      <point x="210" y="668"/>
      <point x="196" y="657"/>
      <point x="185" y="657" type="curve" smooth="yes"/>
      <point x="176" y="657"/>
      <point x="171" y="662"/>
      <point x="139" y="698" type="curve" smooth="yes"/>
      <point x="100" y="743"/>
      <point x="80" y="753"/>
      <point x="57" y="753" type="curve" smooth="yes"/>
      <point x="20" y="753"/>
      <point x="-16" y="742"/>
      <point x="-111" y="590" type="curve"/>
      <point x="-39" y="547" type="line"/>
      <point x="17" y="638"/>
      <point x="31" y="649"/>
      <point x="42" y="649" type="curve" smooth="yes"/>
      <point x="51" y="649"/>
      <point x="56" y="644"/>
    </contour>
  </outline>
</glyph>
<glyph name="macroncmb" format="2">
  <unicode hex="0304"/>
  <anchor x="76" y="502" name="_aboveLC"/>
  <anchor x="67" y="472" name="_aboveLCx"/>
  <outline>
    <contour>
      <point x="-69" y="593" type="line"/>
      <point x="273" y="593" type="line"/>
      <point x="301" y="691" type="line"/>
      <point x="-41" y="691" type="line"/>
    </contour>
  </outline>
</glyph>
<glyph name="brevecmb" format="2">
  <unicode hex="0306"/>
  <anchor x="76" y="502" name="_aboveLC"/>
  <anchor x="67" y="472" name="_aboveLCx"/>
  <outline>
    <contour>
      <point x="105" y="648" type="curve" smooth="yes"/>
      <point x="62" y="648"/>
      <point x="26" y="671"/>
      <point x="21" y="755" type="curve"/>
      <point x="-60" y="731" type="line"/>
      <point x="-60" y="602"/>
      <point x="17" y="553"/>
      <point x="99" y="553" type="curve" smooth="yes"/>
      <point x="181" y="553"/>
      <point x="262" y="592"/>
      <point x="333" y="719" type="curve"/>
      <point x="249" y="755" type="line"/>
      <point x="198" y="672"/>
      <point x="148" y="648"/>
    </contour>
  </outline>
</glyph>
<glyph name="dieresiscmb" format="2">
  <unicode hex="0308"/>
  <anchor x="76" y="502" name="_aboveLC"/>
  <anchor x="67" y="472" name="_aboveLCx"/>
  <outline>
    <contour>
      <point x="-10" y="573" type="curve" smooth="yes"/>
      <point x="39" y="573"/>
      <point x="80" y="609"/>
      <point x="80" y="664" type="curve" smooth="yes"/>
      <point x="80" y="700"/>
      <point x="52" y="715"/>
      <point x="15" y="715" type="curve" smooth="yes"/>
      <point x="-46" y="715"/>
      <point x="-76" y="664"/>
      <point x="-76" y="622" type="curve" smooth="yes"/>
      <point x="-76" y="588"/>
      <point x="-54" y="573"/>
    </contour>
    <contour>
      <point x="220" y="573" type="curve" smooth="yes"/>
      <point x="274" y="573"/>
      <point x="310" y="614"/>
      <point x="310" y="664" type="curve" smooth="yes"/>
      <point x="310" y="700"/>
      <point x="281" y="715"/>
      <point x="245" y="715" type="curve" smooth="yes"/>
      <point x="193" y="715"/>
      <point x="154" y="672"/>
      <point x="154" y="622" type="curve" smooth="yes"/>
      <point x="154" y="586"/>
      <point x="182" y="573"/>
    </contour>
  </outline>
</glyph>
<glyph name="ringcmb" format="2">
  <unicode hex="030A"/>
  <anchor x="76" y="502" name="_aboveLC"/>
  <anchor x="67" y="472" name="_aboveLCx"/>
  <outline>
    <contour>
      <point x="154" y="829" type="curve" smooth="yes"/>
      <point x="38" y="829"/>
      <point x="-33" y="752"/>
      <point x="-33" y="667" type="curve" smooth="yes"/>
      <point x="-33" y="592"/>
      <point x="33" y="553"/>
      <point x="107" y="553" type="curve" smooth="yes"/>
      <point x="223" y="553"/>
      <point x="294" y="630"/>
      <point x="294" y="715" type="curve" smooth="yes"/>
      <point x="294" y="790"/>
      <point x="228" y="829"/>
    </contour>
    <contour>
      <point x="125" y="633" type="curve"/>
      <point x="86" y="633"/>
      <point x="56" y="644"/>
      <point x="56" y="677" type="curve" smooth="yes"/>
      <point x="56" y="716"/>
      <point x="84" y="749"/>
      <point x="136" y="749" type="curve" smooth="yes"/>
      <point x="175" y="749"/>
      <point x="205" y="738"/>
      <point x="205" y="705" type="curve" smooth="yes"/>
      <point x="205" y="666"/>
      <point x="176" y="633"/>
    </contour>
  </outline>
</glyph>
<glyph name="caroncmb" format="2">
  <unicode hex="030C"/>
  <anchor x="76" y="502" name="_aboveLC"/>
  <anchor x="67" y="472" name="_aboveLCx"/>
  <outline>
    <contour>
      <point x="-63" y="712" type="line"/>
      <point x="59" y="553" type="line"/>
      <point x="121" y="553" type="line"/>
      <point x="314" y="701" type="line"/>
      <point x="276" y="758" type="line"/>
      <point x="106" y="655" type="line"/>
      <point x="-6" y="758" type="line"/>
    </contour>
  </outline>
</glyph>
<glyph name="commaaboverightcmb" format="2">
  <unicode hex="0315"/>
  <anchor x="136" y="710" name="_topright"/>
  <outline>
    <contour>
      <point x="71" y="486" type="line"/>
      <point x="167" y="486" type="line"/>
      <point x="256" y="710" type="line"/>
      <point x="136" y="710" type="line"/>
    </contour>
  </outline>
</glyph>
<glyph name="dotbelowcmb" format="2">
  <unicode hex="0323"/>
  <anchor x="-78" y="-35" name="_below"/>
  <anchor x="-69" y="-5" name="_belowx"/>
  <outline>
    <contour>
      <point x="-130" y="-247" type="curve" smooth="yes"/>
      <point x="-71" y="-247"/>
      <point x="-34" y="-202"/>
      <point x="-34" y="-150" type="curve" smooth="yes"/>
      <point x="-34" y="-115"/>
      <point x="-59" y="-96"/>
      <point x="-104" y="-96" type="curve" smooth="yes"/>
      <point x="-163" y="-96"/>
      <point x="-200" y="-144"/>
      <point x="-200" y="-194" type="curve" smooth="yes"/>
      <point x="-200" y="-233"/>
      <point x="-175" y="-247"/>
    </contour>
  </outline>
</glyph>
<glyph name="dieresisbelowcmb" format="2">
  <unicode hex="0324"/>
  <outline>
    <contour>
      <point x="-244" y="-238" type="curve" smooth="yes"/>
      <point x="-195" y="-238"/>
      <point x="-154" y="-202"/>
      <point x="-154" y="-147" type="curve" smooth="yes"/>
      <point x="-154" y="-111"/>
      <point x="-182" y="-96"/>
      <point x="-219" y="-96" type="curve" smooth="yes"/>
      <point x="-280" y="-96"/>
      <point x="-310" y="-147"/>
      <point x="-310" y="-189" type="curve" smooth="yes"/>
      <point x="-310" y="-223"/>
      <point x="-288" y="-238"/>
    </contour>
    <contour>
      <point x="-14" y="-238" type="curve" smooth="yes"/>
      <point x="40" y="-238"/>
      <point x="76" y="-197"/>
      <point x="76" y="-147" type="curve" smooth="yes"/>
      <point x="76" y="-111"/>
      <point x="47" y="-96"/>
      <point x="11" y="-96" type="curve" smooth="yes"/>
      <point x="-41" y="-96"/>
      <point x="-80" y="-139"/>
      <point x="-80" y="-189" type="curve" smooth="yes"/>
      <point x="-80" y="-225"/>
      <point x="-52" y="-238"/>
    </contour>
  </outline>
</glyph>
<glyph name="cedillacmb" format="2">
  <unicode hex="0327"/>
  <anchor x="-71" y="-10" name="_belowcedilla"/>
  <outline>
    <contour>
      <point x="-88" y="21" type="line"/>
      <point x="-166" y="-107" type="line"/>
      <point x="-163" y="-117" type="line"/>
      <point x="-74" y="-121"/>
      <point x="-45" y="-132"/>
      <point x="-45" y="-150" type="curve" smooth="yes"/>
      <point x="-45" y="-175"/>
      <point x="-58" y="-186"/>
      <point x="-242" y="-201" type="curve"/>
      <point x="-241" y="-265" type="line"/>
      <point x="21" y="-243"/>
      <point x="51" y="-203"/>
      <point x="51" y="-135" type="curve" smooth="yes"/>
      <point x="51" y="-96"/>
      <point x="21" y="-68"/>
      <point x="-72" y="-57" type="curve"/>
      <point x="-26" y="21" type="line"/>
    </contour>
  </outline>
</glyph>
<glyph name="brevebelowcmb" format="2">
  <unicode hex="032E"/>
  <anchor x="-78" y="-35" name="_below"/>
  <anchor x="-69" y="-5" name="_belowx"/>
  <outline>
    <contour>
      <point x="-135" y="-183" type="curve" smooth="yes"/>
      <point x="-178" y="-183"/>
      <point x="-214" y="-160"/>
      <point x="-219" y="-76" type="curve"/>
      <point x="-300" y="-100" type="line"/>
      <point x="-300" y="-229"/>
      <point x="-223" y="-278"/>
      <point x="-141" y="-278" type="curve" smooth="yes"/>
      <point x="-59" y="-278"/>
      <point x="22" y="-239"/>
      <point x="93" y="-112" type="curve"/>
      <point x="9" y="-76" type="line"/>
      <point x="-42" y="-159"/>
      <point x="-92" y="-183"/>
    </contour>
  </outline>
</glyph>
<glyph name="macronbelowcmb" format="2">
  <unicode hex="0331"/>
  <anchor x="-78" y="-35" name="_below"/>
  <anchor x="-69" y="-5" name="_belowx"/>
  <outline>
    <contour>
      <point x="-302" y="-214" type="line"/>
      <point x="40" y="-214" type="line"/>
      <point x="68" y="-116" type="line"/>
      <point x="-274" y="-116" type="line"/>
    </contour>
  </outline>
</glyph>
<glyph name="bahtthai" format="2">
  <advance width="614"/>
  <unicode hex="0E3F"/>
  <outline>
    <contour>
      <point x="247" y="-142" type="line"/>
      <point x="289" y="0" type="line"/>
      <point x="501" y="7"/>
      <point x="561" y="93"/>
      <point x="561" y="198" type="curve" smooth="yes"/>
      <point x="561" y="262"/>
      <point x="519" y="311"/>
      <point x="442" y="329" type="curve"/>
      <point x="442" y="333" type="line"/>
      <point x="578" y="359"/>
      <point x="640" y="429"/>
      <point x="640" y="523" type="curve" smooth="yes"/>
      <point x="640" y="598"/>
      <point x="586" y="652"/>
      <point x="477" y="655" type="curve"/>
      <point x="519" y="796" type="line"/>
      <point x="428" y="796" type="line"/>
      <point x="386" y="655" type="line"/>
      <point x="195" y="655" type="line"/>
      <point x="7" y="0" type="line"/>
      <point x="198" y="0" type="line"/>
      <point x="156" y="-142" type="line"/>
    </contour>
    <contour>
      <point x="410" y="545" type="line" smooth="yes"/>
      <point x="460" y="545"/>
      <point x="484" y="527"/>
      <point x="484" y="490" type="curve" smooth="yes"/>
      <point x="484" y="433"/>
      <point x="445" y="395"/>
      <point x="344" y="389" type="curve" smooth="yes"/>
      <point x="260" y="384" type="line"/>
      <point x="306" y="545" type="line"/>
    </contour>
    <contour>
      <point x="307" y="279" type="line" smooth="yes"/>
      <point x="390" y="273"/>
      <point x="417" y="250"/>
      <point x="417" y="204" type="curve" smooth="yes"/>
      <point x="417" y="149"/>
      <point x="382" y="109"/>
      <point x="285" y="109" type="curve" smooth="yes"/>
      <point x="181" y="109" type="line"/>
      <point x="232" y="284" type="line"/>
    </contour>
  </outline>
</glyph>
<glyph name="Hcedilla" format="2">
  <advance width="614"/>
  <unicode hex="1E28"/>
  <outline>
    <contour>
      <point x="195" y="655" type="line"/>
      <point x="7" y="0" type="line"/>
      <point x="44" y="0" type="line"/>
      <point x="-21" y="-107" type="line"/>
      <point x="-18" y="-117" type="line"/>
      <point x="71" y="-121"/>
      <point x="100" y="-132"/>
      <point x="100" y="-150" type="curve" smooth="yes"/>
      <point x="100" y="-175"/>
      <point x="87" y="-186"/>
      <point x="-97" y="-201" type="curve"/>
      <point x="-96" y="-265" type="line"/>
      <point x="166" y="-243"/>
      <point x="196" y="-203"/>
      <point x="196" y="-135" type="curve" smooth="yes"/>
      <point x="196" y="-96"/>
      <point x="166" y="-68"/>
      <point x="73" y="-57" type="curve"/>
      <point x="107" y="0" type="line"/>
      <point x="151" y="0" type="line"/>
      <point x="228" y="270" type="line"/>
      <point x="404" y="270" type="line"/>
      <point x="327" y="0" type="line"/>
      <point x="471" y="0" type="line"/>
      <point x="659" y="655" type="line"/>
      <point x="515" y="655" type="line"/>
      <point x="439" y="390" type="line"/>
      <point x="263" y="390" type="line"/>
      <point x="339" y="655" type="line"/>
    </contour>
  </outline>
</glyph>
<glyph name="hcedilla" format="2">
  <advance width="614"/>
  <unicode hex="1E29"/>
  <outline>
    <contour>
      <point x="359" y="710" type="line"/>
      <point x="214" y="710" type="line"/>
      <point x="10" y="0" type="line"/>
      <point x="47" y="0" type="line"/>
      <point x="-18" y="-107" type="line"/>
      <point x="-15" y="-117" type="line"/>
      <point x="74" y="-121"/>
      <point x="103" y="-132"/>
      <point x="103" y="-150" type="curve" smooth="yes"/>
      <point x="103" y="-175"/>
      <point x="90" y="-186"/>
      <point x="-94" y="-201" type="curve"/>
      <point x="-93" y="-265" type="line"/>
      <point x="169" y="-243"/>
      <point x="199" y="-203"/>
      <point x="199" y="-135" type="curve" smooth="yes"/>
      <point x="199" y="-96"/>
      <point x="169" y="-68"/>
      <point x="76" y="-57" type="curve"/>
      <point x="110" y="0" type="line"/>
      <point x="155" y="0" type="line"/>
      <point x="226" y="248" type="line"/>
      <point x="341" y="340"/>
      <point x="367" y="351"/>
      <point x="392" y="351" type="curve" smooth="yes"/>
      <point x="409" y="351"/>
      <point x="418" y="342"/>
      <point x="418" y="324" type="curve" smooth="yes"/>
      <point x="418" y="317"/>
      <point x="417" y="309"/>
      <point x="414" y="300" type="curve" smooth="yes"/>
      <point x="328" y="0" type="line"/>
      <point x="473" y="0" type="line"/>
      <point x="567" y="327" type="line" smooth="yes"/>
      <point x="574" y="351"/>
      <point x="577" y="372"/>
      <point x="577" y="391" type="curve" smooth="yes"/>
      <point x="577" y="453"/>
      <point x="542" y="488"/>
      <point x="471" y="488" type="curve" smooth="yes"/>
      <point x="415" y="488"/>
      <point x="370" y="470"/>
      <point x="268" y="394" type="curve"/>
    </contour>
  </outline>
</glyph>
<glyph name="uni1E9E" format="2">
  <advance width="614"/>
  <unicode hex="1E9E"/>
  <outline>
    <contour>
      <point x="343" y="296" type="line"/>
      <point x="416" y="223"/>
      <point x="435" y="194"/>
      <point x="435" y="171" type="curve" smooth="yes"/>
      <point x="435" y="140"/>
      <point x="419" y="108"/>
      <point x="362" y="108" type="curve" smooth="yes"/>
      <point x="334" y="108"/>
      <point x="314" y="110"/>
      <point x="288" y="115" type="curve"/>
      <point x="260" y="3" type="line"/>
      <point x="290" y="-3"/>
      <point x="309" y="-6"/>
      <point x="349" y="-6" type="curve" smooth="yes"/>
      <point x="495" y="-6"/>
      <point x="575" y="67"/>
      <point x="575" y="176" type="curve" smooth="yes"/>
      <point x="574" y="221"/>
      <point x="558" y="253"/>
      <point x="487" y="323" type="curve"/>
      <point x="650" y="556" type="line"/>
      <point x="650" y="582" type="line"/>
      <point x="583" y="640"/>
      <point x="490" y="670"/>
      <point x="402" y="670" type="curve" smooth="yes"/>
      <point x="249" y="670"/>
      <point x="173" y="607"/>
      <point x="128" y="451" type="curve" smooth="yes"/>
      <point x="-1" y="0" type="line"/>
      <point x="143" y="0" type="line"/>
      <point x="267" y="433" type="line" smooth="yes"/>
      <point x="291" y="515"/>
      <point x="339" y="550"/>
      <point x="408" y="550" type="curve" smooth="yes"/>
      <point x="438" y="550"/>
      <point x="463" y="546"/>
      <point x="491" y="531" type="curve"/>
      <point x="354" y="336" type="line"/>
    </contour>
  </outline>
</glyph>
<glyph name="emdash" format="2">
  <advance width="614"/>
  <unicode hex="2014"/>
  <outline>
    <contour>
      <point x="82" y="348" type="line"/>
      <point x="40" y="204" type="line"/>
      <point x="554" y="204" type="line"/>
      <point x="596" y="348" type="line"/>
    </contour>
  </outline>
</glyph>
<glyph name="quoteright" format="2">
  <advance width="614"/>
  <unicode hex="2019"/>
  <outline>
    <contour>
      <point x="155" y="381" type="line"/>
      <point x="286" y="381" type="line"/>
      <point x="437" y="469"/>
      <point x="526" y="564"/>
      <point x="598" y="710" type="curve"/>
      <point x="383" y="710" type="line"/>
      <point x="332" y="580"/>
      <point x="287" y="509"/>
      <point x="156" y="383" type="curve"/>
    </contour>
  </outline>
</glyph>
<glyph name="dagger" format="2">
  <advance width="614"/>
  <unicode hex="2020"/>
  <outline>
    <contour>
      <point x="591" y="419" type="curve"/>
      <point x="624" y="533" type="line"/>
      <point x="556" y="533"/>
      <point x="478" y="503"/>
      <point x="407" y="496" type="curve"/>
      <point x="434" y="568"/>
      <point x="485" y="640"/>
      <point x="505" y="710" type="curve"/>
      <point x="381" y="710" type="line"/>
      <point x="361" y="640"/>
      <point x="372" y="567"/>
      <point x="357" y="496" type="curve"/>
      <point x="289" y="502"/>
      <point x="225" y="533"/>
      <point x="160" y="533" type="curve"/>
      <point x="127" y="419" type="line"/>
      <point x="191" y="419"/>
      <point x="275" y="452"/>
      <point x="347" y="459" type="curve"/>
      <point x="301" y="306"/>
      <point x="220" y="152"/>
      <point x="177" y="0" type="curve"/>
      <point x="301" y="0" type="line"/>
      <point x="344" y="152"/>
      <point x="354" y="306"/>
      <point x="395" y="459" type="curve"/>
      <point x="462" y="452"/>
      <point x="523" y="419"/>
    </contour>
  </outline>
</glyph>
<glyph name="daggerdbl" format="2">
  <advance width="614"/>
  <unicode hex="2021"/>
  <outline>
    <contour>
      <point x="507" y="179" type="curve"/>
      <point x="540" y="293" type="line"/>
      <point x="476" y="293"/>
      <point x="403" y="263"/>
      <point x="337" y="256" type="curve"/>
      <point x="395" y="459" type="line"/>
      <point x="463" y="452"/>
      <point x="526" y="419"/>
      <point x="591" y="419" type="curve"/>
      <point x="624" y="533" type="line"/>
      <point x="557" y="533"/>
      <point x="478" y="503"/>
      <point x="407" y="496" type="curve"/>
      <point x="433" y="568"/>
      <point x="484" y="639"/>
      <point x="505" y="710" type="curve"/>
      <point x="381" y="710" type="line"/>
      <point x="360" y="639"/>
      <point x="372" y="567"/>
      <point x="357" y="496" type="curve"/>
      <point x="290" y="503"/>
      <point x="231" y="533"/>
      <point x="160" y="533" type="curve"/>
      <point x="127" y="419" type="line"/>
      <point x="196" y="419"/>
      <point x="276" y="452"/>
      <point x="347" y="459" type="curve"/>
      <point x="289" y="256" type="line"/>
      <point x="227" y="263"/>
      <point x="173" y="293"/>
      <point x="107" y="293" type="curve"/>
      <point x="74" y="179" type="line"/>
      <point x="140" y="179"/>
      <point x="212" y="211"/>
      <point x="278" y="219" type="curve"/>
      <point x="253" y="146"/>
      <point x="200" y="73"/>
      <point x="180" y="0" type="curve"/>
      <point x="298" y="0" type="line"/>
      <point x="318" y="72"/>
      <point x="310" y="146"/>
      <point x="327" y="218" type="curve"/>
      <point x="388" y="211"/>
      <point x="443" y="179"/>
    </contour>
  </outline>
</glyph>
<glyph name="ellipsis" format="2">
  <advance width="614"/>
  <unicode hex="2026"/>
  <outline>
    <contour>
      <point x="129" y="110" type="curve" smooth="yes"/>
      <point x="129" y="148"/>
      <point x="108" y="162"/>
      <point x="72" y="162" type="curve" smooth="yes"/>
      <point x="17" y="162"/>
      <point x="-17" y="97"/>
      <point x="-17" y="37" type="curve" smooth="yes"/>
      <point x="-17" y="-1"/>
      <point x="4" y="-15"/>
      <point x="40" y="-15" type="curve" smooth="yes"/>
      <point x="95" y="-15"/>
      <point x="129" y="50"/>
    </contour>
    <contour>
      <point x="334" y="110" type="curve" smooth="yes"/>
      <point x="334" y="148"/>
      <point x="313" y="162"/>
      <point x="277" y="162" type="curve" smooth="yes"/>
      <point x="222" y="162"/>
      <point x="188" y="97"/>
      <point x="188" y="37" type="curve" smooth="yes"/>
      <point x="188" y="-1"/>
      <point x="209" y="-15"/>
      <point x="245" y="-15" type="curve" smooth="yes"/>
      <point x="300" y="-15"/>
      <point x="334" y="50"/>
    </contour>
    <contour>
      <point x="539" y="110" type="curve" smooth="yes"/>
      <point x="539" y="148"/>
      <point x="518" y="162"/>
      <point x="482" y="162" type="curve" smooth="yes"/>
      <point x="427" y="162"/>
      <point x="393" y="97"/>
      <point x="393" y="37" type="curve" smooth="yes"/>
      <point x="393" y="-1"/>
      <point x="414" y="-15"/>
      <point x="450" y="-15" type="curve" smooth="yes"/>
      <point x="505" y="-15"/>
      <point x="539" y="50"/>
    </contour>
  </outline>
</glyph>
<glyph name="dong" format="2">
  <advance width="614"/>
  <unicode hex="20AB"/>
  <outline>
    <contour>
      <point x="343" y="-1" type="line"/>
      <point x="447" y="-1" type="line"/>
      <point x="587" y="488" type="line"/>
      <point x="665" y="488" type="line"/>
      <point x="687" y="565" type="line"/>
      <point x="609" y="565" type="line"/>
      <point x="635" y="655" type="line"/>
      <point x="490" y="655" type="line"/>
      <point x="464" y="565" type="line"/>
      <point x="337" y="565" type="line"/>
      <point x="315" y="488" type="line"/>
      <point x="442" y="488" type="line"/>
      <point x="416" y="398" type="line"/>
      <point x="385" y="404"/>
      <point x="352" y="407"/>
      <point x="319" y="407" type="curve" smooth="yes"/>
      <point x="147" y="407"/>
      <point x="27" y="296"/>
      <point x="27" y="149" type="curve" smooth="yes"/>
      <point x="27" y="43"/>
      <point x="107" y="-8"/>
      <point x="183" y="-8" type="curve" smooth="yes"/>
      <point x="233" y="-8"/>
      <point x="280" y="8"/>
      <point x="334" y="49" type="curve"/>
    </contour>
    <contour>
      <point x="180" y="174" type="curve" smooth="yes"/>
      <point x="180" y="242"/>
      <point x="235" y="305"/>
      <point x="332" y="305" type="curve" smooth="yes"/>
      <point x="351" y="305"/>
      <point x="370" y="302"/>
      <point x="387" y="296" type="curve"/>
      <point x="344" y="147" type="line"/>
      <point x="305" y="119"/>
      <point x="276" y="108"/>
      <point x="250" y="108" type="curve" smooth="yes"/>
      <point x="206" y="108"/>
      <point x="180" y="134"/>
    </contour>
    <contour>
      <point x="-63" y="-189" type="line"/>
      <point x="386" y="-189" type="line"/>
      <point x="412" y="-101" type="line"/>
      <point x="-37" y="-101" type="line"/>
    </contour>
  </outline>
</glyph>
<glyph name="Euro" format="2">
  <advance width="614"/>
  <unicode hex="20AC"/>
  <outline>
    <contour>
      <point x="29" y="205" type="line"/>
      <point x="121" y="205" type="line"/>
      <point x="120" y="194"/>
      <point x="119" y="182"/>
      <point x="119" y="171" type="curve" smooth="yes"/>
      <point x="119" y="65"/>
      <point x="182" y="-15"/>
      <point x="309" y="-15" type="curve" smooth="yes"/>
      <point x="372" y="-15"/>
      <point x="425" y="-8"/>
      <point x="487" y="5" type="curve"/>
      <point x="522" y="131" type="line"/>
      <point x="443" y="114"/>
      <point x="382" y="104"/>
      <point x="339" y="104" type="curve" smooth="yes"/>
      <point x="281" y="104"/>
      <point x="257" y="130"/>
      <point x="257" y="171" type="curve" smooth="yes"/>
      <point x="257" y="183"/>
      <point x="259" y="195"/>
      <point x="262" y="209" type="curve"/>
      <point x="419" y="209" type="line"/>
      <point x="441" y="285" type="line"/>
      <point x="283" y="285" type="line"/>
      <point x="307" y="370" type="line"/>
      <point x="465" y="370" type="line"/>
      <point x="487" y="446" type="line"/>
      <point x="329" y="446" type="line"/>
      <point x="352" y="507"/>
      <point x="393" y="548"/>
      <point x="466" y="548" type="curve" smooth="yes"/>
      <point x="510" y="548"/>
      <point x="563" y="538"/>
      <point x="632" y="521" type="curve"/>
      <point x="668" y="643" type="line"/>
      <point x="604" y="658"/>
      <point x="549" y="667"/>
      <point x="476" y="667" type="curve" smooth="yes"/>
      <point x="323" y="667"/>
      <point x="225" y="574"/>
      <point x="186" y="450" type="curve"/>
      <point x="99" y="450" type="line"/>
      <point x="76" y="370" type="line"/>
      <point x="163" y="370" type="line"/>
      <point x="139" y="285" type="line"/>
      <point x="52" y="285" type="line"/>
    </contour>
  </outline>
</glyph>
<glyph name="peso" format="2">
  <advance width="614"/>
  <unicode hex="20B1"/>
  <outline>
    <contour>
      <point x="68" y="399" type="line"/>
      <point x="145" y="399" type="line"/>
      <point x="30" y="0" type="line"/>
      <point x="175" y="0" type="line"/>
      <point x="236" y="213" type="line"/>
      <point x="267" y="213" type="line" smooth="yes"/>
      <point x="439" y="213"/>
      <point x="550" y="286"/>
      <point x="584" y="399" type="curve"/>
      <point x="645" y="399" type="line"/>
      <point x="667" y="475" type="line"/>
      <point x="595" y="475" type="line"/>
      <point x="595" y="477" type="line" smooth="yes"/>
      <point x="595" y="586"/>
      <point x="526" y="655"/>
      <point x="401" y="655" type="curve" smooth="yes"/>
      <point x="218" y="655" type="line"/>
      <point x="166" y="475" type="line"/>
      <point x="90" y="475" type="line"/>
    </contour>
    <contour>
      <point x="367" y="535" type="line" smooth="yes"/>
      <point x="426" y="535"/>
      <point x="448" y="515"/>
      <point x="448" y="477" type="curve" smooth="yes"/>
      <point x="448" y="396"/>
      <point x="397" y="330"/>
      <point x="304" y="330" type="curve" smooth="yes"/>
      <point x="269" y="330" type="line"/>
      <point x="328" y="535" type="line"/>
    </contour>
  </outline>
</glyph>
<glyph name="uni20BA" format="2">
  <advance width="614"/>
  <unicode hex="20BA"/>
  <outline>
    <contour>
      <point x="-3" y="131" type="line"/>
      <point x="80" y="175" type="line"/>
      <point x="30" y="0" type="line"/>
      <point x="232" y="0" type="line" smooth="yes"/>
      <point x="416" y="0"/>
      <point x="501" y="59"/>
      <point x="569" y="226" type="curve"/>
      <point x="453" y="264" type="line"/>
      <point x="407" y="161"/>
      <point x="354" y="119"/>
      <point x="264" y="119" type="curve" smooth="yes"/>
      <point x="209" y="119" type="line"/>
      <point x="247" y="252" type="line"/>
      <point x="466" y="359" type="line"/>
      <point x="490" y="442" type="line"/>
      <point x="271" y="333" type="line"/>
      <point x="297" y="425" type="line"/>
      <point x="517" y="535" type="line"/>
      <point x="541" y="619" type="line"/>
      <point x="321" y="509" type="line"/>
      <point x="363" y="655" type="line"/>
      <point x="218" y="655" type="line"/>
      <point x="154" y="433" type="line"/>
      <point x="72" y="391" type="line"/>
      <point x="48" y="307" type="line"/>
      <point x="130" y="349" type="line"/>
      <point x="104" y="257" type="line"/>
      <point x="21" y="215" type="line"/>
    </contour>
  </outline>
</glyph>
<glyph name="approxequal" format="2">
  <advance width="614"/>
  <unicode hex="2248"/>
  <outline>
    <contour>
      <point x="382" y="525" type="curve" smooth="yes"/>
      <point x="323" y="581"/>
      <point x="306" y="595"/>
      <point x="266" y="595" type="curve" smooth="yes"/>
      <point x="211" y="595"/>
      <point x="166" y="572"/>
      <point x="83" y="422" type="curve"/>
      <point x="183" y="363" type="line"/>
      <point x="234" y="448"/>
      <point x="247" y="461"/>
      <point x="259" y="461" type="curve" smooth="yes"/>
      <point x="272" y="461"/>
      <point x="280" y="455"/>
      <point x="331" y="407" type="curve" smooth="yes"/>
      <point x="390" y="351"/>
      <point x="407" y="337"/>
      <point x="447" y="337" type="curve" smooth="yes"/>
      <point x="507" y="337"/>
      <point x="551" y="368"/>
      <point x="648" y="542" type="curve"/>
      <point x="548" y="601" type="line"/>
      <point x="481" y="490"/>
      <point x="469" y="471"/>
      <point x="454" y="471" type="curve" smooth="yes"/>
      <point x="441" y="471"/>
      <point x="433" y="477"/>
    </contour>
    <contour>
      <point x="333" y="253" type="curve" smooth="yes"/>
      <point x="274" y="309"/>
      <point x="257" y="323"/>
      <point x="217" y="323" type="curve" smooth="yes"/>
      <point x="157" y="323"/>
      <point x="113" y="292"/>
      <point x="16" y="118" type="curve"/>
      <point x="116" y="59" type="line"/>
      <point x="183" y="170"/>
      <point x="195" y="189"/>
      <point x="210" y="189" type="curve" smooth="yes"/>
      <point x="223" y="189"/>
      <point x="231" y="183"/>
      <point x="282" y="135" type="curve" smooth="yes"/>
      <point x="341" y="79"/>
      <point x="358" y="65"/>
      <point x="398" y="65" type="curve" smooth="yes"/>
      <point x="453" y="65"/>
      <point x="498" y="88"/>
      <point x="581" y="238" type="curve"/>
      <point x="481" y="297" type="line"/>
      <point x="430" y="212"/>
      <point x="417" y="199"/>
      <point x="405" y="199" type="curve" smooth="yes"/>
      <point x="392" y="199"/>
      <point x="384" y="205"/>
    </contour>
  </outline>
</glyph>
<glyph name="lightvertbxd" format="2">
  <advance width="614"/>
  <unicode hex="2502"/>
  <outline>
    <contour>
      <point x="235" y="-420" type="line"/>
      <point x="379" y="-420" type="line"/>
      <point x="379" y="1080" type="line"/>
      <point x="235" y="1080" type="line"/>
    </contour>
  </outline>
</glyph>
<glyph name="heavyvertbxd" format="2">
  <advance width="614"/>
  <unicode hex="2503"/>
  <outline>
    <contour>
      <point x="199" y="-420" type="line"/>
      <point x="415" y="-420" type="line"/>
      <point x="415" y="1080" type="line"/>
      <point x="199" y="1080" type="line"/>
    </contour>
  </outline>
</glyph>
<glyph name="heavytrpldashhorzbxd" format="2">
  <advance width="614"/>
  <unicode hex="2505"/>
  <outline>
    <contour>
      <point x="34" y="222" type="line"/>
      <point x="171" y="222" type="line"/>
      <point x="171" y="438" type="line"/>
      <point x="34" y="438" type="line"/>
    </contour>
    <contour>
      <point x="239" y="222" type="line"/>
      <point x="375" y="222" type="line"/>
      <point x="375" y="438" type="line"/>
      <point x="239" y="438" type="line"/>
    </contour>
    <contour>
      <point x="443" y="222" type="line"/>
      <point x="580" y="222" type="line"/>
      <point x="580" y="438" type="line"/>
      <point x="443" y="438" type="line"/>
    </contour>
  </outline>
</glyph>
<glyph name="dnlightrightheavybxd" format="2">
  <advance width="614"/>
  <unicode hex="250D"/>
  <outline>
    <contour>
      <point x="235" y="-420" type="line"/>
      <point x="379" y="-420" type="line"/>
      <point x="379" y="222" type="line"/>
      <point x="634" y="222" type="line"/>
      <point x="634" y="438" type="line"/>
      <point x="235" y="438" type="line"/>
    </contour>
  </outline>
</glyph>
<glyph name="heavydnrightbxd" format="2">
  <advance width="614"/>
  <unicode hex="250F"/>
  <outline>
    <contour>
      <point x="199" y="-420" type="line"/>
      <point x="415" y="-420" type="line"/>
      <point x="415" y="222" type="line"/>
      <point x="634" y="222" type="line"/>
      <point x="634" y="438" type="line"/>
      <point x="199" y="438" type="line"/>
    </contour>
  </outline>
</glyph>
<glyph name="dnheavyrightuplightbxd" format="2">
  <advance width="614"/>
  <unicode hex="251F"/>
  <outline>
    <contour>
      <point x="199" y="-420" type="line"/>
      <point x="415" y="-420" type="line"/>
      <point x="415" y="258" type="line"/>
      <point x="634" y="258" type="line"/>
      <point x="634" y="402" type="line"/>
      <point x="379" y="402" type="line"/>
      <point x="379" y="1080" type="line"/>
      <point x="235" y="1080" type="line"/>
      <point x="235" y="402" type="line"/>
      <point x="199" y="402" type="line"/>
    </contour>
  </outline>
</glyph>
<glyph name="vertlightleftheavybxd" format="2">
  <advance width="614"/>
  <unicode hex="2525"/>
  <outline>
    <contour>
      <point x="-20" y="222" type="line"/>
      <point x="235" y="222" type="line"/>
      <point x="235" y="-420" type="line"/>
      <point x="379" y="-420" type="line"/>
      <point x="379" y="1080" type="line"/>
      <point x="235" y="1080" type="line"/>
      <point x="235" y="438" type="line"/>
      <point x="-20" y="438" type="line"/>
    </contour>
  </outline>
</glyph>
<glyph name="dnheavyhorzlightbxd" format="2">
  <advance width="614"/>
  <unicode hex="2530"/>
  <outline>
    <contour>
      <point x="-20" y="258" type="line"/>
      <point x="199" y="258" type="line"/>
      <point x="199" y="-420" type="line"/>
      <point x="415" y="-420" type="line"/>
      <point x="415" y="258" type="line"/>
      <point x="634" y="258" type="line"/>
      <point x="634" y="402" type="line"/>
      <point x="-20" y="402" type="line"/>
    </contour>
  </outline>
</glyph>
<glyph name="upheavyhorzlightbxd" format="2">
  <advance width="614"/>
  <unicode hex="2538"/>
  <outline>
    <contour>
      <point x="-20" y="258" type="line"/>
      <point x="634" y="258" type="line"/>
      <point x="634" y="402" type="line"/>
      <point x="415" y="402" type="line"/>
      <point x="415" y="1080" type="line"/>
      <point x="199" y="1080" type="line"/>
      <point x="199" y="402" type="line"/>
      <point x="-20" y="402" type="line"/>
    </contour>
  </outline>
</glyph>
<glyph name="vertlighthorzheavybxd" format="2">
  <advance width="614"/>
  <unicode hex="253F"/>
  <outline>
    <contour>
      <point x="-20" y="222" type="line"/>
      <point x="235" y="222" type="line"/>
      <point x="235" y="-420" type="line"/>
      <point x="379" y="-420" type="line"/>
      <point x="379" y="222" type="line"/>
      <point x="634" y="222" type="line"/>
      <point x="634" y="438" type="line"/>
      <point x="379" y="438" type="line"/>
      <point x="379" y="1080" type="line"/>
      <point x="235" y="1080" type="line"/>
      <point x="235" y="438" type="line"/>
      <point x="-20" y="438" type="line"/>
    </contour>
  </outline>
</glyph>
<glyph name="lightdbldashhorzbxd" format="2">
  <advance width="614"/>
  <unicode hex="254C"/>
  <outline>
    <contour>
      <point x="77" y="258" type="line"/>
      <point x="230" y="258" type="line"/>
      <point x="230" y="402" type="line"/>
      <point x="77" y="402" type="line"/>
    </contour>
    <contour>
      <point x="384" y="258" type="line"/>
      <point x="537" y="258" type="line"/>
      <point x="537" y="402" type="line"/>
      <point x="384" y="402" type="line"/>
    </contour>
  </outline>
</glyph>
<glyph name="dblhorzbxd" format="2">
  <advance width="614"/>
  <unicode hex="2550"/>
  <outline>
    <contour>
      <point x="-20" y="402" type="line"/>
      <point x="634" y="402" type="line"/>
      <point x="634" y="546" type="line"/>
      <point x="-20" y="546" type="line"/>
    </contour>
    <contour>
      <point x="-20" y="114" type="line"/>
      <point x="634" y="114" type="line"/>
      <point x="634" y="258" type="line"/>
      <point x="-20" y="258" type="line"/>
    </contour>
  </outline>
</glyph>
<glyph name="upsnghorzdblbxd" format="2">
  <advance width="614"/>
  <unicode hex="2567"/>
  <outline>
    <contour>
      <point x="-20" y="402" type="line"/>
      <point x="634" y="402" type="line"/>
      <point x="634" y="546" type="line"/>
      <point x="379" y="546" type="line"/>
      <point x="379" y="1080" type="line"/>
      <point x="235" y="1080" type="line"/>
      <point x="235" y="546" type="line"/>
      <point x="-20" y="546" type="line"/>
    </contour>
    <contour>
      <point x="-20" y="114" type="line"/>
      <point x="634" y="114" type="line"/>
      <point x="634" y="258" type="line"/>
      <point x="-20" y="258" type="line"/>
    </contour>
  </outline>
</glyph>
<glyph name="lightarcdnrightbxd" format="2">
  <advance width="614"/>
  <unicode hex="256D"/>
  <outline>
    <contour>
      <point x="235" y="-420" type="line"/>
      <point x="379" y="-420" type="line"/>
      <point x="379" y="23" type="line" smooth="yes"/>
      <point x="379" y="185"/>
      <point x="452" y="258"/>
      <point x="614" y="258" type="curve" smooth="yes"/>
      <point x="634" y="258" type="line"/>
      <point x="634" y="402" type="line"/>
      <point x="614" y="402" type="line" smooth="yes"/>
      <point x="352" y="402"/>
      <point x="235" y="285"/>
      <point x="235" y="23" type="curve" smooth="yes"/>
    </contour>
  </outline>
</glyph>
<glyph name="lightarcuprightbxd" format="2">
  <advance width="614"/>
  <unicode hex="2570"/>
  <outline>
    <contour>
      <point x="235" y="1080" type="line"/>
      <point x="235" y="637" type="line" smooth="yes"/>
      <point x="235" y="375"/>
      <point x="352" y="258"/>
      <point x="614" y="258" type="curve" smooth="yes"/>
      <point x="634" y="258" type="line"/>
      <point x="634" y="402" type="line"/>
      <point x="614" y="402" type="line" smooth="yes"/>
      <point x="452" y="402"/>
      <point x="379" y="475"/>
      <point x="379" y="637" type="curve" smooth="yes"/>
      <point x="379" y="1080" type="line"/>
    </contour>
  </outline>
</glyph>
<glyph name="lightleftbxd" format="2">
  <advance width="614"/>
  <unicode hex="2574"/>
  <outline>
    <contour>
      <point x="-20" y="258" type="line"/>
      <point x="379" y="258" type="line"/>
      <point x="379" y="402" type="line"/>
      <point x="-20" y="402" type="line"/>
    </contour>
  </outline>
</glyph>
<glyph name="lightupbxd" format="2">
  <advance width="614"/>
  <unicode hex="2575"/>
  <outline>
    <contour>
      <point x="235" y="258" type="line"/>
      <point x="379" y="258" type="line"/>
      <point x="379" y="1080" type="line"/>
      <point x="235" y="1080" type="line"/>
    </contour>
  </outline>
</glyph>
<glyph name="heavyleftbxd" format="2">
  <advance width="614"/>
  <unicode hex="2578"/>
  <outline>
    <contour>
      <point x="-20" y="222" type="line"/>
      <point x="379" y="222" type="line"/>
      <point x="379" y="438" type="line"/>
      <point x="-20" y="438" type="line"/>
    </contour>
  </outline>
</glyph>
<glyph name="lightleftheavyrightbxd" format="2">
  <advance width="614"/>
  <unicode hex="257C"/>
  <outline>
    <contour>
      <point x="-20" y="258" type="line"/>
      <point x="235" y="258" type="line"/>
      <point x="235" y="222" type="line"/>
      <point x="634" y="222" type="line"/>
      <point x="634" y="438" type="line"/>
      <point x="235" y="438" type="line"/>
      <point x="235" y="402" type="line"/>
      <point x="-20" y="402" type="line"/>
    </contour>
  </outline>
</glyph>
<glyph name="lightupheavydnbxd" format="2">
  <advance width="614"/>
  <unicode hex="257D"/>
  <outline>
    <contour>
      <point x="199" y="-420" type="line"/>
      <point x="415" y="-420" type="line"/>
      <point x="415" y="402" type="line"/>
      <point x="379" y="402" type="line"/>
      <point x="379" y="1080" type="line"/>
      <point x="235" y="1080" type="line"/>
      <point x="235" y="402" type="line"/>
      <point x="199" y="402" type="line"/>
    </contour>
  </outline>
</glyph>
<glyph name="uni2610" format="2">
  <advance width="614"/>
  <unicode hex="2610"/>
  <outline>
    <contour>
      <point x="2" y="70" type="line"/>
      <point x="516" y="70" type="line"/>
      <point x="664" y="585" type="line"/>
      <point x="150" y="585" type="line"/>
    </contour>
    <contour>
      <point x="103" y="141" type="line"/>
      <point x="211" y="514" type="line"/>
      <point x="563" y="514" type="line"/>
      <point x="455" y="141" type="line"/>
    </contour>
  </outline>
</glyph>
<glyph name="uni2612" format="2">
  <advance width="614"/>
  <unicode hex="2612"/>
  <outline>
    <contour>
      <point x="2" y="70" type="line"/>
      <point x="516" y="70" type="line"/>
      <point x="664" y="585" type="line"/>
      <point x="150" y="585" type="line"/>
    </contour>
    <contour>
      <point x="246" y="514" type="line"/>
      <point x="527" y="514" type="line"/>
      <point x="342" y="362" type="line"/>
    </contour>
    <contour>
      <point x="201" y="479" type="line"/>
      <point x="299" y="331" type="line"/>
      <point x="116" y="183" type="line"/>
    </contour>
    <contour>
      <point x="371" y="322" type="line"/>
      <point x="550" y="470" type="line"/>
      <point x="466" y="177" type="line"/>
    </contour>
    <contour>
      <point x="140" y="141" type="line"/>
      <point x="328" y="292" type="line"/>
      <point x="421" y="141" type="line"/>
    </contour>
  </outline>
</glyph>
<glyph name="uni2713" format="2">
  <advance width="614"/>
  <unicode hex="2713"/>
  <outline>
    <contour>
      <point x="640" y="598" type="line"/>
      <point x="479" y="598" type="line"/>
      <point x="265" y="174" type="line"/>
      <point x="260" y="388" type="line"/>
      <point x="112" y="388" type="line"/>
      <point x="131" y="55" type="line"/>
      <point x="355" y="55" type="line"/>
    </contour>
  </outline>
</glyph>
<glyph name="uniE0A0" format="2">
  <advance width="614"/>
  <unicode hex="E0A0"/>
  <outline>
    <contour>
      <point x="249" y="1020" type="line"/>
      <point x="19" y="217" type="line"/>
      <point x="173" y="316" type="line"/>
      <point x="374" y="1020" type="line"/>
    </contour>
    <contour>
      <point x="-95" y="-198" type="curve" smooth="yes"/>
      <point x="-141" y="-360" type="line"/>
      <point x="-16" y="-360" type="line"/>
      <point x="27" y="-209" type="line" smooth="yes"/>
      <point x="82" y="-17"/>
      <point x="99" y="10"/>
      <point x="242" y="88" type="curve" smooth="yes"/>
      <point x="450" y="196"/>
      <point x="476" y="229"/>
      <point x="522" y="389" type="curve" smooth="yes"/>
      <point x="561" y="528" type="line"/>
      <point x="707" y="528" type="line"/>
      <point x="709" y="532" type="line"/>
      <point x="567" y="758" type="line"/>
      <point x="563" y="758" type="line"/>
      <point x="292" y="532" type="line"/>
      <point x="290" y="528" type="line"/>
      <point x="436" y="528" type="line"/>
      <point x="399" y="396" type="line" smooth="yes"/>
      <point x="369" y="293"/>
      <point x="348" y="263"/>
      <point x="246" y="208" type="curve" smooth="yes"/>
      <point x="24" y="93"/>
      <point x="-20" y="62"/>
    </contour>
  </outline>
</glyph>
<glyph name="uniE0A1" format="2">
  <advance width="614"/>
  <unicode hex="E0A1"/>
  <outline>
    <contour>
      <point x="311" y="808" type="line"/>
      <point x="186" y="373" type="line"/>
      <point x="506" y="373" type="line"/>
      <point x="535" y="473" type="line"/>
      <point x="326" y="473" type="line"/>
      <point x="422" y="808" type="line"/>
    </contour>
    <contour>
      <point x="120" y="-163" type="line"/>
      <point x="206" y="178" type="line"/>
      <point x="211" y="-163" type="line"/>
      <point x="352" y="-163" type="line"/>
      <point x="477" y="272" type="line"/>
      <point x="389" y="272" type="line"/>
      <point x="310" y="-41" type="line"/>
      <point x="306" y="272" type="line"/>
      <point x="157" y="272" type="line"/>
      <point x="32" y="-163" type="line"/>
    </contour>
  </outline>
</glyph>
<glyph name="uniE0B2" format="2">
  <advance width="614"/>
  <unicode hex="E0B2"/>
  <outline>
    <contour>
      <point x="79" y="325" type="line"/>
      <point x="416" y="0" type="line"/>
      <point x="420" y="0" type="line"/>
      <point x="518" y="342" type="line"/>
      <point x="518" y="342" type="line"/>
      <point x="608" y="655" type="line"/>
      <point x="604" y="655" type="line"/>
      <point x="80" y="329" type="line"/>
    </contour>
  </outline>
</glyph>
<glyph name="acutecmb.cap" format="2">
  <anchor x="130" y="691" name="_aboveUC"/>
  <anchor x="122" y="661" name="_aboveUCx"/>
  <outline>
    <contour>
      <point x="52" y="805" type="line"/>
      <point x="82" y="731" type="line"/>
      <point x="359" y="837" type="line"/>
      <point x="326" y="926" type="line"/>
    </contour>
  </outline>
</glyph>
<glyph name="ampersand_ampersand.liga" format="2">
  <advance width="614"/>
  <outline>
    <contour>
      <point x="60" y="291" type="curve" smooth="yes"/>
      <point x="18" y="249"/>
      <point x="8" y="200"/>
      <point x="8" y="137" type="curve" smooth="yes"/>
      <point x="8" y="47"/>
      <point x="62" y="-14"/>
      <point x="165" y="-14" type="curve" smooth="yes"/>
      <point x="228" y="-14"/>
      <point x="277" y="0"/>
      <point x="353" y="76" type="curve"/>
      <point x="379" y="-1" type="line"/>
      <point x="518" y="-1" type="line"/>
      <point x="455" y="176" type="line"/>
      <point x="602" y="350" type="line"/>
      <point x="517" y="422" type="line"/>
      <point x="409" y="284" type="line"/>
      <point x="354" y="439" type="line" smooth="yes"/>
      <point x="347" y="458"/>
      <point x="345" y="471"/>
      <point x="345" y="483" type="curve" smooth="yes"/>
      <point x="345" y="530"/>
      <point x="380" y="559"/>
      <point x="438" y="559" type="curve" smooth="yes"/>
      <point x="467" y="559"/>
      <point x="500" y="556"/>
      <point x="557" y="548" type="curve"/>
      <point x="581" y="655" type="line"/>
      <point x="500" y="668"/>
      <point x="455" y="669"/>
      <point x="415" y="669" type="curve" smooth="yes"/>
      <point x="291" y="669"/>
      <point x="209" y="593"/>
      <point x="209" y="487" type="curve" smooth="yes"/>
      <point x="209" y="451"/>
      <point x="220" y="416"/>
      <point x="237" y="368" type="curve"/>
      <point x="132" y="341"/>
      <point x="89" y="320"/>
    </contour>
    <contour>
      <point x="-522" y="291" type="curve" smooth="yes"/>
      <point x="-564" y="249"/>
      <point x="-574" y="200"/>
      <point x="-574" y="137" type="curve" smooth="yes"/>
      <point x="-574" y="47"/>
      <point x="-520" y="-14"/>
      <point x="-417" y="-14" type="curve" smooth="yes"/>
      <point x="-354" y="-14"/>
      <point x="-305" y="0"/>
      <point x="-229" y="76" type="curve"/>
      <point x="-203" y="-1" type="line"/>
      <point x="-64" y="-1" type="line"/>
      <point x="-129" y="182" type="line"/>
      <point x="8" y="364" type="line"/>
      <point x="-85" y="422" type="line"/>
      <point x="-175" y="292" type="line"/>
      <point x="-228" y="439" type="line" smooth="yes"/>
      <point x="-235" y="458"/>
      <point x="-237" y="471"/>
      <point x="-237" y="483" type="curve" smooth="yes"/>
      <point x="-237" y="530"/>
      <point x="-202" y="559"/>
      <point x="-144" y="559" type="curve" smooth="yes"/>
      <point x="-115" y="559"/>
      <point x="-82" y="556"/>
      <point x="-25" y="548" type="curve"/>
      <point x="-1" y="655" type="line"/>
      <point x="-82" y="668"/>
      <point x="-127" y="669"/>
      <point x="-167" y="669" type="curve" smooth="yes"/>
      <point x="-291" y="669"/>
      <point x="-373" y="593"/>
      <point x="-373" y="487" type="curve" smooth="yes"/>
      <point x="-373" y="451"/>
      <point x="-363" y="417"/>
      <point x="-346" y="370" type="curve"/>
      <point x="-451" y="342"/>
      <point x="-494" y="319"/>
    </contour>
    <contour>
      <point x="-436" y="162" type="curve" smooth="yes"/>
      <point x="-436" y="191"/>
      <point x="-429" y="218"/>
      <point x="-412" y="235" type="curve" smooth="yes"/>
      <point x="-396" y="251"/>
      <point x="-383" y="260"/>
      <point x="-313" y="282" type="curve"/>
      <point x="-270" y="167" type="line"/>
      <point x="-315" y="115"/>
      <point x="-341" y="105"/>
      <point x="-379" y="105" type="curve" smooth="yes"/>
      <point x="-417" y="105"/>
      <point x="-436" y="125"/>
    </contour>
    <contour>
      <point x="146" y="162" type="curve" smooth="yes"/>
      <point x="146" y="191"/>
      <point x="153" y="218"/>
      <point x="170" y="235" type="curve" smooth="yes"/>
      <point x="187" y="252"/>
      <point x="201" y="259"/>
      <point x="270" y="280" type="curve"/>
      <point x="312" y="167" type="line"/>
      <point x="267" y="115"/>
      <point x="241" y="105"/>
      <point x="203" y="105" type="curve" smooth="yes"/>
      <point x="165" y="105"/>
      <point x="146" y="125"/>
    </contour>
  </outline>
</glyph>
<glyph name="asciitilde_greater.liga" format="2">
  <advance width="614"/>
  <outline>
    <contour>
      <point x="20" y="466" type="curve" smooth="yes"/>
      <point x="-6" y="466"/>
      <point x="-29" y="458"/>
      <point x="-83" y="400" type="curve" smooth="yes"/>
      <point x="-132" y="348"/>
      <point x="-147" y="342"/>
      <point x="-164" y="342" type="curve" smooth="yes"/>
      <point x="-177" y="342"/>
      <point x="-185" y="348"/>
      <point x="-236" y="396" type="curve" smooth="yes"/>
      <point x="-295" y="452"/>
      <point x="-312" y="466"/>
      <point x="-352" y="466" type="curve" smooth="yes"/>
      <point x="-412" y="466"/>
      <point x="-456" y="435"/>
      <point x="-553" y="261" type="curve"/>
      <point x="-453" y="202" type="line"/>
      <point x="-386" y="313"/>
      <point x="-374" y="332"/>
      <point x="-359" y="332" type="curve" smooth="yes"/>
      <point x="-346" y="332"/>
      <point x="-338" y="326"/>
      <point x="-287" y="278" type="curve" smooth="yes"/>
      <point x="-228" y="222"/>
      <point x="-211" y="208"/>
      <point x="-171" y="208" type="curve" smooth="yes"/>
      <point x="-143" y="208"/>
      <point x="-117" y="215"/>
      <point x="-62" y="274" type="curve" smooth="yes"/>
      <point x="-15" y="324"/>
      <point x="-3" y="332"/>
      <point x="13" y="332" type="curve" smooth="yes"/>
      <point x="21" y="332"/>
      <point x="27" y="333"/>
      <point x="55" y="307" type="curve" smooth="yes"/>
      <point x="100" y="264"/>
      <point x="125" y="247"/>
      <point x="162" y="247" type="curve" smooth="yes"/>
      <point x="178" y="247"/>
      <point x="216" y="251"/>
      <point x="338" y="285" type="curve"/>
      <point x="62" y="81" type="line"/>
      <point x="136" y="-11" type="line"/>
      <point x="560" y="305" type="line"/>
      <point x="561" y="309" type="line"/>
      <point x="280" y="665" type="line"/>
      <point x="185" y="598" type="line"/>
      <point x="348" y="391" type="line"/>
      <point x="241" y="374"/>
      <point x="211" y="373"/>
      <point x="197" y="373" type="curve" smooth="yes"/>
      <point x="171" y="373"/>
      <point x="156" y="387"/>
      <point x="113" y="424" type="curve" smooth="yes"/>
      <point x="72" y="463"/>
      <point x="52" y="466"/>
    </contour>
  </outline>
</glyph>
<glyph name="asciitilde_hyphen.liga" format="2">
  <advance width="614"/>
  <outline>
    <contour>
      <point x="-211" y="272" type="curve" smooth="yes"/>
      <point x="-174" y="236"/>
      <point x="-150" y="227"/>
      <point x="-122" y="227" type="curve" smooth="yes"/>
      <point x="-62" y="227"/>
      <point x="-15" y="272"/>
      <point x="73" y="272" type="curve" smooth="yes"/>
      <point x="424" y="272" type="line"/>
      <point x="457" y="388" type="line"/>
      <point x="89" y="388" type="line" smooth="yes"/>
      <point x="5" y="388"/>
      <point x="-40" y="352"/>
      <point x="-75" y="352" type="curve" smooth="yes"/>
      <point x="-109" y="352"/>
      <point x="-131" y="362"/>
      <point x="-160" y="390" type="curve" smooth="yes"/>
      <point x="-219" y="446"/>
      <point x="-236" y="460"/>
      <point x="-276" y="460" type="curve" smooth="yes"/>
      <point x="-336" y="460"/>
      <point x="-380" y="429"/>
      <point x="-477" y="255" type="curve"/>
      <point x="-377" y="196" type="line"/>
      <point x="-310" y="307"/>
      <point x="-298" y="326"/>
      <point x="-283" y="326" type="curve" smooth="yes"/>
      <point x="-270" y="326"/>
      <point x="-262" y="320"/>
    </contour>
  </outline>
</glyph>
<glyph name="backslash_slash.liga" format="2">
  <advance width="614"/>
  <outline>
    <contour>
      <point x="-354" y="655" type="line"/>
      <point x="-144" y="0" type="line"/>
      <point x="8" y="0" type="line"/>
      <point x="594" y="655" type="line"/>
      <point x="449" y="655" type="line"/>
      <point x="-50" y="98" type="line"/>
      <point x="-229" y="655" type="line"/>
    </contour>
  </outline>
</glyph>
<glyph name="bar_bar_equal.start" format="2">
  <advance width="614"/>
  <outline>
    <contour>
      <point x="602" y="161" type="line"/>
      <point x="635" y="276" type="line"/>
      <point x="-530" y="276" type="line"/>
      <point x="-499" y="384" type="line"/>
      <point x="666" y="384" type="line"/>
      <point x="699" y="500" type="line"/>
      <point x="-466" y="500" type="line"/>
      <point x="-393" y="755" type="line"/>
      <point x="-523" y="755" type="line"/>
      <point x="-768" y="-100" type="line"/>
      <point x="-638" y="-100" type="line"/>
      <point x="-563" y="161" type="line"/>
    </contour>
    <contour>
      <point x="-838" y="755" type="line"/>
      <point x="-1083" y="-100" type="line"/>
      <point x="-953" y="-100" type="line"/>
      <point x="-708" y="755" type="line"/>
    </contour>
  </outline>
</glyph>
<glyph name="bar_bar_greater.liga" format="2">
  <advance width="614"/>
  <outline>
    <contour>
      <point x="-823" y="-129" type="line"/>
      <point x="-562" y="783" type="line"/>
      <point x="-692" y="783" type="line"/>
      <point x="-953" y="-129" type="line"/>
    </contour>
    <contour>
      <point x="347" y="267" type="line"/>
      <point x="385" y="398" type="line"/>
      <point x="-167" y="783" type="line"/>
      <point x="-276" y="783" type="line"/>
      <point x="-538" y="-129" type="line"/>
      <point x="-429" y="-129" type="line"/>
    </contour>
    <contour>
      <point x="-190" y="630" type="line"/>
      <point x="241" y="341" type="line"/>
      <point x="-358" y="45" type="line"/>
    </contour>
  </outline>
</glyph>
<glyph name="bar_equal.start" format="2">
  <advance width="614"/>
  <outline>
    <contour>
      <point x="602" y="161" type="line"/>
      <point x="635" y="276" type="line"/>
      <point x="-231" y="276" type="line"/>
      <point x="-200" y="384" type="line"/>
      <point x="666" y="384" type="line"/>
      <point x="699" y="500" type="line"/>
      <point x="-167" y="500" type="line"/>
      <point x="-94" y="755" type="line"/>
      <point x="-224" y="755" type="line"/>
      <point x="-469" y="-100" type="line"/>
      <point x="-339" y="-100" type="line"/>
      <point x="-264" y="161" type="line"/>
    </contour>
  </outline>
</glyph>
<glyph name="bar_greater.liga" format="2">
  <advance width="614"/>
  <outline>
    <contour>
      <point x="423" y="267" type="line"/>
      <point x="461" y="398" type="line"/>
      <point x="-91" y="783" type="line"/>
      <point x="-200" y="783" type="line"/>
      <point x="-462" y="-129" type="line"/>
      <point x="-353" y="-129" type="line"/>
    </contour>
    <contour>
      <point x="-114" y="630" type="line"/>
      <point x="317" y="341" type="line"/>
      <point x="-282" y="45" type="line"/>
    </contour>
  </outline>
</glyph>
<glyph name="bar_hyphen.liga" format="2">
  <advance width="614"/>
  <outline>
    <contour>
      <point x="561" y="272" type="line"/>
      <point x="594" y="388" type="line"/>
      <point x="-199" y="388" type="line"/>
      <point x="-94" y="755" type="line"/>
      <point x="-224" y="755" type="line"/>
      <point x="-469" y="-100" type="line"/>
      <point x="-339" y="-100" type="line"/>
      <point x="-232" y="272" type="line"/>
    </contour>
  </outline>
</glyph>
<glyph name="breveacute.cap" format="2">
  <anchor x="130" y="691" name="_aboveUC"/>
  <anchor x="122" y="661" name="_aboveUCx"/>
  <outline>
    <contour>
      <point x="150" y="910" type="line"/>
      <point x="429" y="983" type="line"/>
      <point x="405" y="1073" type="line"/>
      <point x="127" y="984" type="line"/>
    </contour>
    <contour>
      <point x="157" y="826" type="curve" smooth="yes"/>
      <point x="114" y="826"/>
      <point x="73" y="843"/>
      <point x="68" y="913" type="curve"/>
      <point x="-9" y="883" type="line"/>
      <point x="-9" y="769"/>
      <point x="69" y="731"/>
      <point x="158" y="731" type="curve" smooth="yes"/>
      <point x="231" y="731"/>
      <point x="320" y="765"/>
      <point x="374" y="861" type="curve"/>
      <point x="293" y="903" type="line"/>
      <point x="253" y="841"/>
      <point x="200" y="826"/>
    </contour>
  </outline>
</glyph>
<glyph name="breveacute" format="2">
  <anchor x="76" y="502" name="_aboveLC"/>
  <anchor x="67" y="472" name="_aboveLCx"/>
  <outline>
    <contour>
      <point x="67" y="814" type="line"/>
      <point x="95" y="743" type="line"/>
      <point x="371" y="834" type="line"/>
      <point x="342" y="920" type="line"/>
    </contour>
    <contour>
      <point x="105" y="648" type="curve" smooth="yes"/>
      <point x="62" y="648"/>
      <point x="24" y="668"/>
      <point x="19" y="745" type="curve"/>
      <point x="-61" y="720" type="line"/>
      <point x="-61" y="594"/>
      <point x="11" y="553"/>
      <point x="96" y="553" type="curve" smooth="yes"/>
      <point x="175" y="553"/>
      <point x="269" y="594"/>
      <point x="333" y="709" type="curve"/>
      <point x="247" y="745" type="line"/>
      <point x="199" y="669"/>
      <point x="148" y="648"/>
    </contour>
  </outline>
</glyph>
<glyph name="brevecmb.cap" format="2">
  <anchor x="130" y="691" name="_aboveUC"/>
  <anchor x="122" y="661" name="_aboveUCx"/>
  <outline>
    <contour>
      <point x="157" y="826" type="curve" smooth="yes"/>
      <point x="114" y="826"/>
      <point x="76" y="846"/>
      <point x="71" y="923" type="curve"/>
      <point x="-11" y="898" type="line"/>
      <point x="-11" y="772"/>
      <point x="64" y="731"/>
      <point x="152" y="731" type="curve" smooth="yes"/>
      <point x="229" y="731"/>
      <point x="318" y="772"/>
      <point x="381" y="888" type="curve"/>
      <point x="299" y="923" type="line"/>
      <point x="251" y="847"/>
      <point x="200" y="826"/>
    </contour>
  </outline>
</glyph>
<glyph name="brevetilde.cap" format="2">
  <anchor x="130" y="691" name="_aboveUC"/>
  <anchor x="122" y="661" name="_aboveUCx"/>
  <outline>
    <contour>
      <point x="219" y="1072" type="curve" smooth="yes"/>
      <point x="177" y="1102"/>
      <point x="162" y="1106"/>
      <point x="140" y="1106" type="curve" smooth="yes"/>
      <point x="110" y="1106"/>
      <point x="81" y="1095"/>
      <point x="5" y="974" type="curve"/>
      <point x="68" y="935" type="line"/>
      <point x="115" y="1000"/>
      <point x="127" y="1012"/>
      <point x="141" y="1012" type="curve" smooth="yes"/>
      <point x="152" y="1012"/>
      <point x="162" y="1008"/>
      <point x="202" y="980" type="curve" smooth="yes"/>
      <point x="244" y="950"/>
      <point x="259" y="946"/>
      <point x="281" y="946" type="curve" smooth="yes"/>
      <point x="314" y="946"/>
      <point x="350" y="954"/>
      <point x="427" y="1077" type="curve"/>
      <point x="363" y="1117" type="line"/>
      <point x="314" y="1049"/>
      <point x="296" y="1040"/>
      <point x="280" y="1040" type="curve" smooth="yes"/>
      <point x="269" y="1040"/>
      <point x="259" y="1044"/>
    </contour>
    <contour>
      <point x="157" y="826" type="curve" smooth="yes"/>
      <point x="114" y="826"/>
      <point x="73" y="843"/>
      <point x="68" y="913" type="curve"/>
      <point x="-9" y="883" type="line"/>
      <point x="-9" y="769"/>
      <point x="69" y="731"/>
      <point x="158" y="731" type="curve" smooth="yes"/>
      <point x="231" y="731"/>
      <point x="320" y="765"/>
      <point x="374" y="861" type="curve"/>
      <point x="293" y="903" type="line"/>
      <point x="253" y="841"/>
      <point x="200" y="826"/>
    </contour>
  </outline>
</glyph>
<glyph name="brevetilde" format="2">
  <outline>
    <contour>
      <point x="191" y="905" type="curve" smooth="yes"/>
      <point x="154" y="936"/>
      <point x="139" y="945"/>
      <point x="114" y="945" type="curve" smooth="yes"/>
      <point x="73" y="945"/>
      <point x="35" y="910"/>
      <point x="-31" y="806" type="curve"/>
      <point x="39" y="773" type="line"/>
      <point x="83" y="847"/>
      <point x="103" y="852"/>
      <point x="114" y="852" type="curve" smooth="yes"/>
      <point x="124" y="852"/>
      <point x="129" y="847"/>
      <point x="168" y="816" type="curve" smooth="yes"/>
      <point x="205" y="785"/>
      <point x="220" y="776"/>
      <point x="245" y="776" type="curve" smooth="yes"/>
      <point x="286" y="776"/>
      <point x="325" y="811"/>
      <point x="391" y="915" type="curve"/>
      <point x="320" y="948" type="line"/>
      <point x="276" y="874"/>
      <point x="256" y="869"/>
      <point x="245" y="869" type="curve" smooth="yes"/>
      <point x="235" y="869"/>
      <point x="230" y="874"/>
    </contour>
    <contour>
      <point x="105" y="648" type="curve" smooth="yes"/>
      <point x="62" y="648"/>
      <point x="24" y="668"/>
      <point x="19" y="745" type="curve"/>
      <point x="-61" y="720" type="line"/>
      <point x="-61" y="594"/>
      <point x="11" y="553"/>
      <point x="96" y="553" type="curve" smooth="yes"/>
      <point x="175" y="553"/>
      <point x="269" y="594"/>
      <point x="333" y="709" type="curve"/>
      <point x="247" y="745" type="line"/>
      <point x="199" y="669"/>
      <point x="148" y="648"/>
    </contour>
  </outline>
</glyph>
<glyph name="circumflexacute.cap" format="2">
  <anchor x="130" y="691" name="_aboveUC"/>
  <anchor x="122" y="661" name="_aboveUCx"/>
  <outline>
    <contour>
      <point x="268" y="963" type="line"/>
      <point x="301" y="892" type="line"/>
      <point x="484" y="959" type="line"/>
      <point x="447" y="1045" type="line"/>
    </contour>
    <contour>
      <point x="-40" y="807" type="line"/>
      <point x="-17" y="731" type="line"/>
      <point x="163" y="806" type="line"/>
      <point x="301" y="731" type="line"/>
      <point x="355" y="794" type="line"/>
      <point x="204" y="910" type="line"/>
      <point x="162" y="910" type="line"/>
    </contour>
  </outline>
</glyph>
<glyph name="circumflexcmb.cap" format="2">
  <anchor x="130" y="691" name="_aboveUC"/>
  <anchor x="122" y="661" name="_aboveUCx"/>
  <outline>
    <contour>
      <point x="-49" y="800" type="line"/>
      <point x="-16" y="731" type="line"/>
      <point x="166" y="815" type="line"/>
      <point x="302" y="731" type="line"/>
      <point x="351" y="798" type="line"/>
      <point x="202" y="920" type="line"/>
      <point x="160" y="920" type="line"/>
    </contour>
  </outline>
</glyph>
<glyph name="circumflexhook.cap" format="2">
  <anchor x="130" y="691" name="_aboveUC"/>
  <anchor x="122" y="661" name="_aboveUCx"/>
  <outline>
    <contour>
      <point x="279" y="903" type="line"/>
      <point x="453" y="931"/>
      <point x="505" y="968"/>
      <point x="505" y="1020" type="curve" smooth="yes"/>
      <point x="505" y="1059"/>
      <point x="459" y="1090"/>
      <point x="313" y="1107" type="curve"/>
      <point x="242" y="1038" type="line"/>
      <point x="242" y="1036" type="line"/>
      <point x="354" y="1020"/>
      <point x="373" y="1013"/>
      <point x="373" y="1003" type="curve" smooth="yes"/>
      <point x="373" y="989"/>
      <point x="354" y="980"/>
      <point x="266" y="962" type="curve"/>
      <point x="265" y="960" type="line"/>
    </contour>
    <contour>
      <point x="-40" y="807" type="line"/>
      <point x="-17" y="731" type="line"/>
      <point x="163" y="806" type="line"/>
      <point x="301" y="731" type="line"/>
      <point x="355" y="794" type="line"/>
      <point x="204" y="910" type="line"/>
      <point x="162" y="910" type="line"/>
    </contour>
  </outline>
</glyph>
<glyph name="circumflextilde.cap" format="2">
  <anchor x="130" y="691" name="_aboveUC"/>
  <anchor x="122" y="661" name="_aboveUCx"/>
  <outline>
    <contour>
      <point x="220" y="1077" type="curve" smooth="yes"/>
      <point x="178" y="1107"/>
      <point x="163" y="1111"/>
      <point x="141" y="1111" type="curve" smooth="yes"/>
      <point x="111" y="1111"/>
      <point x="82" y="1100"/>
      <point x="6" y="979" type="curve"/>
      <point x="69" y="940" type="line"/>
      <point x="116" y="1005"/>
      <point x="128" y="1017"/>
      <point x="142" y="1017" type="curve" smooth="yes"/>
      <point x="153" y="1017"/>
      <point x="163" y="1013"/>
      <point x="203" y="985" type="curve" smooth="yes"/>
      <point x="245" y="955"/>
      <point x="260" y="951"/>
      <point x="282" y="951" type="curve" smooth="yes"/>
      <point x="315" y="951"/>
      <point x="351" y="959"/>
      <point x="428" y="1082" type="curve"/>
      <point x="364" y="1122" type="line"/>
      <point x="315" y="1054"/>
      <point x="297" y="1045"/>
      <point x="281" y="1045" type="curve" smooth="yes"/>
      <point x="270" y="1045"/>
      <point x="260" y="1049"/>
    </contour>
    <contour>
      <point x="-40" y="807" type="line"/>
      <point x="-17" y="731" type="line"/>
      <point x="163" y="806" type="line"/>
      <point x="301" y="731" type="line"/>
      <point x="355" y="794" type="line"/>
      <point x="204" y="910" type="line"/>
      <point x="162" y="910" type="line"/>
    </contour>
  </outline>
</glyph>
<glyph name="circumflextilde" format="2">
  <outline>
    <contour>
      <point x="189" y="900" type="curve" smooth="yes"/>
      <point x="152" y="931"/>
      <point x="137" y="940"/>
      <point x="112" y="940" type="curve" smooth="yes"/>
      <point x="71" y="940"/>
      <point x="33" y="905"/>
      <point x="-33" y="801" type="curve"/>
      <point x="37" y="768" type="line"/>
      <point x="81" y="842"/>
      <point x="101" y="847"/>
      <point x="112" y="847" type="curve" smooth="yes"/>
      <point x="122" y="847"/>
      <point x="127" y="842"/>
      <point x="166" y="811" type="curve" smooth="yes"/>
      <point x="203" y="780"/>
      <point x="218" y="771"/>
      <point x="243" y="771" type="curve" smooth="yes"/>
      <point x="284" y="771"/>
      <point x="323" y="806"/>
      <point x="389" y="910" type="curve"/>
      <point x="318" y="943" type="line"/>
      <point x="274" y="869"/>
      <point x="254" y="864"/>
      <point x="243" y="864" type="curve" smooth="yes"/>
      <point x="233" y="864"/>
      <point x="228" y="869"/>
    </contour>
    <contour>
      <point x="-85" y="615" type="line"/>
      <point x="-51" y="553" type="line"/>
      <point x="114" y="638" type="line"/>
      <point x="231" y="553" type="line"/>
      <point x="289" y="604" type="line"/>
      <point x="164" y="738" type="line"/>
      <point x="102" y="738" type="line"/>
    </contour>
  </outline>
</glyph>
